{
.appVersion = "3340";
customParameters = (
{
name = glyphOrder;
value = (
.notdef,
NULL,
CR,
space,
A,
B,
C,
D,
E,
F,
G,
H,
I,
J,
K,
L,
M,
N,
O,
P,
Q,
R,
S,
T,
U,
V,
W,
X,
Y,
Z,
a,
b,
c,
d,
e,
f,
g,
h,
i,
j,
k,
l,
m,
n,
o,
p,
q,
r,
s,
t,
u,
v,
w,
x,
y,
z,
zero,
one,
two,
three,
four,
five,
six,
seven,
eight,
nine,
bracketleft,
bracketright,
braceleft,
braceright,
parenleft,
parenright,
slash,
bar,
brokenbar,
backslash,
quotesingle,
quotedbl,
quoteleft,
quoteright,
quotedblleft,
quotedblright,
quotesinglbase,
quotedblbase,
period,
comma,
colon,
semicolon,
ellipsis,
exclam,
exclamdown,
question,
questiondown,
guilsinglleft,
guilsinglright,
guillemotleft,
guillemotright,
hyphen,
endash,
emdash,
periodcentered,
bullet,
underscore,
at,
ampersand,
asterisk,
Agrave,
Aacute,
Acircumflex,
Atilde,
Adieresis,
Amacron,
Abreve,
Aring,
uni01CD,
Aogonek,
uni1EA0,
uni1EA2,
uni1EA4,
uni1EA6,
uni1EA8,
uni1EAA,
uni1EAC,
uni1EAE,
uni1EB0,
uni1EB2,
uni1EB4,
uni1EB6,
AE,
uni0243,
Ccedilla,
Cacute,
Ccircumflex,
Ccaron,
Cdotaccent,
Eth,
Dcaron,
uni1E0C,
uni1E0E,
Dcroat,
Egrave,
Eacute,
Ecircumflex,
Ecaron,
Edieresis,
Emacron,
Ebreve,
Edotaccent,
Eogonek,
uni1EB8,
uni1EBA,
uni1EBC,
uni1EBE,
uni1EC0,
uni1EC2,
uni1EC4,
uni1EC6,
Gcircumflex,
Gbreve,
Gdotaccent,
uni0122,
uni1E20,
uni01E6,
Hcircumflex,
uni1E24,
uni1E2A,
Hbar,
Igrave,
Iacute,
Icircumflex,
Itilde,
Idieresis,
Imacron,
Idotaccent,
uni01CF,
Iogonek,
uni1EC8,
uni1ECA,
Ibreve,
Jcircumflex,
uni0136,
Lacute,
Lcaron,
uni013B,
uni1E36,
uni1E38,
uni1E3A,
Lslash,
Ldot,
uni1E42,
Nacute,
Ncaron,
Ntilde,
uni0145,
uni1E44,
uni1E46,
uni1E48,
Ograve,
Oacute,
Ocircumflex,
Otilde,
Odieresis,
Omacron,
Ohungarumlaut,
Obreve,
uni01D1,
uni01EA,
uni1ECC,
uni1ECE,
uni1ED0,
uni1ED2,
uni1ED4,
uni1ED6,
uni1ED8,
uni01A0,
uni1EDA,
uni1EDC,
uni1EDE,
uni1EE0,
uni1EE2,
Oslash,
OE,
Racute,
Rcaron,
uni0156,
uni1E5A,
uni1E5C,
uni1E5E,
Sacute,
Scircumflex,
Scaron,
uni0218,
Scedilla,
uni1E60,
uni1E62,
uni1E9E,
Tcaron,
uni0162,
uni021A,
uni1E6C,
uni1E6E,
Tbar,

glyphs = (
{
glyphname = A;
lastChange = "2025-01-15 13:07:57 +0000";
layers = (
{
layerId = "CCBD71C2-CFAF-4DB2-A010-494EF6BDA443";
paths = (
{
closed = 1;
nodes = (
"430 0 LINE",
"515 0 LINE",
"465 700 LINE",
"305 700 LINE",
"-42 0 LINE",
"53 0 LINE",
"138 174 LINE",
"419 174 LINE"
);
},
{
closed = 1;
nodes = (
"376 663 LINE",
"388 663 LINE",
"414 252 LINE",
"176 252 LINE"
);
}
);
width = 612;
},
{
layerId = "8275915C-4C26-4DD7-A30E-5590CD7E6050";
paths = (
{
closed = 1;
nodes = (
"390 0 LINE",
"521 0 LINE",
"504 700 LINE",
"260 700 LINE",
"-48 0 LINE",
"93 0 LINE",
"157 150 LINE",
"388 150 LINE"
);
},
{
closed = 1;
nodes = (
"363 634 LINE",
"381 634 LINE",
"386 276 LINE",
"210 276 LINE"
);
}
);
width = 612;
}
);
unicode = 0041;
},
{
glyphname = B;
lastChange = "2025-01-15 13:07:57 +0000";
layers = (
{
guideLines = (
{
position = "{0, 350}";
},
{
position = "{0, 506}";
},
{
position = "{0, 195}";
}
);
layerId = "CCBD71C2-CFAF-4DB2-A010-494EF6BDA443";
paths = (
{
closed = 1;
nodes = (
"2 0 LINE",
"256 0 LINE SMOOTH",
"400 0 OFFCURVE",
"506 90 OFFCURVE",
"506 219 CURVE SMOOTH",
"506 278 OFFCURVE",
"473 329 OFFCURVE",
"418 345 CURVE",
"418 357 LINE",
"515 378 OFFCURVE",
"575 454 OFFCURVE",
"575 535 CURVE SMOOTH",
"575 631 OFFCURVE",
"514 700 OFFCURVE",
"393 700 CURVE SMOOTH",
"117 700 LINE",
"117 622 LINE",
"183 622 LINE",
"68 78 LINE",
"2 78 LINE"
);
},
{
closed = 1;
nodes = (
"201 312 LINE",
"319 312 LINE SMOOTH",
"386 312 OFFCURVE",
"428 277 OFFCURVE",
"428 216 CURVE SMOOTH",
"428 135 OFFCURVE",
"356 78 OFFCURVE",
"267 78 CURVE SMOOTH",
"152 78 LINE"
);
},
{
closed = 1;
nodes = (
"267 622 LINE",
"382 622 LINE SMOOTH",
"452 622 OFFCURVE",
"493 587 OFFCURVE",
"493 532 CURVE SMOOTH",
"493 442 OFFCURVE",
"417 390 OFFCURVE",
"336 390 CURVE SMOOTH",
"218 390 LINE"
);
}
);
width = 612;
},
{
guideLines = (
{
position = "{0, 350}";
},
{
position = "{0, 480}";
},
{
position = "{0, 195}";
}
);
layerId = "8275915C-4C26-4DD7-A30E-5590CD7E6050";
paths = (
{
closed = 1;
nodes = (
"2 0 LINE",
"274 0 LINE SMOOTH",
"418 0 OFFCURVE",
"522 93 OFFCURVE",
"522 210 CURVE SMOOTH",
"522 284 OFFCURVE",
"485 324 OFFCURVE",
"432 340 CURVE",
"432 358 LINE",
"519 379 OFFCURVE",
"591 437 OFFCURVE",
"591 537 CURVE SMOOTH",
"591 628 OFFCURVE",
"530 700 OFFCURVE",
"396 700 CURVE SMOOTH",
"97 700 LINE",
"97 574 LINE",
"163 574 LINE",
"68 126 LINE",
"2 126 LINE"
);
},
{
closed = 1;
nodes = (
"232 288 LINE",
"318 288 LINE SMOOTH",
"367 288 OFFCURVE",
"398 268 OFFCURVE",
"398 219 CURVE SMOOTH",
"398 159 OFFCURVE",
"349 126 OFFCURVE",
"284 126 CURVE SMOOTH",
"198 126 LINE"
);
},
{
closed = 1;
nodes = (
"293 574 LINE",
"379 574 LINE SMOOTH",
"428 574 OFFCURVE",
"458 551 OFFCURVE",
"458 507 CURVE SMOOTH",
"458 446 OFFCURVE",
"414 414 OFFCURVE",
"345 414 CURVE SMOOTH",
"259 414 LINE"
);
}
);
width = 612;
}
);
unicode = 0042;
},
{
glyphname = C;
lastChange = "2025-01-15 13:07:57 +0000";
layers = (
{
layerId = "CCBD71C2-CFAF-4DB2-A010-494EF6BDA443";
paths = (
{
closed = 1;
nodes = (
"162 64 OFFCURVE",
"123 108 OFFCURVE",
"123 197 CURVE SMOOTH",
"123 221 OFFCURVE",
"127 248 OFFCURVE",
"133 278 CURVE SMOOTH",
"164 422 LINE SMOOTH",
"191 550 OFFCURVE",
"263 638 OFFCURVE",
"369 638 CURVE SMOOTH",
"459 638 OFFCURVE",
"498 592 OFFCURVE",
"498 522 CURVE SMOOTH",
"498 503 OFFCURVE",
"496 485 OFFCURVE",
"490 460 CURVE SMOOTH",
"487 448 LINE",
"571 448 LINE",
"574 460 LINE SMOOTH",
"580 484 OFFCURVE",
"583 506 OFFCURVE",
"583 528 CURVE SMOOTH",
"583 636 OFFCURVE",
"510 714 OFFCURVE",
"382 714 CURVE SMOOTH",
"220 714 OFFCURVE",
"121 616 OFFCURVE",
"81 428 CURVE SMOOTH",
"48 272 LINE SMOOTH",
"41 238 OFFCURVE",
"38 206 OFFCURVE",
"38 178 CURVE SMOOTH",
"38 64 OFFCURVE",
"108 -14 OFFCURVE",
"238 -14 CURVE SMOOTH",
"414 -14 OFFCURVE",
"487 79 OFFCURVE",
"527 240 CURVE SMOOTH",
"530 252 LINE",
"446 252 LINE",
"443 240 LINE SMOOTH",
"417 136 OFFCURVE",
"364 64 OFFCURVE",
"248 64 CURVE SMOOTH"
);
}
);
width = 612;
},
{
layerId = "8275915C-4C26-4DD7-A30E-5590CD7E6050";
paths = (
{
closed = 1;
nodes = (
"182 106 OFFCURVE",
"153 145 OFFCURVE",
"153 205 CURVE SMOOTH",
"153 222 OFFCURVE",
"156 242 OFFCURVE",
"160 262 CURVE SMOOTH",
"197 438 LINE SMOOTH",
"215 522 OFFCURVE",
"270 594 OFFCURVE",
"358 594 CURVE SMOOTH",
"433 594 OFFCURVE",
"459 552 OFFCURVE",
"459 500 CURVE SMOOTH",
"459 485 OFFCURVE",
"457 470 OFFCURVE",
"453 454 CURVE SMOOTH",
"449 436 LINE",
"581 436 LINE",
"585 454 LINE SMOOTH",
"589 474 OFFCURVE",
"592 492 OFFCURVE",
"592 511 CURVE SMOOTH",
"592 624 OFFCURVE",
"513 714 OFFCURVE",
"379 714 CURVE SMOOTH",
"211 714 OFFCURVE",
"104 620 OFFCURVE",
"63 428 CURVE SMOOTH",
"30 272 LINE SMOOTH",
"24 242 OFFCURVE",
"21 219 OFFCURVE",
"21 195 CURVE SMOOTH",
"21 63 OFFCURVE",
"107 -14 OFFCURVE",
"233 -14 CURVE SMOOTH",
"417 -14 OFFCURVE",
"502 73 OFFCURVE",
"540 246 CURVE SMOOTH",
"544 264 LINE",
"412 264 LINE",
"408 246 LINE SMOOTH",
"392 176 OFFCURVE",
"355 106 OFFCURVE",
"255 106 CURVE SMOOTH"
);
}
);
width = 612;
}
);
unicode = 0043;
},
{
glyphname = D;
lastChange = "2025-01-15 13:07:57 +0000";
layers = (
{
layerId = "CCBD71C2-CFAF-4DB2-A010-494EF6BDA443";
paths = (
{
closed = 1;
nodes = (
"115 622 LINE",
"181 622 LINE",
"66 78 LINE",
"0 78 LINE",
"0 0 LINE",
"227 0 LINE SMOOTH",
"417 0 OFFCURVE",
"483 70 OFFCURVE",
"524 260 CURVE SMOOTH",
"562 434 LINE SMOOTH",
"568 463 OFFCURVE",
"572 490 OFFCURVE",
"572 515 CURVE SMOOTH",
"572 634 OFFCURVE",
"499 700 OFFCURVE",
"358 700 CURVE SMOOTH",
"115 700 LINE"
);
},
{
closed = 1;
nodes = (
"150 78 LINE",
"265 622 LINE",
"341 622 LINE SMOOTH",
"438 622 OFFCURVE",
"486 595 OFFCURVE",
"486 510 CURVE SMOOTH",
"486 489 OFFCURVE",
"484 468 OFFCURVE",
"477 434 CURVE SMOOTH",
"442 266 LINE SMOOTH",
"412 120 OFFCURVE",
"350 78 OFFCURVE",
"226 78 CURVE"
);
}
);
width = 612;
},
{
layerId = "8275915C-4C26-4DD7-A30E-5590CD7E6050";
paths = (
{
closed = 1;
nodes = (
"103 574 LINE",
"169 574 LINE",
"74 126 LINE",
"2 126 LINE",
"2 0 LINE",
"223 0 LINE SMOOTH",
"404 0 OFFCURVE",
"495 72 OFFCURVE",
"531 242 CURVE SMOOTH",
"575 452 LINE SMOOTH",
"579 473 OFFCURVE",
"582 493 OFFCURVE",
"582 512 CURVE SMOOTH",
"582 625 OFFCURVE",
"503 700 OFFCURVE",
"368 700 CURVE SMOOTH",
"103 700 LINE"
);
},
{
closed = 1;
nodes = (
"206 126 LINE",
"301 574 LINE",
"345 574 LINE SMOOTH",
"415 574 OFFCURVE",
"448 544 OFFCURVE",
"448 490 CURVE SMOOTH",
"448 478 OFFCURVE",
"445 462 OFFCURVE",
"443 452 CURVE SMOOTH",
"402 260 LINE SMOOTH",
"383 168 OFFCURVE",
"342 126 OFFCURVE",
"250 126 CURVE"
);
}
);
width = 612;
}
);
unicode = 0044;
},
{
glyphname = E;
lastChange = "2025-01-15 13:07:57 +0000";
layers = (
{
layerId = "CCBD71C2-CFAF-4DB2-A010-494EF6BDA443";
paths = (
{
closed = 1;
nodes = (
"28 0 LINE",
"446 0 LINE",
"446 78 LINE",
"129 78 LINE",
"178 312 LINE",
"500 312 LINE",
"500 390 LINE",
"195 390 LINE",
"244 622 LINE",
"572 622 LINE",
"572 700 LINE",
"177 700 LINE"
);
}
);
width = 612;
},
{
layerId = "8275915C-4C26-4DD7-A30E-5590CD7E6050";
paths = (
{
closed = 1;
nodes = (
"18 0 LINE",
"469 0 LINE",
"469 126 LINE",
"174 126 LINE",
"208 288 LINE",
"506 288 LINE",
"506 414 LINE",
"235 414 LINE",
"269 574 LINE",
"579 574 LINE",
"579 700 LINE",
"164 700 LINE",
"18 12 LINE"
);
}
);
width = 612;
}
);
unicode = 0045;
},
{
glyphname = F;
lastChange = "2025-01-15 13:07:57 +0000";
layers = (
{
layerId = "CCBD71C2-CFAF-4DB2-A010-494EF6BDA443";
paths = (
{
closed = 1;
nodes = (
"25 0 LINE",
"109 0 LINE",
"175 312 LINE",
"503 312 LINE",
"503 390 LINE",
"192 390 LINE",
"241 622 LINE",
"575 622 LINE",
"575 700 LINE",
"174 700 LINE"
);
}
);
width = 612;
},
{
layerId = "8275915C-4C26-4DD7-A30E-5590CD7E6050";
paths = (
{
closed = 1;
nodes = (
"16 0 LINE",
"148 0 LINE",
"209 288 LINE",
"519 288 LINE",
"519 414 LINE",
"236 414 LINE",
"270 574 LINE",
"586 574 LINE",
"586 700 LINE",
"165 700 LINE"
);
}
);
width = 612;
}
);
unicode = 0046;
},
{
glyphname = G;
lastChange = "2025-01-15 13:07:57 +0000";
layers = (
{
layerId = "CCBD71C2-CFAF-4DB2-A010-494EF6BDA443";
paths = (
{
closed = 1;
nodes = (
"242 258 LINE",
"449 258 LINE",
"443 234 LINE SMOOTH",
"417 131 OFFCURVE",
"346 62 OFFCURVE",
"245 62 CURVE SMOOTH",
"159 62 OFFCURVE",
"118 111 OFFCURVE",
"118 198 CURVE SMOOTH",
"118 222 OFFCURVE",
"121 248 OFFCURVE",
"127 278 CURVE SMOOTH",
"158 422 LINE SMOOTH",
"185 550 OFFCURVE",
"258 638 OFFCURVE",
"366 638 CURVE SMOOTH",
"457 638 OFFCURVE",
"497 587 OFFCURVE",
"497 516 CURVE SMOOTH",
"497 498 OFFCURVE",
"495 480 OFFCURVE",
"490 460 CURVE SMOOTH",
"487 448 LINE",
"571 448 LINE",
"574 460 LINE SMOOTH",
"579 480 OFFCURVE",
"581 497 OFFCURVE",
"581 520 CURVE SMOOTH",
"581 632 OFFCURVE",
"508 714 OFFCURVE",
"380 714 CURVE SMOOTH",
"218 714 OFFCURVE",
"114 614 OFFCURVE",
"75 428 CURVE SMOOTH",
"42 272 LINE SMOOTH",
"34 236 OFFCURVE",
"32 210 OFFCURVE",
"32 183 CURVE SMOOTH",
"32 54 OFFCURVE",
"111 -14 OFFCURVE",
"223 -14 CURVE SMOOTH",
"304 -14 OFFCURVE",
"370 26 OFFCURVE",
"404 84 CURVE",
"416 84 LINE",
"396 0 LINE",
"476 0 LINE",
"548 336 LINE",
"242 336 LINE"
);
}
);
width = 612;
},
{
layerId = "8275915C-4C26-4DD7-A30E-5590CD7E6050";
paths = (
{
closed = 1;
nodes = (
"252 228 LINE",
"406 228 LINE",
"391 158 OFFCURVE",
"339 112 OFFCURVE",
"261 112 CURVE SMOOTH",
"197 112 OFFCURVE",
"157 148 OFFCURVE",
"157 220 CURVE SMOOTH",
"157 236 OFFCURVE",
"158 250 OFFCURVE",
"163 274 CURVE SMOOTH",
"195 422 LINE SMOOTH",
"221 544 OFFCURVE",
"284 588 OFFCURVE",
"358 588 CURVE SMOOTH",
"424 588 OFFCURVE",
"460 554 OFFCURVE",
"460 499 CURVE SMOOTH",
"460 487 OFFCURVE",
"459 476 OFFCURVE",
"455 460 CURVE SMOOTH",
"452 448 LINE",
"584 448 LINE",
"587 460 LINE SMOOTH",
"591 477 OFFCURVE",
"594 499 OFFCURVE",
"594 518 CURVE SMOOTH",
"594 625 OFFCURVE",
"516 714 OFFCURVE",
"382 714 CURVE SMOOTH",
"214 714 OFFCURVE",
"106 624 OFFCURVE",
"65 432 CURVE SMOOTH",
"30 268 LINE SMOOTH",
"23 235 OFFCURVE",
"20 208 OFFCURVE",
"20 182 CURVE SMOOTH",
"20 54 OFFCURVE",
"95 -14 OFFCURVE",
"200 -14 CURVE SMOOTH",
"290 -14 OFFCURVE",
"342 26 OFFCURVE",
"368 78 CURVE",
"386 78 LINE",
"369 0 LINE",
"489 0 LINE",
"561 342 LINE",
"561 354 LINE",
"252 354 LINE"
);
}
);
width = 612;
}
);
unicode = 0047;
},
{
glyphname = H;
lastChange = "2025-01-15 13:07:57 +0000";
layers = (
{
layerId = "CCBD71C2-CFAF-4DB2-A010-494EF6BDA443";
paths = (
{
closed = 1;
nodes = (
"8 0 LINE",
"93 0 LINE",
"159 312 LINE",
"435 312 LINE",
"369 0 LINE",
"455 0 LINE",
"604 700 LINE",
"518 700 LINE",
"452 390 LINE",
"176 390 LINE",
"242 700 LINE",
"156 700 LINE"
);
}
);
width = 612;
},
{
layerId = "8275915C-4C26-4DD7-A30E-5590CD7E6050";
paths = (
{
closed = 1;
nodes = (
"0 0 LINE",
"131 0 LINE",
"192 288 LINE",
"392 288 LINE",
"331 0 LINE",
"463 0 LINE",
"612 700 LINE",
"480 700 LINE",
"419 414 LINE",
"219 414 LINE",
"280 700 LINE",
"148 700 LINE"
);
}
);
width = 612;
}
);
unicode = 0048;
},
{
glyphname = I;
lastChange = "2025-01-15 13:07:57 +0000";
layers = (
{
layerId = "CCBD71C2-CFAF-4DB2-A010-494EF6BDA443";
paths = (
{
closed = 1;
nodes = (
"147 622 LINE",
"321 622 LINE",
"206 78 LINE",
"32 78 LINE",
"32 0 LINE",
"464 0 LINE",
"464 78 LINE",
"290 78 LINE",
"405 622 LINE",
"579 622 LINE",
"579 700 LINE",
"147 700 LINE"
);
}
);
width = 612;
},
{
layerId = "8275915C-4C26-4DD7-A30E-5590CD7E6050";
paths = (
{
closed = 1;
nodes = (
"125 574 LINE",
"287 574 LINE",
"192 126 LINE",
"30 126 LINE",
"30 0 LINE",
"486 0 LINE",
"486 126 LINE",
"324 126 LINE",
"419 574 LINE",
"581 574 LINE",
"581 700 LINE",
"125 700 LINE"
);
}
);
width = 612;
}
);
unicode = 0049;
},
{
glyphname = J;
lastChange = "2025-01-15 13:07:57 +0000";
layers = (
{
layerId = "CCBD71C2-CFAF-4DB2-A010-494EF6BDA443";
paths = (
{
closed = 1;
nodes = (
"622 700 LINE",
"394 700 LINE",
"394 622 LINE",
"472 622 LINE",
"384 210 LINE SMOOTH",
"366 124 OFFCURVE",
"320 64 OFFCURVE",
"227 64 CURVE SMOOTH",
"150 64 OFFCURVE",
"114 97 OFFCURVE",
"114 160 CURVE SMOOTH",
"114 175 OFFCURVE",
"116 192 OFFCURVE",
"120 210 CURVE SMOOTH",
"132 264 LINE",
"48 264 LINE",
"36 210 LINE SMOOTH",
"32 191 OFFCURVE",
"30 172 OFFCURVE",
"30 155 CURVE SMOOTH",
"30 53 OFFCURVE",
"100 -14 OFFCURVE",
"216 -14 CURVE SMOOTH",
"366 -14 OFFCURVE",
"437 68 OFFCURVE",
"467 206 CURVE SMOOTH",
"556 622 LINE",
"622 622 LINE"
);
}
);
width = 612;
},
{
layerId = "8275915C-4C26-4DD7-A30E-5590CD7E6050";
paths = (
{
closed = 1;
nodes = (
"554 576 LINE",
"621 576 LINE",
"621 700 LINE",
"347 700 LINE",
"347 576 LINE",
"422 576 LINE",
"344 210 LINE SMOOTH",
"331 146 OFFCURVE",
"290 110 OFFCURVE",
"233 110 CURVE SMOOTH",
"182 110 OFFCURVE",
"155 136 OFFCURVE",
"155 181 CURVE SMOOTH",
"155 190 OFFCURVE",
"156 201 OFFCURVE",
"158 210 CURVE SMOOTH",
"172 276 LINE",
"40 276 LINE",
"30 229 LINE SMOOTH",
"25 207 OFFCURVE",
"23 186 OFFCURVE",
"23 167 CURVE SMOOTH",
"23 51 OFFCURVE",
"104 -14 OFFCURVE",
"215 -14 CURVE SMOOTH",
"363 -14 OFFCURVE",
"442 52 OFFCURVE",
"476 210 CURVE SMOOTH"
);
}
);
width = 612;
}
);
unicode = 004A;
},
{
glyphname = K;
lastChange = "2025-01-15 13:07:57 +0000";
layers = (
{
layerId = "CCBD71C2-CFAF-4DB2-A010-494EF6BDA443";
paths = (
{
closed = 1;
nodes = (
"157 312 LINE",
"197 312 LINE",
"398 0 LINE",
"493 0 LINE",
"493 6 LINE",
"275 344 LINE",
"275 356 LINE",
"612 688 LINE",
"612 700 LINE",
"515 700 LINE",
"200 390 LINE",
"174 390 LINE",
"240 700 LINE",
"154 700 LINE",
"5 0 LINE",
"91 0 LINE"
);
}
);
width = 612;
},
{
layerId = "8275915C-4C26-4DD7-A30E-5590CD7E6050";
paths = (
{
closed = 1;
nodes = (
"188 287 LINE",
"230 287 LINE",
"376 0 LINE",
"522 0 LINE",
"522 6 LINE",
"354 338 LINE",
"354 356 LINE",
"620 688 LINE",
"620 700 LINE",
"466 700 LINE",
"240 413 LINE",
"216 413 LINE",
"277 700 LINE",
"145 700 LINE",
"-4 0 LINE",
"128 0 LINE"
);
}
);
width = 612;
}
);
unicode = 004B;
},
{
glyphname = L;
lastChange = "2025-01-15 13:07:57 +0000";
layers = (
{
layerId = "CCBD71C2-CFAF-4DB2-A010-494EF6BDA443";
paths = (
{
closed = 1;
nodes = (
"24 0 LINE",
"485 0 LINE",
"485 78 LINE",
"125 78 LINE",
"257 700 LINE",
"173 700 LINE"
);
}
);
width = 612;
},
{
layerId = "8275915C-4C26-4DD7-A30E-5590CD7E6050";
paths = (
{
closed = 1;
nodes = (
"15 0 LINE",
"475 0 LINE",
"475 126 LINE",
"171 126 LINE",
"293 700 LINE",
"161 700 LINE",
"15 12 LINE"
);
}
);
width = 612;
}
);
unicode = 004C;
},
{
glyphname = M;
lastChange = "2025-01-15 13:07:57 +0000";
layers = (
{
layerId = "CCBD71C2-CFAF-4DB2-A010-494EF6BDA443";
paths = (
{
closed = 1;
nodes = (
"-16 0 LINE",
"61 0 LINE",
"202 664 LINE",
"214 664 LINE",
"157 0 LINE",
"311 0 LINE",
"530 664 LINE",
"542 664 LINE",
"401 0 LINE",
"479 0 LINE",
"628 700 LINE",
"464 700 LINE",
"245 36 LINE",
"233 36 LINE",
"291 700 LINE",
"132 700 LINE"
);
}
);
width = 612;
},
{
layerId = "8275915C-4C26-4DD7-A30E-5590CD7E6050";
paths = (
{
closed = 1;
nodes = (
"-34 0 LINE",
"79 0 LINE",
"179 466 LINE",
"199 616 LINE",
"223 616 LINE",
"144 0 LINE",
"323 0 LINE",
"502 616 LINE",
"526 616 LINE",
"481 460 LINE",
"383 0 LINE",
"497 0 LINE",
"646 700 LINE",
"426 700 LINE",
"286 204 LINE",
"260 84 LINE",
"236 84 LINE",
"260 198 LINE",
"328 700 LINE",
"114 700 LINE"
);
}
);
width = 612;
}
);
unicode = 004D;
},
{
glyphname = N;
lastChange = "2025-01-15 13:07:57 +0000";
layers = (
{
layerId = "CCBD71C2-CFAF-4DB2-A010-494EF6BDA443";
paths = (
{
closed = 1;
nodes = (
"324 700 LINE",
"159 700 LINE",
"10 0 LINE",
"94 0 LINE",
"235 664 LINE",
"247 664 LINE",
"287 0 LINE",
"452 0 LINE",
"601 700 LINE",
"517 700 LINE",
"376 36 LINE",
"364 36 LINE"
);
}
);
width = 612;
},
{
layerId = "8275915C-4C26-4DD7-A30E-5590CD7E6050";
paths = (
{
closed = 1;
nodes = (
"387 700 LINE",
"141 700 LINE",
"-7 0 LINE",
"118 0 LINE",
"253 634 LINE",
"271 634 LINE",
"224 0 LINE",
"470 0 LINE",
"619 700 LINE",
"493 700 LINE",
"358 66 LINE",
"340 66 LINE"
);
}
);
width = 612;
}
);
unicode = 004E;
},
{
glyphname = O;
lastChange = "2025-01-15 13:07:57 +0000";
layers = (
{
layerId = "CCBD71C2-CFAF-4DB2-A010-494EF6BDA443";
paths = (
{
closed = 1;
nodes = (
"46 283 LINE SMOOTH",
"39 252 OFFCURVE",
"36 222 OFFCURVE",
"36 195 CURVE SMOOTH",
"36 65 OFFCURVE",
"107 -14 OFFCURVE",
"236 -14 CURVE SMOOTH",
"400 -14 OFFCURVE",
"497 86 OFFCURVE",
"536 272 CURVE SMOOTH",
"567 417 LINE SMOOTH",
"574 448 OFFCURVE",
"577 478 OFFCURVE",
"577 505 CURVE SMOOTH",
"577 635 OFFCURVE",
"506 714 OFFCURVE",
"377 714 CURVE SMOOTH",
"213 714 OFFCURVE",
"116 614 OFFCURVE",
"77 428 CURVE SMOOTH"
);
},
{
closed = 1;
nodes = (
"163 62 OFFCURVE",
"120 116 OFFCURVE",
"120 202 CURVE SMOOTH",
"120 223 OFFCURVE",
"123 247 OFFCURVE",
"128 272 CURVE SMOOTH",
"160 422 LINE SMOOTH",
"188 553 OFFCURVE",
"255 638 OFFCURVE",
"365 638 CURVE SMOOTH",
"450 638 OFFCURVE",
"493 584 OFFCURVE",
"493 498 CURVE SMOOTH",
"493 477 OFFCURVE",
"490 453 OFFCURVE",
"485 428 CURVE SMOOTH",
"453 278 LINE SMOOTH",
"425 148 OFFCURVE",
"358 62 OFFCURVE",
"248 62 CURVE SMOOTH"
);
}
);
width = 612;
},
{
layerId = "8275915C-4C26-4DD7-A30E-5590CD7E6050";
paths = (
{
closed = 1;
nodes = (
"32 272 LINE SMOOTH",
"27 249 OFFCURVE",
"25 226 OFFCURVE",
"25 204 CURVE SMOOTH",
"25 80 OFFCURVE",
"104 -14 OFFCURVE",
"245 -14 CURVE SMOOTH",
"413 -14 OFFCURVE",
"507 76 OFFCURVE",
"548 272 CURVE SMOOTH",
"581 428 LINE SMOOTH",
"586 451 OFFCURVE",
"588 474 OFFCURVE",
"588 496 CURVE SMOOTH",
"588 620 OFFCURVE",
"509 714 OFFCURVE",
"368 714 CURVE SMOOTH",
"200 714 OFFCURVE",
"106 624 OFFCURVE",
"65 428 CURVE SMOOTH"
);
},
{
closed = 1;
nodes = (
"193 106 OFFCURVE",
"156 147 OFFCURVE",
"156 214 CURVE SMOOTH",
"156 229 OFFCURVE",
"158 246 OFFCURVE",
"162 264 CURVE SMOOTH",
"199 436 LINE SMOOTH",
"218 524 OFFCURVE",
"265 594 OFFCURVE",
"356 594 CURVE SMOOTH",
"420 594 OFFCURVE",
"457 553 OFFCURVE",
"457 486 CURVE SMOOTH",
"457 471 OFFCURVE",
"455 457 OFFCURVE",
"451 436 CURVE SMOOTH",
"414 264 LINE SMOOTH",
"395 176 OFFCURVE",
"348 106 OFFCURVE",
"257 106 CURVE SMOOTH"
);
}
);
width = 612;
}
);
unicode = 004F;
},
{
glyphname = P;
lastChange = "2025-01-15 13:07:57 +0000";
layers = (
{
layerId = "CCBD71C2-CFAF-4DB2-A010-494EF6BDA443";
paths = (
{
closed = 1;
nodes = (
"317 288 LINE SMOOTH",
"481 288 OFFCURVE",
"581 394 OFFCURVE",
"581 533 CURVE SMOOTH",
"581 630 OFFCURVE",
"508 700 OFFCURVE",
"389 700 CURVE SMOOTH",
"161 700 LINE",
"12 0 LINE",
"96 0 LINE",
"157 288 LINE"
);
},
{
closed = 1;
nodes = (
"228 622 LINE",
"377 622 LINE SMOOTH",
"453 622 OFFCURVE",
"495 588 OFFCURVE",
"495 518 CURVE SMOOTH",
"495 424 OFFCURVE",
"423 366 OFFCURVE",
"324 366 CURVE SMOOTH",
"174 366 LINE"
);
}
);
width = 612;
},
{
layerId = "8275915C-4C26-4DD7-A30E-5590CD7E6050";
paths = (
{
closed = 1;
nodes = (
"324 264 LINE SMOOTH",
"484 264 OFFCURVE",
"590 364 OFFCURVE",
"590 514 CURVE SMOOTH",
"590 620 OFFCURVE",
"516 700 OFFCURVE",
"398 700 CURVE SMOOTH",
"148 700 LINE",
"0 0 LINE",
"131 0 LINE",
"187 264 LINE"
);
},
{
closed = 1;
nodes = (
"253 574 LINE",
"370 574 LINE SMOOTH",
"420 574 OFFCURVE",
"455 547 OFFCURVE",
"455 498 CURVE SMOOTH",
"455 435 OFFCURVE",
"403 390 OFFCURVE",
"336 390 CURVE SMOOTH",
"214 390 LINE"
);
}
);
width = 612;
}
);
unicode = 0050;
},
{
glyphname = Q;
lastChange = "2025-01-15 13:07:57 +0000";
layers = (
{
layerId = "CCBD71C2-CFAF-4DB2-A010-494EF6BDA443";
paths = (
{
closed = 1;
nodes = (
"46 283 LINE SMOOTH",
"39 252 OFFCURVE",
"36 222 OFFCURVE",
"36 195 CURVE SMOOTH",
"36 83 OFFCURVE",
"88 9 OFFCURVE",
"184 -9 CURVE",
"172 -66 LINE SMOOTH",
"170 -76 OFFCURVE",
"170 -79 OFFCURVE",
"170 -85 CURVE SMOOTH",
"170 -126 OFFCURVE",
"201 -156 OFFCURVE",
"244 -156 CURVE SMOOTH",
"358 -156 LINE",
"358 -84 LINE",
"274 -84 LINE SMOOTH",
"259 -84 OFFCURVE",
"252 -77 OFFCURVE",
"252 -64 CURVE",
"252 -62 OFFCURVE",
"252 -60 OFFCURVE",
"253 -54 CURVE SMOOTH",
"262 -13 LINE",
"410 -3 OFFCURVE",
"499 96 OFFCURVE",
"536 272 CURVE SMOOTH",
"567 417 LINE SMOOTH",
"574 448 OFFCURVE",
"577 478 OFFCURVE",
"577 505 CURVE SMOOTH",
"577 635 OFFCURVE",
"506 714 OFFCURVE",
"377 714 CURVE SMOOTH",
"213 714 OFFCURVE",
"116 614 OFFCURVE",
"77 428 CURVE SMOOTH"
);
},
{
closed = 1;
nodes = (
"163 62 OFFCURVE",
"120 116 OFFCURVE",
"120 202 CURVE SMOOTH",
"120 223 OFFCURVE",
"123 247 OFFCURVE",
"128 272 CURVE SMOOTH",
"160 422 LINE SMOOTH",
"188 553 OFFCURVE",
"255 638 OFFCURVE",
"365 638 CURVE SMOOTH",
"450 638 OFFCURVE",
"493 584 OFFCURVE",
"493 498 CURVE SMOOTH",
"493 477 OFFCURVE",
"490 453 OFFCURVE",
"485 428 CURVE SMOOTH",
"453 278 LINE SMOOTH",
"425 148 OFFCURVE",
"358 62 OFFCURVE",
"248 62 CURVE SMOOTH"
);
}
);
width = 612;
},
{
layerId = "8275915C-4C26-4DD7-A30E-5590CD7E6050";
paths = (
{
closed = 1;
nodes = (
"32 272 LINE SMOOTH",
"27 249 OFFCURVE",
"25 226 OFFCURVE",
"25 204 CURVE SMOOTH",
"25 109 OFFCURVE",
"70 32 OFFCURVE",
"154 1 CURVE",
"140 -60 LINE SMOOTH",
"138 -70 OFFCURVE",
"136 -80 OFFCURVE",
"136 -90 CURVE SMOOTH",
"136 -139 OFFCURVE",
"174 -174 OFFCURVE",
"230 -174 CURVE SMOOTH",
"349 -174 LINE",
"349 -54 LINE",
"293 -54 LINE SMOOTH",
"279 -54 OFFCURVE",
"271 -47 OFFCURVE",
"271 -35 CURVE SMOOTH",
"271 -32 OFFCURVE",
"271 -31 OFFCURVE",
"272 -26 CURVE SMOOTH",
"275 -13 LINE",
"424 -2 OFFCURVE",
"509 88 OFFCURVE",
"548 272 CURVE SMOOTH",
"581 428 LINE SMOOTH",
"586 451 OFFCURVE",
"588 474 OFFCURVE",
"588 496 CURVE SMOOTH",
"588 620 OFFCURVE",
"509 714 OFFCURVE",
"368 714 CURVE SMOOTH",
"200 714 OFFCURVE",
"106 624 OFFCURVE",
"65 428 CURVE SMOOTH"
);
},
{
closed = 1;
nodes = (
"193 106 OFFCURVE",
"156 147 OFFCURVE",
"156 214 CURVE SMOOTH",
"156 229 OFFCURVE",
"158 246 OFFCURVE",
"162 264 CURVE SMOOTH",
"199 436 LINE SMOOTH",
"218 524 OFFCURVE",
"265 594 OFFCURVE",
"356 594 CURVE SMOOTH",
"420 594 OFFCURVE",
"457 553 OFFCURVE",
"457 486 CURVE SMOOTH",
"457 471 OFFCURVE",
"455 457 OFFCURVE",
"451 436 CURVE SMOOTH",
"414 264 LINE SMOOTH",
"395 176 OFFCURVE",
"348 106 OFFCURVE",
"257 106 CURVE SMOOTH"
);
}
);
width = 612;
}
);
unicode = 0051;
},
{
glyphname = R;
lastChange = "2025-01-15 13:07:57 +0000";
layers = (
{
layerId = "CCBD71C2-CFAF-4DB2-A010-494EF6BDA443";
paths = (
{
closed = 1;
nodes = (
"502 252 LINE SMOOTH",
"504 261 OFFCURVE",
"505 267 OFFCURVE",
"505 274 CURVE SMOOTH",
"505 307 OFFCURVE",
"485 327 OFFCURVE",
"452 330 CURVE",
"452 342 LINE",
"532 375 OFFCURVE",
"582 441 OFFCURVE",
"582 529 CURVE SMOOTH",
"582 636 OFFCURVE",
"512 700 OFFCURVE",
"394 700 CURVE SMOOTH",
"157 700 LINE",
"8 0 LINE",
"92 0 LINE",
"153 288 LINE",
"374 288 LINE SMOOTH",
"404 288 OFFCURVE",
"416 275 OFFCURVE",
"416 253 CURVE SMOOTH",
"416 245 OFFCURVE",
"415 238 OFFCURVE",
"414 234 CURVE SMOOTH",
"364 0 LINE",
"448 0 LINE"
);
},
{
closed = 1;
nodes = (
"224 622 LINE",
"378 622 LINE SMOOTH",
"456 622 OFFCURVE",
"497 586 OFFCURVE",
"497 520 CURVE SMOOTH",
"497 432 OFFCURVE",
"424 366 OFFCURVE",
"324 366 CURVE SMOOTH",
"170 366 LINE"
);
}
);
width = 612;
},
{
layerId = "8275915C-4C26-4DD7-A30E-5590CD7E6050";
paths = (
{
closed = 1;
nodes = (
"516 242 LINE SMOOTH",
"517 247 OFFCURVE",
"518 254 OFFCURVE",
"518 262 CURVE SMOOTH",
"518 298 OFFCURVE",
"497 323 OFFCURVE",
"458 327 CURVE",
"458 345 LINE",
"549 375 OFFCURVE",
"594 435 OFFCURVE",
"594 532 CURVE SMOOTH",
"594 624 OFFCURVE",
"526 700 OFFCURVE",
"394 700 CURVE SMOOTH",
"148 700 LINE",
"0 0 LINE",
"131 0 LINE",
"187 264 LINE",
"332 264 LINE SMOOTH",
"363 264 OFFCURVE",
"377 249 OFFCURVE",
"377 226 CURVE SMOOTH",
"377 221 OFFCURVE",
"376 215 OFFCURVE",
"375 210 CURVE SMOOTH",
"330 0 LINE",
"464 0 LINE"
);
},
{
closed = 1;
nodes = (
"253 574 LINE",
"372 574 LINE SMOOTH",
"428 574 OFFCURVE",
"455 544 OFFCURVE",
"455 494 CURVE SMOOTH",
"455 431 OFFCURVE",
"404 390 OFFCURVE",
"334 390 CURVE SMOOTH",
"214 390 LINE"
);
}
);
width = 612;
}
);
unicode = 0052;
},
{
glyphname = S;
lastChange = "2025-01-15 13:07:57 +0000";
layers = (
{
layerId = "CCBD71C2-CFAF-4DB2-A010-494EF6BDA443";
paths = (
{
closed = 1;
nodes = (
"491 462 LINE",
"575 462 LINE",
"583 498 LINE SMOOTH",
"586 511 OFFCURVE",
"587 525 OFFCURVE",
"587 538 CURVE SMOOTH",
"587 635 OFFCURVE",
"506 714 OFFCURVE",
"367 714 CURVE SMOOTH",
"215 714 OFFCURVE",
"96 636 OFFCURVE",
"96 500 CURVE SMOOTH",
"96 394 OFFCURVE",
"174 344 OFFCURVE",
"285 326 CURVE SMOOTH",
"401 308 OFFCURVE",
"444 281 OFFCURVE",
"444 207 CURVE SMOOTH",
"444 118 OFFCURVE",
"355 64 OFFCURVE",
"259 64 CURVE SMOOTH",
"160 64 OFFCURVE",
"104 105 OFFCURVE",
"104 193 CURVE SMOOTH",
"104 210 OFFCURVE",
"106 228 OFFCURVE",
"110 248 CURVE SMOOTH",
"115 272 LINE",
"31 272 LINE",
"25 242 LINE SMOOTH",
"21 221 OFFCURVE",
"19 200 OFFCURVE",
"19 181 CURVE SMOOTH",
"19 67 OFFCURVE",
"96 -14 OFFCURVE",
"249 -14 CURVE SMOOTH",
"409 -14 OFFCURVE",
"531 68 OFFCURVE",
"531 217 CURVE SMOOTH",
"531 314 OFFCURVE",
"475 374 OFFCURVE",
"353 394 CURVE SMOOTH",
"245 412 OFFCURVE",
"182 436 OFFCURVE",
"182 513 CURVE SMOOTH",
"182 592 OFFCURVE",
"271 636 OFFCURVE",
"360 636 CURVE SMOOTH",
"437 636 OFFCURVE",
"501 599 OFFCURVE",
"501 522 CURVE SMOOTH",
"501 511 OFFCURVE",
"500 503 OFFCURVE",
"497 488 CURVE SMOOTH"
);
}
);
width = 612;
},
{
layerId = "8275915C-4C26-4DD7-A30E-5590CD7E6050";
paths = (
{
closed = 1;
nodes = (
"454 462 LINE",
"586 462 LINE",
"590 480 LINE SMOOTH",
"594 499 OFFCURVE",
"595 512 OFFCURVE",
"595 527 CURVE SMOOTH",
"595 634 OFFCURVE",
"507 714 OFFCURVE",
"358 714 CURVE SMOOTH",
"183 714 OFFCURVE",
"87 620 OFFCURVE",
"87 494 CURVE SMOOTH",
"87 371 OFFCURVE",
"180 318 OFFCURVE",
"273 304 CURVE SMOOTH",
"371 289 OFFCURVE",
"410 263 OFFCURVE",
"410 213 CURVE SMOOTH",
"410 149 OFFCURVE",
"357 110 OFFCURVE",
"270 110 CURVE SMOOTH",
"189 110 OFFCURVE",
"148 149 OFFCURVE",
"148 212 CURVE SMOOTH",
"148 228 OFFCURVE",
"149 241 OFFCURVE",
"152 255 CURVE SMOOTH",
"156 272 LINE",
"24 272 LINE",
"19 249 LINE SMOOTH",
"15 231 OFFCURVE",
"14 213 OFFCURVE",
"14 196 CURVE SMOOTH",
"14 80 OFFCURVE",
"93 -14 OFFCURVE",
"262 -14 CURVE SMOOTH",
"438 -14 OFFCURVE",
"550 80 OFFCURVE",
"550 231 CURVE SMOOTH",
"550 345 OFFCURVE",
"474 400 OFFCURVE",
"350 420 CURVE SMOOTH",
"262 434 OFFCURVE",
"225 459 OFFCURVE",
"225 506 CURVE SMOOTH",
"225 563 OFFCURVE",
"284 590 OFFCURVE",
"346 590 CURVE SMOOTH",
"423 590 OFFCURVE",
"460 554 OFFCURVE",
"460 502 CURVE SMOOTH",
"460 493 OFFCURVE",
"459 485 OFFCURVE",
"457 475 CURVE SMOOTH"
);
}
);
width = 612;
}
);
unicode = 0053;
},
{
glyphname = T;
lastChange = "2025-01-15 13:07:57 +0000";
layers = (
{
layerId = "CCBD71C2-CFAF-4DB2-A010-494EF6BDA443";
paths = (
{
closed = 1;
nodes = (
"103 622 LINE",
"319 622 LINE",
"187 0 LINE",
"271 0 LINE",
"403 622 LINE",
"606 622 LINE",
"606 700 LINE",
"103 700 LINE"
);
}
);
width = 612;
},
{
layerId = "8275915C-4C26-4DD7-A30E-5590CD7E6050";
paths = (
{
closed = 1;
nodes = (
"100 574 LINE",
"286 574 LINE",
"164 0 LINE",
"296 0 LINE",
"418 574 LINE",
"604 574 LINE",
"604 700 LINE",
"100 700 LINE"
);
}
);
width = 612;
}
);
unicode = 0054;
},
{
glyphname = U;
lastChange = "2025-01-15 13:07:57 +0000";
layers = (
{
layerId = "CCBD71C2-CFAF-4DB2-A010-494EF6BDA443";
paths = (
{
closed = 1;
nodes = (
"142 700 LINE",
"45 242 LINE SMOOTH",
"39 216 OFFCURVE",
"37 192 OFFCURVE",
"37 170 CURVE SMOOTH",
"37 51 OFFCURVE",
"117 -14 OFFCURVE",
"232 -14 CURVE SMOOTH",
"395 -14 OFFCURVE",
"483 70 OFFCURVE",
"518 236 CURVE SMOOTH",
"616 700 LINE",
"532 700 LINE",
"434 236 LINE SMOOTH",
"410 122 OFFCURVE",
"343 62 OFFCURVE",
"244 62 CURVE SMOOTH",
"163 62 OFFCURVE",
"121 102 OFFCURVE",
"121 178 CURVE SMOOTH",
"121 195 OFFCURVE",
"124 215 OFFCURVE",
"128 236 CURVE SMOOTH",
"226 700 LINE"
);
}
);
width = 612;
},
{
layerId = "8275915C-4C26-4DD7-A30E-5590CD7E6050";
paths = (
{
closed = 1;
nodes = (
"494 700 LINE",
"397 242 LINE SMOOTH",
"378 152 OFFCURVE",
"338 110 OFFCURVE",
"258 110 CURVE SMOOTH",
"196 110 OFFCURVE",
"164 144 OFFCURVE",
"164 201 CURVE SMOOTH",
"164 214 OFFCURVE",
"166 227 OFFCURVE",
"169 242 CURVE SMOOTH",
"266 700 LINE",
"134 700 LINE",
"40 254 LINE SMOOTH",
"34 227 OFFCURVE",
"33 208 OFFCURVE",
"33 187 CURVE SMOOTH",
"33 59 OFFCURVE",
"123 -14 OFFCURVE",
"244 -14 CURVE SMOOTH",
"406 -14 OFFCURVE",
"491 62 OFFCURVE",
"529 242 CURVE SMOOTH",
"626 700 LINE"
);
}
);
width = 612;
}
);
unicode = 0055;
},
{
glyphname = V;
lastChange = "2025-01-15 13:07:57 +0000";
layers = (
{
layerId = "CCBD71C2-CFAF-4DB2-A010-494EF6BDA443";
paths = (
{
closed = 1;
nodes = (
"139 0 LINE",
"300 0 LINE",
"635 700 LINE",
"540 700 LINE",
"228 36 LINE",
"216 36 LINE",
"186 700 LINE",
"102 700 LINE"
);
}
);
width = 612;
},
{
layerId = "8275915C-4C26-4DD7-A30E-5590CD7E6050";
paths = (
{
closed = 1;
nodes = (
"94 0 LINE",
"340 0 LINE",
"642 688 LINE",
"642 700 LINE",
"504 700 LINE",
"235 66 LINE",
"217 66 LINE",
"194 700 LINE",
"60 700 LINE"
);
}
);
width = 612;
}
);
unicode = 0056;
},
{
glyphname = W;
lastChange = "2025-01-15 13:07:57 +0000";
layers = (
{
layerId = "CCBD71C2-CFAF-4DB2-A010-494EF6BDA443";
paths = (
{
closed = 1;
nodes = (
"664 700 LINE",
"586 700 LINE",
"384 36 LINE",
"372 36 LINE",
"456 700 LINE",
"300 700 LINE",
"104 36 LINE",
"92 36 LINE",
"171 700 LINE",
"95 700 LINE",
"12 0 LINE",
"166 0 LINE",
"365 664 LINE",
"377 664 LINE",
"296 0 LINE",
"450 0 LINE"
);
}
);
width = 612;
},
{
layerId = "8275915C-4C26-4DD7-A30E-5590CD7E6050";
paths = (
{
closed = 1;
nodes = (
"678 700 LINE",
"558 700 LINE",
"440 192 LINE",
"417 78 LINE",
"393 78 LINE",
"414 180 LINE",
"482 700 LINE",
"272 700 LINE",
"136 180 LINE",
"115 78 LINE",
"91 78 LINE",
"114 192 LINE",
"195 700 LINE",
"75 700 LINE",
"-20 0 LINE",
"196 0 LINE",
"331 520 LINE",
"351 628 LINE",
"375 628 LINE",
"353 508 LINE",
"286 0 LINE",
"505 0 LINE"
);
}
);
width = 612;
}
);
unicode = 0057;
},
{
glyphname = X;
lastChange = "2025-01-15 13:07:57 +0000";
layers = (
{
layerId = "CCBD71C2-CFAF-4DB2-A010-494EF6BDA443";
paths = (
{
closed = 1;
nodes = (
"125 700 LINE",
"227 362 LINE",
"227 350 LINE",
"-19 6 LINE",
"-19 0 LINE",
"75 0 LINE",
"294 312 LINE",
"312 312 LINE",
"403 0 LINE",
"489 0 LINE",
"387 338 LINE",
"387 350 LINE",
"634 694 LINE",
"634 700 LINE",
"539 700 LINE",
"320 390 LINE",
"302 390 LINE",
"211 700 LINE"
);
}
);
width = 612;
},
{
layerId = "8275915C-4C26-4DD7-A30E-5590CD7E6050";
paths = (
{
closed = 1;
nodes = (
"652 700 LINE",
"504 700 LINE",
"330 414 LINE",
"312 414 LINE",
"236 700 LINE",
"98 700 LINE",
"190 366 LINE",
"190 348 LINE",
"-25 12 LINE",
"-25 0 LINE",
"122 0 LINE",
"296 288 LINE",
"314 288 LINE",
"386 0 LINE",
"526 0 LINE",
"436 336 LINE",
"436 354 LINE",
"652 687 LINE"
);
}
);
width = 612;
}
);
unicode = 0058;
},
{
glyphname = Y;
lastChange = "2025-01-15 13:07:57 +0000";
layers = (
{
layerId = "CCBD71C2-CFAF-4DB2-A010-494EF6BDA443";
paths = (
{
closed = 1;
nodes = (
"184 0 LINE",
"268 0 LINE",
"320 246 LINE",
"338 246 LINE",
"650 694 LINE",
"650 700 LINE",
"553 700 LINE",
"293 318 LINE",
"281 318 LINE",
"183 700 LINE",
"96 700 LINE",
"218 246 LINE",
"236 246 LINE"
);
}
);
width = 612;
},
{
layerId = "8275915C-4C26-4DD7-A30E-5590CD7E6050";
paths = (
{
closed = 1;
nodes = (
"664 700 LINE",
"520 700 LINE",
"306 366 LINE",
"288 366 LINE",
"212 700 LINE",
"72 700 LINE",
"182 246 LINE",
"212 246 LINE",
"160 0 LINE",
"292 0 LINE",
"344 246 LINE",
"374 246 LINE",
"664 688 LINE"
);
}
);
width = 612;
}
);
unicode = 0059;
},
{
glyphname = Z;
lastChange = "2025-01-15 13:07:57 +0000";
layers = (
{
layerId = "CCBD71C2-CFAF-4DB2-A010-494EF6BDA443";
paths = (
{
closed = 1;
nodes = (
"134 622 LINE",
"520 622 LINE",
"520 610 LINE",
"5 126 LINE",
"5 0 LINE",
"499 0 LINE",
"499 78 LINE",
"77 78 LINE",
"77 90 LINE",
"592 574 LINE",
"592 700 LINE",
"134 700 LINE"
);
}
);
width = 612;
},
{
layerId = "8275915C-4C26-4DD7-A30E-5590CD7E6050";
paths = (
{
closed = 1;
nodes = (
"126 574 LINE",
"492 574 LINE",
"492 556 LINE",
"12 216 LINE",
"12 0 LINE",
"505 0 LINE",
"505 126 LINE",
"121 126 LINE",
"121 144 LINE",
"600 484 LINE",
"600 700 LINE",
"126 700 LINE"
);
}
);
width = 612;
}
);
unicode = 005A;
},
{
glyphname = a;
lastChange = "2025-01-15 13:07:57 +0000";
layers = (
{
layerId = "CCBD71C2-CFAF-4DB2-A010-494EF6BDA443";
paths = (
{
closed = 1;
nodes = (
"359 78 LINE",
"358 71 OFFCURVE",
"357 64 OFFCURVE",
"357 58 CURVE SMOOTH",
"357 6 OFFCURVE",
"398 -14 OFFCURVE",
"437 -14 CURVE SMOOTH",
"460 -14 OFFCURVE",
"483 -7 OFFCURVE",
"498 4 CURVE SMOOTH",
"543 38 LINE",
"501 97 LINE",
"465 71 LINE SMOOTH",
"461 68 OFFCURVE",
"455 66 OFFCURVE",
"451 66 CURVE SMOOTH",
"442 66 OFFCURVE",
"435 72 OFFCURVE",
"438 84 CURVE SMOOTH",
"526 496 LINE",
"448 496 LINE",
"432 418 LINE",
"420 418 LINE",
"406 478 OFFCURVE",
"354 510 OFFCURVE",
"286 510 CURVE SMOOTH",
"108 510 OFFCURVE",
"12 352 OFFCURVE",
"12 184 CURVE SMOOTH",
"12 66 OFFCURVE",
"77 -14 OFFCURVE",
"184 -14 CURVE SMOOTH",
"246 -14 OFFCURVE",
"306 8 OFFCURVE",
"347 78 CURVE"
);
},
{
closed = 1;
nodes = (
"134 60 OFFCURVE",
"94 106 OFFCURVE",
"94 194 CURVE SMOOTH",
"94 320 OFFCURVE",
"163 436 OFFCURVE",
"287 436 CURVE SMOOTH",
"365 436 OFFCURVE",
"402 381 OFFCURVE",
"402 299 CURVE SMOOTH",
"402 164 OFFCURVE",
"316 60 OFFCURVE",
"208 60 CURVE SMOOTH"
);
}
);
width = 612;
},
{
layerId = "8275915C-4C26-4DD7-A30E-5590CD7E6050";
paths = (
{
closed = 1;
nodes = (
"559 496 LINE",
"433 496 LINE",
"419 430 LINE",
"401 430 LINE",
"386 478 OFFCURVE",
"344 510 OFFCURVE",
"271 510 CURVE SMOOTH",
"105 510 OFFCURVE",
"6 368 OFFCURVE",
"6 190 CURVE SMOOTH",
"6 74 OFFCURVE",
"85 -14 OFFCURVE",
"188 -14 CURVE SMOOTH",
"274 -14 OFFCURVE",
"311 22 OFFCURVE",
"335 66 CURVE",
"353 66 LINE",
"364 16 OFFCURVE",
"408 -14 OFFCURVE",
"459 -14 CURVE SMOOTH",
"489 -14 OFFCURVE",
"514 -6 OFFCURVE",
"541 12 CURVE SMOOTH",
"600 52 LINE",
"537 146 LINE",
"489 112 LINE",
"479 119 LINE"
);
},
{
closed = 1;
nodes = (
"169 106 OFFCURVE",
"137 156 OFFCURVE",
"137 212 CURVE SMOOTH",
"137 308 OFFCURVE",
"191 390 OFFCURVE",
"287 390 CURVE SMOOTH",
"347 390 OFFCURVE",
"386 346 OFFCURVE",
"386 284 CURVE SMOOTH",
"386 188 OFFCURVE",
"333 106 OFFCURVE",
"237 106 CURVE SMOOTH"
);
}
);
width = 612;
}
);
unicode = 0061;
},
{
glyphname = b;
lastChange = "2025-01-15 13:07:57 +0000";
layers = (
{
layerId = "CCBD71C2-CFAF-4DB2-A010-494EF6BDA443";
paths = (
{
closed = 1;
nodes = (
"187 714 LINE",
"36 0 LINE",
"113 0 LINE",
"129 76 LINE",
"141 76 LINE",
"162 16 OFFCURVE",
"226 -14 OFFCURVE",
"288 -14 CURVE SMOOTH",
"446 -14 OFFCURVE",
"570 114 OFFCURVE",
"570 318 CURVE SMOOTH",
"570 434 OFFCURVE",
"492 510 OFFCURVE",
"388 510 CURVE SMOOTH",
"310 510 OFFCURVE",
"250 472 OFFCURVE",
"213 418 CURVE",
"201 418 LINE",
"264 714 LINE"
);
},
{
closed = 1;
nodes = (
"208 60 OFFCURVE",
"161 110 OFFCURVE",
"161 198 CURVE SMOOTH",
"161 326 OFFCURVE",
"247 436 OFFCURVE",
"363 436 CURVE SMOOTH",
"443 436 OFFCURVE",
"488 384 OFFCURVE",
"488 303 CURVE SMOOTH",
"488 158 OFFCURVE",
"396 60 OFFCURVE",
"286 60 CURVE SMOOTH"
);
}
);
width = 612;
},
{
layerId = "8275915C-4C26-4DD7-A30E-5590CD7E6050";
paths = (
{
closed = 1;
nodes = (
"170 714 LINE",
"20 0 LINE",
"145 0 LINE",
"160 72 LINE",
"178 72 LINE",
"187 26 OFFCURVE",
"216 -14 OFFCURVE",
"304 -14 CURVE SMOOTH",
"454 -14 OFFCURVE",
"577 114 OFFCURVE",
"577 320 CURVE SMOOTH",
"577 434 OFFCURVE",
"512 510 OFFCURVE",
"410 510 CURVE SMOOTH",
"340 510 OFFCURVE",
"287 480 OFFCURVE",
"253 424 CURVE",
"235 424 LINE",
"297 714 LINE"
);
},
{
closed = 1;
nodes = (
"228 106 OFFCURVE",
"193 144 OFFCURVE",
"193 208 CURVE SMOOTH",
"193 310 OFFCURVE",
"252 390 OFFCURVE",
"344 390 CURVE SMOOTH",
"406 390 OFFCURVE",
"446 350 OFFCURVE",
"446 288 CURVE SMOOTH",
"446 190 OFFCURVE",
"384 108 OFFCURVE",
"288 106 CURVE"
);
}
);
width = 612;
}
);
unicode = 0062;
},
{
glyphname = c;
lastChange = "2025-01-15 13:07:57 +0000";
layers = (
{
layerId = "CCBD71C2-CFAF-4DB2-A010-494EF6BDA443";
paths = (
{
closed = 1;
nodes = (
"436 194 LINE",
"416 126 OFFCURVE",
"356 60 OFFCURVE",
"250 60 CURVE SMOOTH",
"163 60 OFFCURVE",
"108 106 OFFCURVE",
"108 200 CURVE SMOOTH",
"108 326 OFFCURVE",
"202 436 OFFCURVE",
"326 436 CURVE SMOOTH",
"420 436 OFFCURVE",
"460 385 OFFCURVE",
"460 322 CURVE SMOOTH",
"460 317 OFFCURVE",
"460 314 OFFCURVE",
"459 306 CURVE",
"539 318 LINE",
"540 328 OFFCURVE",
"540 331 OFFCURVE",
"540 333 CURVE",
"540 437 OFFCURVE",
"462 510 OFFCURVE",
"340 510 CURVE SMOOTH",
"150 510 OFFCURVE",
"26 366 OFFCURVE",
"26 192 CURVE SMOOTH",
"26 66 OFFCURVE",
"108 -14 OFFCURVE",
"234 -14 CURVE SMOOTH",
"386 -14 OFFCURVE",
"476 68 OFFCURVE",
"510 170 CURVE"
);
}
);
width = 612;
},
{
layerId = "8275915C-4C26-4DD7-A30E-5590CD7E6050";
paths = (
{
closed = 1;
nodes = (
"417 213 LINE",
"393 146 OFFCURVE",
"349 106 OFFCURVE",
"266 106 CURVE SMOOTH",
"205 106 OFFCURVE",
"160 141 OFFCURVE",
"160 217 CURVE SMOOTH",
"160 312 OFFCURVE",
"231 390 OFFCURVE",
"327 390 CURVE SMOOTH",
"403 390 OFFCURVE",
"435 350 OFFCURVE",
"435 283 CURVE",
"563 308 LINE",
"563 418 OFFCURVE",
"489 510 OFFCURVE",
"345 510 CURVE SMOOTH",
"149 510 OFFCURVE",
"30 374 OFFCURVE",
"30 208 CURVE SMOOTH",
"30 62 OFFCURVE",
"125 -14 OFFCURVE",
"243 -14 CURVE SMOOTH",
"403 -14 OFFCURVE",
"497 64 OFFCURVE",
"534 182 CURVE"
);
}
);
width = 612;
}
);
unicode = 0063;
},
{
glyphname = d;
lastChange = "2025-01-15 13:07:57 +0000";
layers = (
{
layerId = "CCBD71C2-CFAF-4DB2-A010-494EF6BDA443";
paths = (
{
closed = 1;
nodes = (
"363 78 LINE",
"362 72 OFFCURVE",
"361 64 OFFCURVE",
"361 58 CURVE SMOOTH",
"361 6 OFFCURVE",
"402 -14 OFFCURVE",
"441 -14 CURVE SMOOTH",
"466 -14 OFFCURVE",
"487 -7 OFFCURVE",
"502 4 CURVE SMOOTH",
"547 38 LINE",
"504 97 LINE",
"468 71 LINE SMOOTH",
"464 68 OFFCURVE",
"460 66 OFFCURVE",
"455 66 CURVE SMOOTH",
"446 66 OFFCURVE",
"440 73 OFFCURVE",
"442 84 CURVE SMOOTH",
"576 714 LINE",
"498 714 LINE",
"436 418 LINE",
"424 418 LINE",
"407 482 OFFCURVE",
"357 510 OFFCURVE",
"287 510 CURVE SMOOTH",
"107 510 OFFCURVE",
"4 348 OFFCURVE",
"4 182 CURVE SMOOTH",
"4 64 OFFCURVE",
"75 -14 OFFCURVE",
"182 -14 CURVE SMOOTH",
"247 -14 OFFCURVE",
"309 8 OFFCURVE",
"351 78 CURVE"
);
},
{
closed = 1;
nodes = (
"127 60 OFFCURVE",
"86 104 OFFCURVE",
"86 193 CURVE SMOOTH",
"86 319 OFFCURVE",
"161 436 OFFCURVE",
"285 436 CURVE SMOOTH",
"363 436 OFFCURVE",
"406 381 OFFCURVE",
"406 299 CURVE SMOOTH",
"406 164 OFFCURVE",
"314 60 OFFCURVE",
"206 60 CURVE SMOOTH"
);
}
);
width = 612;
},
{
layerId = "8275915C-4C26-4DD7-A30E-5590CD7E6050";
paths = (
{
closed = 1;
nodes = (
"544 424 LINE",
"606 714 LINE",
"479 714 LINE",
"418 424 LINE",
"400 424 LINE",
"387 474 OFFCURVE",
"341 510 OFFCURVE",
"271 510 CURVE SMOOTH",
"105 510 OFFCURVE",
"6 368 OFFCURVE",
"6 190 CURVE SMOOTH",
"6 74 OFFCURVE",
"85 -14 OFFCURVE",
"188 -14 CURVE SMOOTH",
"274 -14 OFFCURVE",
"311 22 OFFCURVE",
"335 66 CURVE",
"353 66 LINE",
"364 16 OFFCURVE",
"408 -14 OFFCURVE",
"459 -14 CURVE SMOOTH",
"486 -14 OFFCURVE",
"513 -7 OFFCURVE",
"541 12 CURVE SMOOTH",
"606 56 LINE",
"543 150 LINE",
"489 112 LINE",
"479 119 LINE"
);
},
{
closed = 1;
nodes = (
"169 106 OFFCURVE",
"137 156 OFFCURVE",
"137 212 CURVE SMOOTH",
"137 308 OFFCURVE",
"191 390 OFFCURVE",
"287 390 CURVE SMOOTH",
"347 390 OFFCURVE",
"386 346 OFFCURVE",
"386 284 CURVE SMOOTH",
"386 188 OFFCURVE",
"333 106 OFFCURVE",
"237 106 CURVE SMOOTH"
);
}
);
width = 612;
}
);
unicode = 0064;
},
{
glyphname = e;
lastChange = "2025-01-15 13:07:57 +0000";
layers = (
{
guideLines = (
{
position = "{0, 176}";
}
);
layerId = "CCBD71C2-CFAF-4DB2-A010-494EF6BDA443";
paths = (
{
closed = 1;
nodes = (
"510 224 LINE",
"521 271 LINE SMOOTH",
"525 288 OFFCURVE",
"527 306 OFFCURVE",
"527 323 CURVE SMOOTH",
"527 419 OFFCURVE",
"465 510 OFFCURVE",
"331 510 CURVE SMOOTH",
"141 510 OFFCURVE",
"32 352 OFFCURVE",
"32 185 CURVE SMOOTH",
"32 60 OFFCURVE",
"117 -14 OFFCURVE",
"236 -14 CURVE SMOOTH",
"367 -14 OFFCURVE",
"437 48 OFFCURVE",
"475 126 CURVE",
"411 162 LINE",
"385 106 OFFCURVE",
"336 59 OFFCURVE",
"242 59 CURVE SMOOTH",
"149 59 OFFCURVE",
"108 112 OFFCURVE",
"108 185 CURVE SMOOTH",
"108 199 OFFCURVE",
"110 213 OFFCURVE",
"112 224 CURVE"
);
},
{
closed = 1;
nodes = (
"394 436 OFFCURVE",
"450 398 OFFCURVE",
"450 326 CURVE SMOOTH",
"450 317 OFFCURVE",
"449 307 OFFCURVE",
"447 296 CURVE",
"129 296 LINE",
"156 376 OFFCURVE",
"228 436 OFFCURVE",
"321 436 CURVE SMOOTH"
);
}
);
width = 612;
},
{
guideLines = (
{
position = "{0, 176}";
}
);
layerId = "8275915C-4C26-4DD7-A30E-5590CD7E6050";
paths = (
{
closed = 1;
nodes = (
"529 207 LINE",
"540 258 LINE SMOOTH",
"545 284 OFFCURVE",
"547 299 OFFCURVE",
"547 315 CURVE SMOOTH",
"547 413 OFFCURVE",
"482 510 OFFCURVE",
"343 510 CURVE SMOOTH",
"147 510 OFFCURVE",
"36 362 OFFCURVE",
"36 180 CURVE SMOOTH",
"36 66 OFFCURVE",
"123 -14 OFFCURVE",
"245 -14 CURVE SMOOTH",
"381 -14 OFFCURVE",
"449 48 OFFCURVE",
"481 100 CURVE",
"381 163 LINE",
"361 133 OFFCURVE",
"325 106 OFFCURVE",
"263 106 CURVE SMOOTH",
"204 106 OFFCURVE",
"163 142 OFFCURVE",
"163 190 CURVE SMOOTH",
"163 196 OFFCURVE",
"164 203 OFFCURVE",
"165 207 CURVE"
);
},
{
closed = 1;
nodes = (
"394 396 OFFCURVE",
"424 366 OFFCURVE",
"424 315 CURVE",
"190 315 LINE",
"212 360 OFFCURVE",
"261 396 OFFCURVE",
"323 396 CURVE SMOOTH"
);
}
);
width = 612;
}
);
unicode = 0065;
},
{
glyphname = f;
lastChange = "2025-01-15 13:07:57 +0000";
layers = (
{
layerId = "CCBD71C2-CFAF-4DB2-A010-494EF6BDA443";
paths = (
{
closed = 1;
nodes = (
"353 496 LINE",
"374 598 LINE SMOOTH",
"378 617 OFFCURVE",
"389 628 OFFCURVE",
"408 628 CURVE SMOOTH",
"574 628 LINE",
"574 700 LINE",
"395 700 LINE SMOOTH",
"350 700 OFFCURVE",
"311 667 OFFCURVE",
"301 622 CURVE SMOOTH",
"275 496 LINE",
"106 496 LINE",
"106 424 LINE",
"259 424 LINE",
"143 -118 LINE SMOOTH",
"141 -126 OFFCURVE",
"136 -133 OFFCURVE",
"126 -133 CURVE SMOOTH",
"117 -133 OFFCURVE",
"112 -128 OFFCURVE",
"108 -121 CURVE SMOOTH",
"66 -54 LINE",
"5 -93 LINE",
"49 -164 LINE SMOOTH",
"67 -193 OFFCURVE",
"91 -212 OFFCURVE",
"134 -212 CURVE SMOOTH",
"171 -212 OFFCURVE",
"206 -189 OFFCURVE",
"217 -138 CURVE SMOOTH",
"337 424 LINE",
"526 424 LINE",
"526 496 LINE"
);
}
);
width = 612;
},
{
guideLines = (
{
position = "{0, -200}";
},
{
position = "{0, -214}";
}
);
layerId = "8275915C-4C26-4DD7-A30E-5590CD7E6050";
paths = (
{
closed = 1;
nodes = (
"139 -74 LINE",
"127 -76 LINE",
"83 0 LINE",
"-14 -59 LINE",
"49 -160 LINE SMOOTH",
"69 -193 OFFCURVE",
"109 -212 OFFCURVE",
"148 -212 CURVE SMOOTH",
"194 -212 OFFCURVE",
"239 -185 OFFCURVE",
"254 -120 CURVE SMOOTH",
"365 376 LINE",
"560 376 LINE",
"560 496 LINE",
"391 496 LINE",
"403 550 LINE SMOOTH",
"407 569 OFFCURVE",
"417 580 OFFCURVE",
"436 580 CURVE SMOOTH",
"586 580 LINE",
"586 700 LINE",
"410 700 LINE SMOOTH",
"353 700 OFFCURVE",
"299 655 OFFCURVE",
"287 598 CURVE SMOOTH",
"265 496 LINE",
"98 496 LINE",
"98 376 LINE",
"239 376 LINE"
);
}
);
width = 612;
}
);
unicode = 0066;
},
{
glyphname = g;
lastChange = "2025-01-15 13:07:57 +0000";
layers = (
{
layerId = "CCBD71C2-CFAF-4DB2-A010-494EF6BDA443";
paths = (
{
closed = 1;
nodes = (
"359 -98 LINE SMOOTH",
"355 -117 OFFCURVE",
"344 -128 OFFCURVE",
"325 -128 CURVE SMOOTH",
"36 -128 LINE",
"36 -200 LINE",
"338 -200 LINE SMOOTH",
"383 -200 OFFCURVE",
"422 -167 OFFCURVE",
"432 -122 CURVE SMOOTH",
"563 496 LINE",
"485 496 LINE",
"468 418 LINE",
"456 418 LINE",
"440 472 OFFCURVE",
"386 510 OFFCURVE",
"308 510 CURVE SMOOTH",
"140 510 OFFCURVE",
"24 370 OFFCURVE",
"24 186 CURVE SMOOTH",
"24 66 OFFCURVE",
"100 -14 OFFCURVE",
"215 -14 CURVE SMOOTH",
"284 -14 OFFCURVE",
"344 14 OFFCURVE",
"383 70 CURVE",
"395 70 LINE"
);
},
{
closed = 1;
nodes = (
"150 60 OFFCURVE",
"105 112 OFFCURVE",
"105 194 CURVE SMOOTH",
"105 320 OFFCURVE",
"184 436 OFFCURVE",
"310 436 CURVE SMOOTH",
"388 436 OFFCURVE",
"439 380 OFFCURVE",
"439 298 CURVE SMOOTH",
"439 180 OFFCURVE",
"354 60 OFFCURVE",
"232 60 CURVE SMOOTH"
);
}
);
width = 612;
},
{
layerId = "8275915C-4C26-4DD7-A30E-5590CD7E6050";
paths = (
{
closed = 1;
nodes = (
"358 -50 LINE SMOOTH",
"354 -69 OFFCURVE",
"344 -80 OFFCURVE",
"325 -80 CURVE SMOOTH",
"67 -80 LINE",
"67 -200 LINE",
"375 -200 LINE SMOOTH",
"420 -200 OFFCURVE",
"459 -167 OFFCURVE",
"469 -122 CURVE SMOOTH",
"600 496 LINE",
"474 496 LINE",
"459 424 LINE",
"441 424 LINE",
"430 476 OFFCURVE",
"390 510 OFFCURVE",
"309 510 CURVE SMOOTH",
"120 510 OFFCURVE",
"22 346 OFFCURVE",
"22 180 CURVE SMOOTH",
"22 50 OFFCURVE",
"98 -14 OFFCURVE",
"194 -14 CURVE SMOOTH",
"294 -14 OFFCURVE",
"338 28 OFFCURVE",
"366 72 CURVE",
"384 72 LINE"
);
},
{
closed = 1;
nodes = (
"195 106 OFFCURVE",
"152 142 OFFCURVE",
"152 212 CURVE SMOOTH",
"152 304 OFFCURVE",
"218 390 OFFCURVE",
"319 390 CURVE SMOOTH",
"386 390 OFFCURVE",
"426 352 OFFCURVE",
"426 288 CURVE SMOOTH",
"426 192 OFFCURVE",
"355 106 OFFCURVE",
"259 106 CURVE SMOOTH"
);
}
);
width = 612;
}
);
unicode = 0067;
},
{
glyphname = h;
lastChange = "2025-01-15 13:07:57 +0000";
layers = (
{
layerId = "CCBD71C2-CFAF-4DB2-A010-494EF6BDA443";
paths = (
{
closed = 1;
nodes = (
"382 86 LINE SMOOTH",
"380 76 OFFCURVE",
"379 68 OFFCURVE",
"379 60 CURVE SMOOTH",
"379 9 OFFCURVE",
"416 -14 OFFCURVE",
"457 -14 CURVE SMOOTH",
"478 -14 OFFCURVE",
"501 -7 OFFCURVE",
"518 5 CURVE SMOOTH",
"564 38 LINE",
"522 97 LINE",
"483 69 LINE SMOOTH",
"478 65 OFFCURVE",
"474 64 OFFCURVE",
"471 64 CURVE SMOOTH",
"461 64 OFFCURVE",
"456 70 OFFCURVE",
"458 79 CURVE SMOOTH",
"502 288 LINE SMOOTH",
"507 311 OFFCURVE",
"509 332 OFFCURVE",
"509 352 CURVE SMOOTH",
"509 452 OFFCURVE",
"444 510 OFFCURVE",
"356 510 CURVE SMOOTH",
"290 510 OFFCURVE",
"234 484 OFFCURVE",
"201 422 CURVE",
"189 422 LINE",
"249 714 LINE",
"174 714 LINE",
"22 0 LINE",
"99 0 LINE",
"154 258 LINE SMOOTH",
"177 366 OFFCURVE",
"238 436 OFFCURVE",
"328 436 CURVE SMOOTH",
"388 436 OFFCURVE",
"434 409 OFFCURVE",
"434 340 CURVE SMOOTH",
"434 326 OFFCURVE",
"432 313 OFFCURVE",
"428 294 CURVE SMOOTH"
);
}
);
width = 612;
},
{
layerId = "8275915C-4C26-4DD7-A30E-5590CD7E6050";
paths = (
{
closed = 1;
nodes = (
"350 126 LINE SMOOTH",
"347 112 OFFCURVE",
"346 104 OFFCURVE",
"346 94 CURVE SMOOTH",
"346 27 OFFCURVE",
"397 -14 OFFCURVE",
"456 -14 CURVE SMOOTH",
"483 -14 OFFCURVE",
"511 -6 OFFCURVE",
"537 12 CURVE SMOOTH",
"612 62 LINE",
"549 156 LINE",
"485 112 LINE",
"475 119 LINE",
"515 306 LINE SMOOTH",
"519 327 OFFCURVE",
"522 347 OFFCURVE",
"522 365 CURVE SMOOTH",
"522 459 OFFCURVE",
"463 510 OFFCURVE",
"381 510 CURVE SMOOTH",
"319 510 OFFCURVE",
"270 484 OFFCURVE",
"235 428 CURVE",
"217 428 LINE",
"278 714 LINE",
"152 714 LINE",
"0 0 LINE",
"126 0 LINE",
"182 264 LINE SMOOTH",
"199 344 OFFCURVE",
"243 396 OFFCURVE",
"311 396 CURVE SMOOTH",
"359 396 OFFCURVE",
"389 368 OFFCURVE",
"389 320 CURVE SMOOTH",
"389 310 OFFCURVE",
"388 303 OFFCURVE",
"385 288 CURVE SMOOTH"
);
}
);
width = 612;
}
);
unicode = 0068;
},
{
glyphname = i;
lastChange = "2025-01-15 13:07:57 +0000";
layers = (
{
guideLines = (
{
position = "{0, 510}";
},
{
position = "{0, 434}";
}
);
layerId = "CCBD71C2-CFAF-4DB2-A010-494EF6BDA443";
paths = (
{
closed = 1;
nodes = (
"303 606 OFFCURVE",
"335 574 OFFCURVE",
"373 574 CURVE SMOOTH",
"411 574 OFFCURVE",
"443 606 OFFCURVE",
"443 644 CURVE SMOOTH",
"443 682 OFFCURVE",
"411 714 OFFCURVE",
"373 714 CURVE SMOOTH",
"335 714 OFFCURVE",
"303 682 OFFCURVE",
"303 644 CURVE SMOOTH"
);
},
{
closed = 1;
nodes = (
"213 100 LINE SMOOTH",
"210 88 OFFCURVE",
"209 78 OFFCURVE",
"209 68 CURVE SMOOTH",
"209 13 OFFCURVE",
"248 -14 OFFCURVE",
"293 -14 CURVE SMOOTH",
"315 -14 OFFCURVE",
"339 -7 OFFCURVE",
"360 7 CURVE SMOOTH",
"475 85 LINE",
"435 144 LINE",
"320 66 LINE SMOOTH",
"315 63 OFFCURVE",
"310 61 OFFCURVE",
"305 61 CURVE SMOOTH",
"293 61 OFFCURVE",
"284 71 OFFCURVE",
"288 87 CURVE SMOOTH",
"362 396 LINE SMOOTH",
"365 408 OFFCURVE",
"366 418 OFFCURVE",
"366 428 CURVE SMOOTH",
"366 483 OFFCURVE",
"327 510 OFFCURVE",
"282 510 CURVE SMOOTH",
"259 510 OFFCURVE",
"236 503 OFFCURVE",
"215 489 CURVE SMOOTH",
"97 409 LINE",
"137 350 LINE",
"254 430 LINE SMOOTH",
"259 433 OFFCURVE",
"264 434 OFFCURVE",
"269 434 CURVE SMOOTH",
"284 434 OFFCURVE",
"290 422 OFFCURVE",
"287 409 CURVE SMOOTH"
);
}
);
width = 612;
},
{
guideLines = (
{
position = "{0, 510}";
},
{
position = "{0, 434}";
}
);
layerId = "8275915C-4C26-4DD7-A30E-5590CD7E6050";
paths = (
{
closed = 1;
nodes = (
"525 110 LINE",
"462 204 LINE",
"328 112 LINE",
"318 119 LINE",
"378 370 LINE SMOOTH",
"381 382 OFFCURVE",
"382 394 OFFCURVE",
"382 405 CURVE SMOOTH",
"382 470 OFFCURVE",
"332 510 OFFCURVE",
"273 510 CURVE SMOOTH",
"246 510 OFFCURVE",
"217 502 OFFCURVE",
"191 484 CURVE SMOOTH",
"46 386 LINE",
"109 292 LINE",
"243 384 LINE",
"253 377 LINE",
"193 126 LINE SMOOTH",
"190 114 OFFCURVE",
"189 102 OFFCURVE",
"189 91 CURVE SMOOTH",
"189 26 OFFCURVE",
"239 -14 OFFCURVE",
"298 -14 CURVE SMOOTH",
"325 -14 OFFCURVE",
"354 -6 OFFCURVE",
"380 12 CURVE"
);
},
{
closed = 1;
nodes = (
"467 696 OFFCURVE",
"424 738 OFFCURVE",
"372 738 CURVE SMOOTH",
"320 738 OFFCURVE",
"277 696 OFFCURVE",
"277 643 CURVE SMOOTH",
"277 590 OFFCURVE",
"320 548 OFFCURVE",
"372 548 CURVE SMOOTH",
"424 548 OFFCURVE",
"467 590 OFFCURVE",
"467 643 CURVE SMOOTH"
);
}
);
width = 612;
}
);
unicode = 0069;
},
{
glyphname = j;
lastChange = "2025-01-15 13:07:57 +0000";
layers = (
{
guideLines = (
{
position = "{0, 510}";
}
);
layerId = "CCBD71C2-CFAF-4DB2-A010-494EF6BDA443";
paths = (
{
closed = 1;
nodes = (
"361 606 OFFCURVE",
"393 574 OFFCURVE",
"431 574 CURVE SMOOTH",
"469 574 OFFCURVE",
"501 606 OFFCURVE",
"501 644 CURVE SMOOTH",
"501 682 OFFCURVE",
"469 714 OFFCURVE",
"431 714 CURVE SMOOTH",
"393 714 OFFCURVE",
"361 682 OFFCURVE",
"361 644 CURVE SMOOTH"
);
},
{
closed = 1;
nodes = (
"427 401 LINE",
"429 411 OFFCURVE",
"430 419 OFFCURVE",
"430 427 CURVE SMOOTH",
"430 478 OFFCURVE",
"393 510 OFFCURVE",
"349 510 CURVE SMOOTH",
"329 510 OFFCURVE",
"307 503 OFFCURVE",
"286 489 CURVE SMOOTH",
"168 409 LINE",
"208 350 LINE",
"325 430 LINE SMOOTH",
"328 432 OFFCURVE",
"332 434 OFFCURVE",
"337 434 CURVE SMOOTH",
"346 434 OFFCURVE",
"355 427 OFFCURVE",
"352 412 CURVE SMOOTH",
"243 -98 LINE SMOOTH",
"239 -117 OFFCURVE",
"229 -128 OFFCURVE",
"210 -128 CURVE SMOOTH",
"0 -128 LINE",
"0 -200 LINE",
"223 -200 LINE SMOOTH",
"268 -200 OFFCURVE",
"307 -167 OFFCURVE",
"316 -122 CURVE SMOOTH"
);
}
);
width = 612;
},
{
guideLines = (
{
position = "{0, 510}";
}
);
layerId = "8275915C-4C26-4DD7-A30E-5590CD7E6050";
paths = (
{
closed = 1;
nodes = (
"549 696 OFFCURVE",
"506 738 OFFCURVE",
"454 738 CURVE SMOOTH",
"402 738 OFFCURVE",
"359 696 OFFCURVE",
"359 643 CURVE SMOOTH",
"359 590 OFFCURVE",
"402 548 OFFCURVE",
"454 548 CURVE SMOOTH",
"506 548 OFFCURVE",
"549 590 OFFCURVE",
"549 643 CURVE SMOOTH"
);
},
{
closed = 1;
nodes = (
"461 370 LINE SMOOTH",
"463 380 OFFCURVE",
"464 392 OFFCURVE",
"464 402 CURVE SMOOTH",
"464 470 OFFCURVE",
"415 510 OFFCURVE",
"356 510 CURVE SMOOTH",
"329 510 OFFCURVE",
"301 502 OFFCURVE",
"274 484 CURVE SMOOTH",
"129 386 LINE",
"192 292 LINE",
"326 384 LINE",
"336 377 LINE",
"242 -47 LINE SMOOTH",
"237 -68 OFFCURVE",
"226 -80 OFFCURVE",
"205 -80 CURVE SMOOTH",
"0 -80 LINE",
"0 -200 LINE",
"235 -200 LINE SMOOTH",
"295 -200 OFFCURVE",
"342 -167 OFFCURVE",
"357 -98 CURVE SMOOTH"
);
}
);
width = 612;
}
);
unicode = 006A;
},
{
glyphname = k;
lastChange = "2025-01-15 13:07:57 +0000";
layers = (
{
layerId = "CCBD71C2-CFAF-4DB2-A010-494EF6BDA443";
paths = (
{
closed = 1;
nodes = (
"201 713 LINE",
"50 0 LINE",
"128 0 LINE",
"174 218 LINE",
"204 218 LINE",
"342 29 LINE SMOOTH",
"364 -1 OFFCURVE",
"390 -14 OFFCURVE",
"416 -14 CURVE SMOOTH",
"438 -14 OFFCURVE",
"459 -5 OFFCURVE",
"477 9 CURVE SMOOTH",
"522 43 LINE",
"480 102 LINE",
"432 67 LINE SMOOTH",
"428 64 OFFCURVE",
"424 62 OFFCURVE",
"419 62 CURVE SMOOTH",
"414 62 OFFCURVE",
"410 64 OFFCURVE",
"406 69 CURVE SMOOTH",
"277 245 LINE",
"277 263 LINE",
"498 457 LINE",
"450 508 LINE",
"202 290 LINE",
"190 290 LINE",
"279 713 LINE"
);
}
);
width = 612;
},
{
layerId = "8275915C-4C26-4DD7-A30E-5590CD7E6050";
paths = (
{
closed = 1;
nodes = (
"150 0 LINE",
"191 194 LINE",
"214 194 LINE",
"304 46 LINE",
"327 7 OFFCURVE",
"363 -14 OFFCURVE",
"405 -14 CURVE SMOOTH",
"434 -14 OFFCURVE",
"466 -5 OFFCURVE",
"499 20 CURVE SMOOTH",
"544 54 LINE",
"483 142 LINE",
"428 104 LINE",
"416 104 LINE",
"336 236 LINE",
"336 254 LINE",
"520 426 LINE",
"442 510 LINE",
"241 314 LINE",
"217 314 LINE",
"302 714 LINE",
"176 714 LINE",
"24 0 LINE"
);
}
);
width = 612;
}
);
unicode = 006B;
},
{
glyphname = l;
lastChange = "2025-01-15 13:07:57 +0000";
layers = (
{
layerId = "CCBD71C2-CFAF-4DB2-A010-494EF6BDA443";
paths = (
{
closed = 1;
nodes = (
"183 100 LINE SMOOTH",
"180 89 OFFCURVE",
"179 78 OFFCURVE",
"179 68 CURVE SMOOTH",
"179 13 OFFCURVE",
"219 -14 OFFCURVE",
"263 -14 CURVE SMOOTH",
"285 -14 OFFCURVE",
"309 -7 OFFCURVE",
"330 7 CURVE SMOOTH",
"445 85 LINE",
"405 144 LINE",
"290 66 LINE SMOOTH",
"285 63 OFFCURVE",
"281 61 OFFCURVE",
"275 61 CURVE SMOOTH",
"263 61 OFFCURVE",
"254 71 OFFCURVE",
"258 87 CURVE SMOOTH",
"379 600 LINE SMOOTH",
"382 611 OFFCURVE",
"383 622 OFFCURVE",
"383 632 CURVE SMOOTH",
"383 687 OFFCURVE",
"343 714 OFFCURVE",
"299 714 CURVE SMOOTH",
"277 714 OFFCURVE",
"253 707 OFFCURVE",
"232 693 CURVE SMOOTH",
"114 613 LINE",
"154 554 LINE",
"271 634 LINE SMOOTH",
"276 637 OFFCURVE",
"281 639 OFFCURVE",
"286 639 CURVE SMOOTH",
"299 639 OFFCURVE",
"308 630 OFFCURVE",
"304 614 CURVE SMOOTH"
);
}
);
width = 612;
},
{
layerId = "8275915C-4C26-4DD7-A30E-5590CD7E6050";
paths = (
{
closed = 1;
nodes = (
"518 110 LINE",
"455 204 LINE",
"321 112 LINE",
"311 119 LINE",
"420 574 LINE SMOOTH",
"423 588 OFFCURVE",
"424 598 OFFCURVE",
"424 609 CURVE SMOOTH",
"424 674 OFFCURVE",
"374 714 OFFCURVE",
"315 714 CURVE SMOOTH",
"288 714 OFFCURVE",
"259 706 OFFCURVE",
"233 688 CURVE SMOOTH",
"88 590 LINE",
"151 496 LINE",
"285 588 LINE",
"295 581 LINE",
"186 126 LINE SMOOTH",
"183 113 OFFCURVE",
"182 102 OFFCURVE",
"182 91 CURVE SMOOTH",
"182 26 OFFCURVE",
"232 -14 OFFCURVE",
"291 -14 CURVE SMOOTH",
"318 -14 OFFCURVE",
"347 -6 OFFCURVE",
"373 12 CURVE"
);
}
);
width = 612;
}
);
unicode = 006C;
},
{
glyphname = m;
lastChange = "2025-01-15 13:07:57 +0000";
layers = (
{
guideLines = (
{
position = "{0, 510}";
}
);
layerId = "CCBD71C2-CFAF-4DB2-A010-494EF6BDA443";
paths = (
{
closed = 1;
nodes = (
"414 78 LINE",
"413 72 OFFCURVE",
"412 65 OFFCURVE",
"412 58 CURVE SMOOTH",
"412 6 OFFCURVE",
"453 -14 OFFCURVE",
"492 -14 CURVE SMOOTH",
"515 -14 OFFCURVE",
"538 -7 OFFCURVE",
"553 4 CURVE SMOOTH",
"598 38 LINE",
"556 97 LINE",
"514 66 LINE SMOOTH",
"510 63 OFFCURVE",
"507 62 OFFCURVE",
"503 62 CURVE SMOOTH",
"495 62 OFFCURVE",
"489 68 OFFCURVE",
"491 78 CURVE SMOOTH",
"555 376 LINE SMOOTH",
"557 387 OFFCURVE",
"559 402 OFFCURVE",
"559 414 CURVE SMOOTH",
"559 471 OFFCURVE",
"527 510 OFFCURVE",
"468 510 CURVE SMOOTH",
"426 510 OFFCURVE",
"397 490 OFFCURVE",
"378 454 CURVE",
"366 454 LINE",
"359 488 OFFCURVE",
"332 510 OFFCURVE",
"291 510 CURVE SMOOTH",
"254 510 OFFCURVE",
"220 492 OFFCURVE",
"206 454 CURVE",
"194 454 LINE",
"203 496 LINE",
"125 496 LINE",
"20 0 LINE",
"97 0 LINE",
"174 360 LINE SMOOTH",
"183 400 OFFCURVE",
"203 436 OFFCURVE",
"245 436 CURVE SMOOTH",
"278 436 OFFCURVE",
"289 417 OFFCURVE",
"289 393 CURVE SMOOTH",
"289 384 OFFCURVE",
"288 377 OFFCURVE",
"287 372 CURVE SMOOTH",
"208 0 LINE",
"286 0 LINE",
"363 360 LINE SMOOTH",
"373 408 OFFCURVE",
"395 436 OFFCURVE",
"433 436 CURVE SMOOTH",
"464 436 OFFCURVE",
"478 416 OFFCURVE",
"478 390 CURVE SMOOTH",
"478 384 OFFCURVE",
"477 378 OFFCURVE",
"476 372 CURVE SMOOTH"
);
}
);
width = 612;
},
{
layerId = "8275915C-4C26-4DD7-A30E-5590CD7E6050";
paths = (
{
closed = 1;
nodes = (
"385 130 LINE SMOOTH",
"382 115 OFFCURVE",
"381 107 OFFCURVE",
"381 96 CURVE SMOOTH",
"381 27 OFFCURVE",
"431 -14 OFFCURVE",
"489 -14 CURVE SMOOTH",
"515 -14 OFFCURVE",
"544 -6 OFFCURVE",
"570 12 CURVE SMOOTH",
"615 42 LINE",
"552 136 LINE",
"518 112 LINE",
"508 119 LINE",
"567 392 LINE SMOOTH",
"569 403 OFFCURVE",
"570 409 OFFCURVE",
"570 418 CURVE SMOOTH",
"570 469 OFFCURVE",
"538 510 OFFCURVE",
"483 510 CURVE SMOOTH",
"435 510 OFFCURVE",
"405 484 OFFCURVE",
"391 448 CURVE",
"373 448 LINE",
"366 482 OFFCURVE",
"345 510 OFFCURVE",
"301 510 CURVE SMOOTH",
"264 510 OFFCURVE",
"231 489 OFFCURVE",
"221 448 CURVE",
"203 448 LINE",
"213 496 LINE",
"87 496 LINE",
"-18 0 LINE",
"107 0 LINE",
"183 354 LINE SMOOTH",
"188 378 OFFCURVE",
"201 390 OFFCURVE",
"219 390 CURVE SMOOTH",
"235 390 OFFCURVE",
"245 380 OFFCURVE",
"245 362 CURVE SMOOTH",
"245 358 OFFCURVE",
"244 353 OFFCURVE",
"243 348 CURVE SMOOTH",
"169 0 LINE",
"295 0 LINE",
"371 354 LINE SMOOTH",
"375 374 OFFCURVE",
"385 390 OFFCURVE",
"406 390 CURVE SMOOTH",
"424 390 OFFCURVE",
"433 380 OFFCURVE",
"433 362 CURVE SMOOTH",
"433 358 OFFCURVE",
"432 352 OFFCURVE",
"431 348 CURVE SMOOTH"
);
}
);
width = 612;
}
);
unicode = 006D;
},
{
glyphname = n;
lastChange = "2025-01-15 13:07:57 +0000";
layers = (
{
guideLines = (
{
position = "{0, 510}";
}
);
layerId = "CCBD71C2-CFAF-4DB2-A010-494EF6BDA443";
paths = (
{
closed = 1;
nodes = (
"368 91 LINE SMOOTH",
"365 77 OFFCURVE",
"364 69 OFFCURVE",
"364 59 CURVE SMOOTH",
"364 4 OFFCURVE",
"404 -14 OFFCURVE",
"443 -14 CURVE SMOOTH",
"467 -14 OFFCURVE",
"489 -7 OFFCURVE",
"510 9 CURVE SMOOTH",
"549 38 LINE",
"507 97 LINE",
"465 66 LINE SMOOTH",
"461 63 OFFCURVE",
"458 62 OFFCURVE",
"454 62 CURVE SMOOTH",
"446 62 OFFCURVE",
"440 68 OFFCURVE",
"442 78 CURVE SMOOTH",
"490 300 LINE SMOOTH",
"494 319 OFFCURVE",
"496 337 OFFCURVE",
"496 353 CURVE SMOOTH",
"496 454 OFFCURVE",
"424 510 OFFCURVE",
"338 510 CURVE SMOOTH",
"278 510 OFFCURVE",
"220 484 OFFCURVE",
"187 424 CURVE",
"175 424 LINE",
"190 496 LINE",
"112 496 LINE",
"6 0 LINE",
"84 0 LINE",
"140 264 LINE SMOOTH",
"161 364 OFFCURVE",
"220 436 OFFCURVE",
"310 436 CURVE SMOOTH",
"377 436 OFFCURVE",
"418 405 OFFCURVE",
"418 341 CURVE SMOOTH",
"418 328 OFFCURVE",
"417 316 OFFCURVE",
"413 298 CURVE SMOOTH"
);
}
);
width = 612;
},
{
layerId = "8275915C-4C26-4DD7-A30E-5590CD7E6050";
paths = (
{
closed = 1;
nodes = (
"343 122 LINE SMOOTH",
"341 111 OFFCURVE",
"340 102 OFFCURVE",
"340 92 CURVE SMOOTH",
"340 26 OFFCURVE",
"391 -14 OFFCURVE",
"450 -14 CURVE SMOOTH",
"477 -14 OFFCURVE",
"505 -6 OFFCURVE",
"531 12 CURVE SMOOTH",
"585 48 LINE",
"522 142 LINE",
"479 112 LINE",
"469 119 LINE",
"509 306 LINE SMOOTH",
"513 327 OFFCURVE",
"516 344 OFFCURVE",
"516 365 CURVE SMOOTH",
"516 457 OFFCURVE",
"461 510 OFFCURVE",
"378 510 CURVE SMOOTH",
"314 510 OFFCURVE",
"259 482 OFFCURVE",
"227 416 CURVE",
"209 416 LINE",
"226 496 LINE",
"105 496 LINE",
"0 0 LINE",
"126 0 LINE",
"185 278 LINE SMOOTH",
"200 350 OFFCURVE",
"245 396 OFFCURVE",
"305 396 CURVE SMOOTH",
"353 396 OFFCURVE",
"383 368 OFFCURVE",
"383 320 CURVE SMOOTH",
"383 310 OFFCURVE",
"382 302 OFFCURVE",
"379 288 CURVE SMOOTH"
);
}
);
width = 612;
}
);
unicode = 006E;
},
{
glyphname = o;
lastChange = "2025-01-15 13:07:57 +0000";
layers = (
{
layerId = "CCBD71C2-CFAF-4DB2-A010-494EF6BDA443";
paths = (
{
closed = 1;
nodes = (
"161 510 OFFCURVE",
"20 380 OFFCURVE",
"20 188 CURVE SMOOTH",
"20 65 OFFCURVE",
"111 -14 OFFCURVE",
"223 -14 CURVE SMOOTH",
"419 -14 OFFCURVE",
"531 142 OFFCURVE",
"531 306 CURVE SMOOTH",
"531 426 OFFCURVE",
"445 510 OFFCURVE",
"329 510 CURVE SMOOTH"
);
},
{
closed = 1;
nodes = (
"152 60 OFFCURVE",
"102 116 OFFCURVE",
"102 196 CURVE SMOOTH",
"102 326 OFFCURVE",
"198 436 OFFCURVE",
"312 436 CURVE SMOOTH",
"399 436 OFFCURVE",
"451 378 OFFCURVE",
"451 300 CURVE SMOOTH",
"451 178 OFFCURVE",
"364 60 OFFCURVE",
"240 60 CURVE SMOOTH"
);
}
);
width = 612;
},
{
layerId = "8275915C-4C26-4DD7-A30E-5590CD7E6050";
paths = (
{
closed = 1;
nodes = (
"558 430 OFFCURVE",
"468 510 OFFCURVE",
"342 510 CURVE SMOOTH",
"168 510 OFFCURVE",
"33 390 OFFCURVE",
"33 184 CURVE SMOOTH",
"33 58 OFFCURVE",
"130 -14 OFFCURVE",
"246 -14 CURVE SMOOTH",
"452 -14 OFFCURVE",
"558 123 OFFCURVE",
"558 310 CURVE SMOOTH"
);
},
{
closed = 1;
nodes = (
"203 104 OFFCURVE",
"162 140 OFFCURVE",
"162 208 CURVE SMOOTH",
"162 303 OFFCURVE",
"230 392 OFFCURVE",
"326 392 CURVE SMOOTH",
"388 392 OFFCURVE",
"429 356 OFFCURVE",
"429 287 CURVE SMOOTH",
"429 189 OFFCURVE",
"362 106 OFFCURVE",
"265 104 CURVE"
);
}
);
width = 612;
}
);
unicode = 006F;
},
{
glyphname = p;
lastChange = "2025-01-15 13:07:57 +0000";
layers = (
{
guideLines = (
{
position = "{0, 510}";
}
);
layerId = "CCBD71C2-CFAF-4DB2-A010-494EF6BDA443";
paths = (
{
closed = 1;
nodes = (
"136 76 LINE",
"148 76 LINE",
"170 24 OFFCURVE",
"228 -14 OFFCURVE",
"302 -14 CURVE SMOOTH",
"488 -14 OFFCURVE",
"581 142 OFFCURVE",
"581 318 CURVE SMOOTH",
"581 428 OFFCURVE",
"504 510 OFFCURVE",
"394 510 CURVE SMOOTH",
"316 510 OFFCURVE",
"260 478 OFFCURVE",
"220 418 CURVE",
"208 418 LINE",
"208 424 LINE SMOOTH",
"208 480 OFFCURVE",
"174 510 OFFCURVE",
"121 510 CURVE SMOOTH",
"100 510 OFFCURVE",
"79 504 OFFCURVE",
"60 491 CURVE SMOOTH",
"13 459 LINE",
"53 400 LINE",
"108 438 LINE SMOOTH",
"111 440 OFFCURVE",
"115 441 OFFCURVE",
"117 441 CURVE",
"127 441 OFFCURVE",
"134 435 OFFCURVE",
"131 421 CURVE SMOOTH",
"0 -200 LINE",
"77 -200 LINE"
);
},
{
closed = 1;
nodes = (
"214 60 OFFCURVE",
"167 110 OFFCURVE",
"167 195 CURVE SMOOTH",
"167 314 OFFCURVE",
"250 436 OFFCURVE",
"372 436 CURVE SMOOTH",
"448 436 OFFCURVE",
"498 390 OFFCURVE",
"498 302 CURVE SMOOTH",
"498 176 OFFCURVE",
"424 60 OFFCURVE",
"292 60 CURVE SMOOTH"
);
}
);
width = 612;
},
{
layerId = "8275915C-4C26-4DD7-A30E-5590CD7E6050";
paths = (
{
closed = 1;
nodes = (
"179 72 LINE",
"197 72 LINE",
"209 30 OFFCURVE",
"253 -14 OFFCURVE",
"337 -14 CURVE SMOOTH",
"519 -14 OFFCURVE",
"593 156 OFFCURVE",
"593 314 CURVE SMOOTH",
"593 440 OFFCURVE",
"515 510 OFFCURVE",
"423 510 CURVE SMOOTH",
"349 510 OFFCURVE",
"295 480 OFFCURVE",
"263 424 CURVE",
"245 424 LINE",
"236 477 OFFCURVE",
"191 510 OFFCURVE",
"138 510 CURVE SMOOTH",
"110 510 OFFCURVE",
"79 500 OFFCURVE",
"51 480 CURVE SMOOTH",
"-3 440 LINE",
"62 350 LINE",
"108 384 LINE",
"118 377 LINE",
"-5 -200 LINE",
"121 -200 LINE"
);
},
{
closed = 1;
nodes = (
"251 106 OFFCURVE",
"212 148 OFFCURVE",
"212 210 CURVE SMOOTH",
"212 314 OFFCURVE",
"269 390 OFFCURVE",
"359 390 CURVE SMOOTH",
"423 390 OFFCURVE",
"461 342 OFFCURVE",
"461 286 CURVE SMOOTH",
"461 182 OFFCURVE",
"413 106 OFFCURVE",
"313 106 CURVE SMOOTH"
);
}
);
width = 612;
}
);
unicode = 0070;
},
{
glyphname = q;
lastChange = "2025-01-15 13:07:57 +0000";
layers = (
{
guideLines = (
{
position = "{0, -200}";
}
);
layerId = "CCBD71C2-CFAF-4DB2-A010-494EF6BDA443";
paths = (
{
closed = 1;
nodes = (
"355 -98 LINE",
"353 -109 OFFCURVE",
"352 -119 OFFCURVE",
"352 -128 CURVE SMOOTH",
"352 -184 OFFCURVE",
"391 -212 OFFCURVE",
"436 -212 CURVE SMOOTH",
"458 -212 OFFCURVE",
"481 -205 OFFCURVE",
"502 -191 CURVE SMOOTH",
"554 -156 LINE",
"514 -97 LINE",
"462 -132 LINE SMOOTH",
"457 -135 OFFCURVE",
"452 -137 OFFCURVE",
"447 -137 CURVE SMOOTH",
"435 -137 OFFCURVE",
"426 -127 OFFCURVE",
"430 -111 CURVE SMOOTH",
"559 496 LINE",
"481 496 LINE",
"464 418 LINE",
"452 418 LINE",
"436 472 OFFCURVE",
"382 510 OFFCURVE",
"304 510 CURVE SMOOTH",
"136 510 OFFCURVE",
"20 370 OFFCURVE",
"20 186 CURVE SMOOTH",
"20 66 OFFCURVE",
"96 -14 OFFCURVE",
"211 -14 CURVE SMOOTH",
"280 -14 OFFCURVE",
"340 14 OFFCURVE",
"379 70 CURVE",
"391 70 LINE"
);
},
{
closed = 1;
nodes = (
"146 60 OFFCURVE",
"101 112 OFFCURVE",
"101 194 CURVE SMOOTH",
"101 320 OFFCURVE",
"180 436 OFFCURVE",
"306 436 CURVE SMOOTH",
"384 436 OFFCURVE",
"435 380 OFFCURVE",
"435 298 CURVE SMOOTH",
"435 180 OFFCURVE",
"350 60 OFFCURVE",
"228 60 CURVE SMOOTH"
);
}
);
width = 612;
},
{
guideLines = (
{
position = "{0, -200}";
}
);
layerId = "8275915C-4C26-4DD7-A30E-5590CD7E6050";
paths = (
{
closed = 1;
nodes = (
"191 106 OFFCURVE",
"152 141 OFFCURVE",
"152 206 CURVE SMOOTH",
"152 302 OFFCURVE",
"219 390 OFFCURVE",
"316 390 CURVE SMOOTH",
"381 390 OFFCURVE",
"420 353 OFFCURVE",
"420 289 CURVE SMOOTH",
"420 194 OFFCURVE",
"352 106 OFFCURVE",
"256 106 CURVE SMOOTH"
);
},
{
closed = 1;
nodes = (
"346 -72 LINE SMOOTH",
"343 -86 OFFCURVE",
"342 -95 OFFCURVE",
"342 -105 CURVE SMOOTH",
"342 -171 OFFCURVE",
"391 -212 OFFCURVE",
"450 -212 CURVE SMOOTH",
"477 -212 OFFCURVE",
"506 -204 OFFCURVE",
"533 -186 CURVE SMOOTH",
"600 -142 LINE",
"537 -48 LINE",
"481 -86 LINE",
"471 -79 LINE",
"594 496 LINE",
"468 496 LINE",
"453 424 LINE",
"435 424 LINE",
"420 472 OFFCURVE",
"384 510 OFFCURVE",
"302 510 CURVE SMOOTH",
"124 510 OFFCURVE",
"22 348 OFFCURVE",
"22 170 CURVE SMOOTH",
"22 58 OFFCURVE",
"100 -14 OFFCURVE",
"192 -14 CURVE SMOOTH",
"288 -14 OFFCURVE",
"332 28 OFFCURVE",
"360 72 CURVE",
"378 72 LINE"
);
}
);
width = 612;
}
);
unicode = 0071;
},
{
glyphname = r;
lastChange = "2025-01-15 13:07:57 +0000";
layers = (
{
guideLines = (
{
position = "{0, 510}";
},
{
position = "{0, 435}";
}
);
layerId = "CCBD71C2-CFAF-4DB2-A010-494EF6BDA443";
paths = (
{
closed = 1;
nodes = (
"122 72 LINE",
"0 72 LINE",
"0 0 LINE",
"318 0 LINE",
"318 72 LINE",
"200 72 LINE",
"247 294 LINE SMOOTH",
"263 370 OFFCURVE",
"313 436 OFFCURVE",
"393 436 CURVE SMOOTH",
"448 436 OFFCURVE",
"488 406 OFFCURVE",
"488 342 CURVE SMOOTH",
"488 329 OFFCURVE",
"486 315 OFFCURVE",
"483 300 CURVE",
"568 306 LINE",
"572 324 OFFCURVE",
"574 342 OFFCURVE",
"574 359 CURVE SMOOTH",
"574 449 OFFCURVE",
"515 510 OFFCURVE",
"420 510 CURVE SMOOTH",
"368 510 OFFCURVE",
"318 490 OFFCURVE",
"280 436 CURVE",
"268 436 LINE",
"264 488 OFFCURVE",
"229 510 OFFCURVE",
"188 510 CURVE SMOOTH",
"166 510 OFFCURVE",
"141 502 OFFCURVE",
"119 487 CURVE SMOOTH",
"30 427 LINE",
"70 368 LINE",
"161 430 LINE SMOOTH",
"167 434 OFFCURVE",
"172 435 OFFCURVE",
"176 435 CURVE SMOOTH",
"188 435 OFFCURVE",
"198 426 OFFCURVE",
"194 410 CURVE"
);
}
);
width = 612;
},
{
layerId = "8275915C-4C26-4DD7-A30E-5590CD7E6050";
paths = (
{
closed = 1;
nodes = (
"124 120 LINE",
"28 120 LINE",
"28 0 LINE",
"370 0 LINE",
"370 120 LINE",
"250 120 LINE",
"286 288 LINE SMOOTH",
"300 354 OFFCURVE",
"331 392 OFFCURVE",
"384 392 CURVE SMOOTH",
"426 392 OFFCURVE",
"448 368 OFFCURVE",
"448 329 CURVE SMOOTH",
"448 321 OFFCURVE",
"447 312 OFFCURVE",
"445 302 CURVE SMOOTH",
"442 288 LINE",
"576 298 LINE",
"581 320 LINE SMOOTH",
"586 344 OFFCURVE",
"588 359 OFFCURVE",
"588 376 CURVE SMOOTH",
"588 460 OFFCURVE",
"536 510 OFFCURVE",
"460 510 CURVE SMOOTH",
"401 510 OFFCURVE",
"350 482 OFFCURVE",
"323 426 CURVE",
"305 426 LINE",
"297 479 OFFCURVE",
"252 510 OFFCURVE",
"199 510 CURVE SMOOTH",
"168 510 OFFCURVE",
"133 499 OFFCURVE",
"102 476 CURVE SMOOTH",
"22 416 LINE",
"89 326 LINE",
"168 384 LINE",
"178 378 LINE"
);
}
);
width = 612;
}
);
unicode = 0072;
},
{
glyphname = s;
lastChange = "2025-01-15 13:07:57 +0000";
layers = (
{
layerId = "CCBD71C2-CFAF-4DB2-A010-494EF6BDA443";
paths = (
{
closed = 1;
nodes = (
"408 440 OFFCURVE",
"447 407 OFFCURVE",
"447 356 CURVE",
"447 352 OFFCURVE",
"446 345 OFFCURVE",
"446 345 CURVE",
"523 356 LINE",
"523 367 LINE",
"523 438 OFFCURVE",
"469 510 OFFCURVE",
"346 510 CURVE SMOOTH",
"220 510 OFFCURVE",
"137 442 OFFCURVE",
"137 348 CURVE SMOOTH",
"137 266 OFFCURVE",
"195 230 OFFCURVE",
"289 223 CURVE SMOOTH",
"372 217 OFFCURVE",
"414 204 OFFCURVE",
"414 152 CURVE SMOOTH",
"414 86 OFFCURVE",
"338 58 OFFCURVE",
"276 58 CURVE SMOOTH",
"182 58 OFFCURVE",
"150 102 OFFCURVE",
"150 160 CURVE SMOOTH",
"150 165 OFFCURVE",
"150 166 OFFCURVE",
"151 176 CURVE",
"73 166 LINE",
"72 159 OFFCURVE",
"72 152 OFFCURVE",
"72 145 CURVE SMOOTH",
"72 65 OFFCURVE",
"126 -14 OFFCURVE",
"261 -14 CURVE SMOOTH",
"396 -14 OFFCURVE",
"494 50 OFFCURVE",
"494 162 CURVE SMOOTH",
"494 242 OFFCURVE",
"438 282 OFFCURVE",
"343 289 CURVE SMOOTH",
"250 296 OFFCURVE",
"216 315 OFFCURVE",
"216 358 CURVE SMOOTH",
"216 414 OFFCURVE",
"282 440 OFFCURVE",
"336 440 CURVE SMOOTH"
);
}
);
width = 612;
},
{
layerId = "8275915C-4C26-4DD7-A30E-5590CD7E6050";
paths = (
{
closed = 1;
nodes = (
"373 396 OFFCURVE",
"401 374 OFFCURVE",
"406 338 CURVE",
"528 370 LINE",
"520 427 OFFCURVE",
"476 510 OFFCURVE",
"338 510 CURVE SMOOTH",
"226 510 OFFCURVE",
"126 448 OFFCURVE",
"126 335 CURVE SMOOTH",
"126 258 OFFCURVE",
"187 209 OFFCURVE",
"283 201 CURVE SMOOTH",
"354 195 OFFCURVE",
"377 178 OFFCURVE",
"377 150 CURVE SMOOTH",
"377 113 OFFCURVE",
"336 100 OFFCURVE",
"290 100 CURVE SMOOTH",
"222 100 OFFCURVE",
"190 136 OFFCURVE",
"186 180 CURVE",
"62 150 LINE",
"66 80 OFFCURVE",
"128 -14 OFFCURVE",
"274 -14 CURVE SMOOTH",
"418 -14 OFFCURVE",
"506 58 OFFCURVE",
"506 174 CURVE SMOOTH",
"506 252 OFFCURVE",
"447 294 OFFCURVE",
"361 304 CURVE SMOOTH",
"284 313 OFFCURVE",
"255 324 OFFCURVE",
"255 352 CURVE SMOOTH",
"255 384 OFFCURVE",
"294 396 OFFCURVE",
"322 396 CURVE SMOOTH"
);
}
);
width = 612;
}
);
unicode = 0073;
},
{
glyphname = t;
lastChange = "2025-01-15 13:07:57 +0000";
layers = (
{
layerId = "CCBD71C2-CFAF-4DB2-A010-494EF6BDA443";
paths = (
{
closed = 1;
nodes = (
"85 424 LINE",
"241 424 LINE",
"173 100 LINE SMOOTH",
"171 90 OFFCURVE",
"169 79 OFFCURVE",
"169 70 CURVE SMOOTH",
"169 14 OFFCURVE",
"208 -14 OFFCURVE",
"254 -14 CURVE SMOOTH",
"276 -14 OFFCURVE",
"299 -7 OFFCURVE",
"320 7 CURVE SMOOTH",
"453 97 LINE",
"413 156 LINE",
"280 66 LINE SMOOTH",
"275 63 OFFCURVE",
"270 61 OFFCURVE",
"265 61 CURVE SMOOTH",
"253 61 OFFCURVE",
"244 71 OFFCURVE",
"248 87 CURVE",
"319 424 LINE",
"511 424 LINE",
"511 496 LINE",
"335 496 LINE",
"381 714 LINE",
"303 714 LINE",
"257 496 LINE",
"85 496 LINE"
);
}
);
width = 612;
},
{
layerId = "8275915C-4C26-4DD7-A30E-5590CD7E6050";
paths = (
{
closed = 1;
nodes = (
"163 126 LINE SMOOTH",
"160 111 OFFCURVE",
"159 104 OFFCURVE",
"159 94 CURVE SMOOTH",
"159 27 OFFCURVE",
"210 -14 OFFCURVE",
"269 -14 CURVE SMOOTH",
"296 -14 OFFCURVE",
"324 -6 OFFCURVE",
"350 12 CURVE SMOOTH",
"495 110 LINE",
"432 204 LINE",
"298 112 LINE",
"288 119 LINE",
"344 376 LINE",
"542 376 LINE",
"542 496 LINE",
"370 496 LINE",
"416 714 LINE",
"290 714 LINE",
"244 496 LINE",
"78 496 LINE",
"78 376 LINE",
"218 376 LINE"
);
}
);
width = 612;
}
);
unicode = 0074;
},
{
glyphname = u;
lastChange = "2025-01-15 13:07:57 +0000";
layers = (
{
layerId = "CCBD71C2-CFAF-4DB2-A010-494EF6BDA443";
paths = (
{
closed = 1;
nodes = (
"364 78 LINE SMOOTH",
"363 71 OFFCURVE",
"362 64 OFFCURVE",
"362 58 CURVE SMOOTH",
"362 7 OFFCURVE",
"401 -14 OFFCURVE",
"440 -14 CURVE SMOOTH",
"464 -14 OFFCURVE",
"489 -7 OFFCURVE",
"505 6 CURVE",
"555 44 LINE",
"513 102 LINE",
"470 71 LINE SMOOTH",
"466 68 OFFCURVE",
"460 66 OFFCURVE",
"456 66 CURVE SMOOTH",
"447 66 OFFCURVE",
"440 73 OFFCURVE",
"443 84 CURVE",
"534 496 LINE",
"456 496 LINE",
"398 238 LINE SMOOTH",
"374 130 OFFCURVE",
"306 60 OFFCURVE",
"214 60 CURVE SMOOTH",
"148 60 OFFCURVE",
"115 89 OFFCURVE",
"115 152 CURVE SMOOTH",
"115 169 OFFCURVE",
"117 188 OFFCURVE",
"122 210 CURVE SMOOTH",
"186 496 LINE",
"108 496 LINE",
"42 200 LINE SMOOTH",
"36 175 OFFCURVE",
"34 155 OFFCURVE",
"34 135 CURVE SMOOTH",
"34 37 OFFCURVE",
"95 -14 OFFCURVE",
"182 -14 CURVE SMOOTH",
"262 -14 OFFCURVE",
"317 20 OFFCURVE",
"353 84 CURVE",
"365 84 LINE"
);
}
);
width = 612;
},
{
layerId = "8275915C-4C26-4DD7-A30E-5590CD7E6050";
paths = (
{
closed = 1;
nodes = (
"97 496 LINE",
"31 190 LINE SMOOTH",
"27 171 OFFCURVE",
"25 153 OFFCURVE",
"25 136 CURVE SMOOTH",
"25 42 OFFCURVE",
"86 -14 OFFCURVE",
"172 -14 CURVE SMOOTH",
"234 -14 OFFCURVE",
"287 10 OFFCURVE",
"316 78 CURVE",
"334 78 LINE",
"339 19 OFFCURVE",
"387 -14 OFFCURVE",
"441 -14 CURVE SMOOTH",
"468 -14 OFFCURVE",
"496 -6 OFFCURVE",
"521 12 CURVE SMOOTH",
"568 46 LINE",
"505 138 LINE",
"469 112 LINE",
"458 118 LINE",
"540 496 LINE",
"414 496 LINE",
"358 232 LINE SMOOTH",
"340 148 OFFCURVE",
"304 100 OFFCURVE",
"234 100 CURVE SMOOTH",
"187 100 OFFCURVE",
"157 125 OFFCURVE",
"157 175 CURVE SMOOTH",
"157 185 OFFCURVE",
"158 195 OFFCURVE",
"161 208 CURVE SMOOTH",
"223 496 LINE"
);
}
);
width = 612;
}
);
unicode = 0075;
},
{
glyphname = v;
lastChange = "2025-01-15 13:07:57 +0000";
layers = (
{
guideLines = (
{
position = "{0, 510}";
}
);
layerId = "CCBD71C2-CFAF-4DB2-A010-494EF6BDA443";
paths = (
{
closed = 1;
nodes = (
"218 426 LINE SMOOTH",
"213 481 OFFCURVE",
"172 510 OFFCURVE",
"128 510 CURVE SMOOTH",
"99 510 OFFCURVE",
"69 497 OFFCURVE",
"48 470 CURVE SMOOTH",
"0 408 LINE",
"56 363 LINE",
"105 425 LINE SMOOTH",
"110 431 OFFCURVE",
"116 434 OFFCURVE",
"123 434 CURVE SMOOTH",
"133 434 OFFCURVE",
"139 428 OFFCURVE",
"140 418 CURVE SMOOTH",
"178 0 LINE",
"330 0 LINE",
"570 459 LINE",
"497 496 LINE",
"265 36 LINE",
"253 36 LINE"
);
}
);
width = 612;
},
{
layerId = "8275915C-4C26-4DD7-A30E-5590CD7E6050";
paths = (
{
closed = 1;
nodes = (
"161 0 LINE",
"404 0 LINE",
"614 449 LINE",
"501 504 LINE",
"299 60 LINE",
"281 60 LINE",
"260 400 LINE SMOOTH",
"256 473 OFFCURVE",
"202 510 OFFCURVE",
"146 510 CURVE SMOOTH",
"108 510 OFFCURVE",
"70 493 OFFCURVE",
"44 460 CURVE SMOOTH",
"-3 400 LINE",
"84 329 LINE",
"123 378 LINE",
"135 374 LINE"
);
}
);
width = 612;
}
);
unicode = 0076;
},
{
glyphname = w;
lastChange = "2025-01-15 13:07:57 +0000";
layers = (
{
guideLines = (
{
position = "{0, 510}";
}
);
layerId = "CCBD71C2-CFAF-4DB2-A010-494EF6BDA443";
paths = (
{
closed = 1;
nodes = (
"134 496 LINE",
"63 496 LINE",
"18 0 LINE",
"158 0 LINE",
"314 460 LINE",
"326 460 LINE",
"289 0 LINE",
"429 0 LINE",
"588 485 LINE",
"520 506 LINE",
"371 36 LINE",
"359 36 LINE",
"398 496 LINE",
"253 496 LINE",
"99 36 LINE",
"87 36 LINE"
);
}
);
width = 612;
},
{
layerId = "8275915C-4C26-4DD7-A30E-5590CD7E6050";
paths = (
{
closed = 1;
nodes = (
"194 496 LINE",
"89 496 LINE",
"32 0 LINE",
"228 0 LINE",
"343 436 LINE",
"361 436 LINE",
"302 0 LINE",
"503 0 LINE",
"636 483 LINE",
"533 508 LINE",
"432 126 LINE",
"420 72 LINE",
"402 72 LINE",
"412 120 LINE",
"464 496 LINE",
"264 496 LINE",
"163 120 LINE",
"152 72 LINE",
"134 72 LINE",
"145 126 LINE"
);
}
);
width = 612;
}
);
unicode = 0077;
},
{
glyphname = x;
lastChange = "2025-01-15 13:07:57 +0000";
layers = (
{
guideLines = (
{
position = "{0, 248}";
},
{
position = "{0, 510}";
},
{
angle = 90;
position = "{281, 0}";
}
);
layerId = "CCBD71C2-CFAF-4DB2-A010-494EF6BDA443";
paths = (
{
closed = 1;
nodes = (
"23 41 LINE",
"76 -12 LINE",
"269 177 LINE",
"325 43 LINE SMOOTH",
"342 3 OFFCURVE",
"373 -14 OFFCURVE",
"405 -14 CURVE SMOOTH",
"441 -14 OFFCURVE",
"469 3 OFFCURVE",
"490 42 CURVE SMOOTH",
"533 121 LINE",
"470 155 LINE",
"427 78 LINE SMOOTH",
"423 71 OFFCURVE",
"417 67 OFFCURVE",
"410 67 CURVE SMOOTH",
"401 67 OFFCURVE",
"396 71 OFFCURVE",
"392 80 CURVE SMOOTH",
"327 234 LINE",
"551 453 LINE",
"498 506 LINE",
"296 308 LINE",
"237 451 LINE SMOOTH",
"220 491 OFFCURVE",
"194 510 OFFCURVE",
"158 510 CURVE SMOOTH",
"119 510 OFFCURVE",
"95 490 OFFCURVE",
"74 454 CURVE SMOOTH",
"29 376 LINE",
"91 340 LINE",
"135 415 LINE",
"139 423 OFFCURVE",
"145 427 OFFCURVE",
"153 427 CURVE SMOOTH",
"161 427 OFFCURVE",
"167 423 OFFCURVE",
"171 414 CURVE SMOOTH",
"238 252 LINE"
);
}
);
width = 612;
},
{
layerId = "8275915C-4C26-4DD7-A30E-5590CD7E6050";
paths = (
{
closed = 1;
nodes = (
"557 415 LINE",
"472 504 LINE",
"314 356 LINE",
"282 432 LINE SMOOTH",
"259 485 OFFCURVE",
"224 510 OFFCURVE",
"174 510 CURVE SMOOTH",
"125 510 OFFCURVE",
"86 486 OFFCURVE",
"58 442 CURVE SMOOTH",
"10 368 LINE",
"106 306 LINE",
"154 383 LINE",
"166 383 LINE",
"216 264 LINE",
"16 77 LINE",
"101 -12 LINE",
"266 143 LINE",
"299 66 LINE SMOOTH",
"322 11 OFFCURVE",
"356 -14 OFFCURVE",
"411 -14 CURVE SMOOTH",
"468 -14 OFFCURVE",
"510 15 OFFCURVE",
"536 68 CURVE SMOOTH",
"568 132 LINE",
"468 184 LINE",
"429 112 LINE",
"417 112 LINE",
"365 235 LINE"
);
}
);
width = 612;
}
);
unicode = 0078;
},
{
glyphname = y;
lastChange = "2025-01-15 13:07:57 +0000";
layers = (
{
guideLines = (
{
position = "{0, 510}";
}
);
layerId = "CCBD71C2-CFAF-4DB2-A010-494EF6BDA443";
paths = (
{
closed = 1;
nodes = (
"230 401 LINE SMOOTH",
"232 413 OFFCURVE",
"233 419 OFFCURVE",
"233 427 CURVE SMOOTH",
"233 479 OFFCURVE",
"196 510 OFFCURVE",
"152 510 CURVE SMOOTH",
"132 510 OFFCURVE",
"110 503 OFFCURVE",
"89 489 CURVE SMOOTH",
"37 454 LINE",
"77 395 LINE",
"128 430 LINE SMOOTH",
"132 433 OFFCURVE",
"137 435 OFFCURVE",
"141 435 CURVE SMOOTH",
"150 435 OFFCURVE",
"158 427 OFFCURVE",
"155 414 CURVE SMOOTH",
"110 200 LINE SMOOTH",
"105 178 OFFCURVE",
"103 158 OFFCURVE",
"103 139 CURVE SMOOTH",
"103 42 OFFCURVE",
"161 -14 OFFCURVE",
"250 -14 CURVE SMOOTH",
"326 -14 OFFCURVE",
"380 18 OFFCURVE",
"420 78 CURVE",
"432 78 LINE",
"394 -98 LINE SMOOTH",
"390 -117 OFFCURVE",
"380 -128 OFFCURVE",
"361 -128 CURVE SMOOTH",
"103 -128 LINE",
"103 -200 LINE",
"374 -200 LINE SMOOTH",
"419 -200 OFFCURVE",
"458 -167 OFFCURVE",
"467 -122 CURVE SMOOTH",
"598 496 LINE",
"520 496 LINE",
"466 238 LINE SMOOTH",
"443 130 OFFCURVE",
"374 60 OFFCURVE",
"282 60 CURVE SMOOTH",
"216 60 OFFCURVE",
"183 89 OFFCURVE",
"183 152 CURVE SMOOTH",
"183 169 OFFCURVE",
"185 188 OFFCURVE",
"190 210 CURVE SMOOTH"
);
}
);
width = 612;
},
{
layerId = "8275915C-4C26-4DD7-A30E-5590CD7E6050";
paths = (
{
closed = 1;
nodes = (
"264 374 LINE SMOOTH",
"266 385 OFFCURVE",
"267 395 OFFCURVE",
"267 404 CURVE SMOOTH",
"267 470 OFFCURVE",
"216 510 OFFCURVE",
"157 510 CURVE SMOOTH",
"131 510 OFFCURVE",
"103 502 OFFCURVE",
"78 485 CURVE SMOOTH",
"5 436 LINE",
"68 342 LINE",
"128 384 LINE",
"138 377 LINE",
"99 192 LINE SMOOTH",
"95 174 OFFCURVE",
"93 156 OFFCURVE",
"93 140 CURVE SMOOTH",
"93 42 OFFCURVE",
"159 -14 OFFCURVE",
"238 -14 CURVE SMOOTH",
"306 -14 OFFCURVE",
"350 12 OFFCURVE",
"379 72 CURVE",
"397 72 LINE",
"371 -50 LINE SMOOTH",
"367 -69 OFFCURVE",
"357 -80 OFFCURVE",
"338 -80 CURVE SMOOTH",
"99 -80 LINE",
"99 -200 LINE",
"389 -200 LINE SMOOTH",
"434 -200 OFFCURVE",
"473 -167 OFFCURVE",
"482 -122 CURVE SMOOTH",
"613 496 LINE",
"487 496 LINE",
"432 236 LINE SMOOTH",
"413 148 OFFCURVE",
"378 100 OFFCURVE",
"306 100 CURVE SMOOTH",
"256 100 OFFCURVE",
"224 127 OFFCURVE",
"224 177 CURVE SMOOTH",
"224 187 OFFCURVE",
"226 199 OFFCURVE",
"228 208 CURVE SMOOTH"
);
}
);
width = 612;
}
);
unicode = 0079;
},
{
glyphname = z;
lastChange = "2025-01-15 13:07:57 +0000";
layers = (
{
layerId = "CCBD71C2-CFAF-4DB2-A010-494EF6BDA443";
paths = (
{
closed = 1;
nodes = (
"130 72 LINE",
"130 84 LINE",
"538 370 LINE",
"538 496 LINE",
"134 496 LINE",
"134 424 LINE",
"472 424 LINE",
"472 412 LINE",
"64 130 LINE",
"64 0 LINE",
"485 0 LINE",
"485 72 LINE"
);
}
);
width = 612;
},
{
layerId = "8275915C-4C26-4DD7-A30E-5590CD7E6050";
paths = (
{
closed = 1;
nodes = (
"162 120 LINE",
"162 138 LINE",
"534 302 LINE",
"534 496 LINE",
"123 496 LINE",
"123 380 LINE",
"414 380 LINE",
"414 362 LINE",
"40 197 LINE",
"40 0 LINE",
"469 0 LINE",
"469 120 LINE"
);
}
);
width = 612;
}
);
unicode = 007A;
},
{
glyphname = zero;
lastChange = "2025-01-15 13:07:57 +0000";
layers = (
{
components = (
{
alignment = -1;
name = O;
transform = "{1, 0, 0, 1, -2, 0}";
}
);
layerId = "CCBD71C2-CFAF-4DB2-A010-494EF6BDA443";
paths = (
{
closed = 1;
nodes = (
"240 316 OFFCURVE",
"270 286 OFFCURVE",
"304 286 CURVE SMOOTH",
"338 286 OFFCURVE",
"368 316 OFFCURVE",
"368 350 CURVE SMOOTH",
"368 384 OFFCURVE",
"338 414 OFFCURVE",
"304 414 CURVE SMOOTH",
"270 414 OFFCURVE",
"240 384 OFFCURVE",
"240 350 CURVE SMOOTH"
);
}
);
width = 612;
},
{
layerId = "8275915C-4C26-4DD7-A30E-5590CD7E6050";
paths = (
{
closed = 1;
nodes = (
"223 305 OFFCURVE",
"262 266 OFFCURVE",
"307 266 CURVE SMOOTH",
"352 266 OFFCURVE",
"391 305 OFFCURVE",
"391 350 CURVE SMOOTH",
"391 395 OFFCURVE",
"352 434 OFFCURVE",
"307 434 CURVE SMOOTH",
"262 434 OFFCURVE",
"223 395 OFFCURVE",
"223 350 CURVE SMOOTH"
);
},
{
closed = 1;
nodes = (
"32 272 LINE SMOOTH",
"27 249 OFFCURVE",
"25 227 OFFCURVE",
"25 205 CURVE SMOOTH",
"25 82 OFFCURVE",
"103 -14 OFFCURVE",
"237 -14 CURVE SMOOTH",
"407 -14 OFFCURVE",
"507 76 OFFCURVE",
"548 272 CURVE SMOOTH",
"581 428 LINE SMOOTH",
"586 451 OFFCURVE",
"588 473 OFFCURVE",
"588 495 CURVE SMOOTH",
"588 618 OFFCURVE",
"510 714 OFFCURVE",
"376 714 CURVE SMOOTH",
"206 714 OFFCURVE",
"106 624 OFFCURVE",
"65 428 CURVE SMOOTH"
);
},
{
closed = 1;
nodes = (
"189 106 OFFCURVE",
"156 148 OFFCURVE",
"156 213 CURVE SMOOTH",
"156 229 OFFCURVE",
"158 246 OFFCURVE",
"162 264 CURVE SMOOTH",
"201 444 LINE SMOOTH",
"220 532 OFFCURVE",
"268 594 OFFCURVE",
"356 594 CURVE SMOOTH",
"424 594 OFFCURVE",
"457 552 OFFCURVE",
"457 487 CURVE SMOOTH",
"457 471 OFFCURVE",
"455 454 OFFCURVE",
"451 436 CURVE SMOOTH",
"412 256 LINE SMOOTH",
"393 168 OFFCURVE",
"345 106 OFFCURVE",
"257 106 CURVE SMOOTH"
);
}
);
width = 612;
}
);
unicode = 0030;
},
{
glyphname = one;
lastChange = "2025-01-15 13:07:57 +0000";
layers = (
{
layerId = "CCBD71C2-CFAF-4DB2-A010-494EF6BDA443";
paths = (
{
closed = 1;
nodes = (
"24 78 LINE",
"24 0 LINE",
"504 0 LINE",
"504 78 LINE",
"306 78 LINE",
"438 700 LINE",
"268 700 LINE",
"67 406 LINE",
"67 400 LINE",
"158 400 LINE",
"334 663 LINE",
"346 663 LINE",
"222 78 LINE"
);
}
);
width = 612;
},
{
layerId = "8275915C-4C26-4DD7-A30E-5590CD7E6050";
paths = (
{
closed = 1;
nodes = (
"14 126 LINE",
"14 0 LINE",
"517 0 LINE",
"517 126 LINE",
"344 126 LINE",
"466 700 LINE",
"208 700 LINE",
"53 406 LINE",
"53 394 LINE",
"185 394 LINE",
"302 634 LINE",
"320 634 LINE",
"212 126 LINE"
);
}
);
width = 612;
}
);
unicode = 0031;
},
{
glyphname = two;
lastChange = "2025-01-15 13:07:57 +0000";
layers = (
{
layerId = "CCBD71C2-CFAF-4DB2-A010-494EF6BDA443";
paths = (
{
closed = 1;
nodes = (
"100 78 LINE",
"107 108 LINE SMOOTH",
"128 198 OFFCURVE",
"193 238 OFFCURVE",
"325 264 CURVE SMOOTH",
"490 296 OFFCURVE",
"589 382 OFFCURVE",
"589 538 CURVE SMOOTH",
"589 630 OFFCURVE",
"514 714 OFFCURVE",
"382 714 CURVE SMOOTH",
"212 714 OFFCURVE",
"119 607 OFFCURVE",
"91 470 CURVE SMOOTH",
"81 420 LINE",
"166 420 LINE",
"175 464 LINE SMOOTH",
"197 568 OFFCURVE",
"270 636 OFFCURVE",
"372 636 CURVE SMOOTH",
"464 636 OFFCURVE",
"502 585 OFFCURVE",
"502 524 CURVE SMOOTH",
"502 406 OFFCURVE",
"402 356 OFFCURVE",
"298 336 CURVE SMOOTH",
"149 307 OFFCURVE",
"50 250 OFFCURVE",
"24 120 CURVE SMOOTH",
"0 0 LINE",
"489 0 LINE",
"489 78 LINE"
);
}
);
width = 612;
},
{
layerId = "8275915C-4C26-4DD7-A30E-5590CD7E6050";
paths = (
{
closed = 1;
nodes = (
"152 126 LINE",
"155 138 LINE SMOOTH",
"170 198 OFFCURVE",
"198 228 OFFCURVE",
"342 258 CURVE SMOOTH",
"504 292 OFFCURVE",
"599 378 OFFCURVE",
"599 522 CURVE SMOOTH",
"599 624 OFFCURVE",
"518 714 OFFCURVE",
"384 714 CURVE SMOOTH",
"222 714 OFFCURVE",
"119 624 OFFCURVE",
"86 470 CURVE SMOOTH",
"74 414 LINE",
"206 414 LINE",
"215 458 LINE SMOOTH",
"232 539 OFFCURVE",
"288 588 OFFCURVE",
"366 588 CURVE SMOOTH",
"430 588 OFFCURVE",
"464 554 OFFCURVE",
"464 504 CURVE SMOOTH",
"464 418 OFFCURVE",
"384 386 OFFCURVE",
"305 372 CURVE SMOOTH",
"150 345 OFFCURVE",
"54 296 OFFCURVE",
"21 138 CURVE SMOOTH",
"-8 0 LINE",
"498 0 LINE",
"498 126 LINE"
);
}
);
width = 612;
}
);
unicode = 0032;
},
{
glyphname = three;
lastChange = "2025-01-15 13:07:57 +0000";
layers = (
{
layerId = "CCBD71C2-CFAF-4DB2-A010-494EF6BDA443";
paths = (
{
closed = 1;
nodes = (
"239 348 LINE",
"239 466 LINE",
"520 610 LINE",
"520 622 LINE",
"145 622 LINE",
"145 700 LINE",
"586 700 LINE",
"586 564 LINE",
"319 426 LINE",
"319 414 LINE",
"361 414 LINE SMOOTH",
"462 414 OFFCURVE",
"534 352 OFFCURVE",
"534 252 CURVE SMOOTH",
"534 92 OFFCURVE",
"397 -14 OFFCURVE",
"242 -14 CURVE SMOOTH",
"105 -14 OFFCURVE",
"32 69 OFFCURVE",
"32 171 CURVE SMOOTH",
"32 186 OFFCURVE",
"34 202 OFFCURVE",
"37 218 CURVE SMOOTH",
"48 272 LINE",
"132 272 LINE",
"122 224 LINE SMOOTH",
"119 208 OFFCURVE",
"117 193 OFFCURVE",
"117 179 CURVE SMOOTH",
"117 100 OFFCURVE",
"171 64 OFFCURVE",
"253 64 CURVE SMOOTH",
"373 64 OFFCURVE",
"448 141 OFFCURVE",
"448 240 CURVE SMOOTH",
"448 310 OFFCURVE",
"400 348 OFFCURVE",
"331 348 CURVE SMOOTH"
);
}
);
width = 612;
},
{
layerId = "8275915C-4C26-4DD7-A30E-5590CD7E6050";
paths = (
{
closed = 1;
nodes = (
"244 300 LINE",
"244 508 LINE",
"453 556 LINE",
"453 574 LINE",
"133 574 LINE",
"133 700 LINE",
"561 700 LINE",
"561 480 LINE",
"342 426 LINE",
"342 408 LINE",
"365 408 LINE SMOOTH",
"452 408 OFFCURVE",
"536 349 OFFCURVE",
"536 232 CURVE SMOOTH",
"536 86 OFFCURVE",
"426 -14 OFFCURVE",
"254 -14 CURVE SMOOTH",
"116 -14 OFFCURVE",
"24 70 OFFCURVE",
"24 188 CURVE SMOOTH",
"24 205 OFFCURVE",
"26 223 OFFCURVE",
"30 241 CURVE SMOOTH",
"35 266 LINE",
"167 266 LINE",
"163 245 LINE SMOOTH",
"160 229 OFFCURVE",
"159 221 OFFCURVE",
"159 210 CURVE SMOOTH",
"159 151 OFFCURVE",
"197 112 OFFCURVE",
"268 112 CURVE SMOOTH",
"344 112 OFFCURVE",
"399 150 OFFCURVE",
"399 218 CURVE SMOOTH",
"399 268 OFFCURVE",
"362 300 OFFCURVE",
"304 300 CURVE SMOOTH"
);
}
);
width = 612;
}
);
unicode = 0033;
},
{
glyphname = four;
lastChange = "2025-01-15 13:07:57 +0000";
layers = (
{
layerId = "CCBD71C2-CFAF-4DB2-A010-494EF6BDA443";
paths = (
{
closed = 1;
nodes = (
"375 700 LINE",
"375 700 OFFCURVE",
"548 700 OFFCURVE",
"548 700 CURVE",
"548 700 OFFCURVE",
"444 210 OFFCURVE",
"444 210 CURVE",
"444 210 OFFCURVE",
"535 210 OFFCURVE",
"535 210 CURVE",
"535 210 OFFCURVE",
"535 132 OFFCURVE",
"535 132 CURVE",
"535 132 OFFCURVE",
"427 132 OFFCURVE",
"427 132 CURVE",
"427 132 OFFCURVE",
"399 0 OFFCURVE",
"399 0 CURVE",
"399 0 OFFCURVE",
"315 0 OFFCURVE",
"315 0 CURVE",
"315 0 OFFCURVE",
"343 132 OFFCURVE",
"343 132 CURVE",
"343 132 OFFCURVE",
"19 132 OFFCURVE",
"19 132 CURVE",
"19 264 LINE"
);
},
{
closed = 1;
nodes = (
"83 222 LINE",
"83 210 LINE",
"83 210 OFFCURVE",
"360 210 OFFCURVE",
"360 210 CURVE",
"360 210 OFFCURVE",
"456 664 OFFCURVE",
"456 664 CURVE",
"456 664 OFFCURVE",
"444 664 OFFCURVE",
"444 664 CURVE"
);
}
);
width = 612;
},
{
layerId = "8275915C-4C26-4DD7-A30E-5590CD7E6050";
paths = (
{
closed = 1;
nodes = (
"314 700 LINE",
"314 700 OFFCURVE",
"568 700 OFFCURVE",
"568 700 CURVE",
"568 700 OFFCURVE",
"474 258 OFFCURVE",
"474 258 CURVE",
"474 258 OFFCURVE",
"562 258 OFFCURVE",
"562 258 CURVE",
"562 258 OFFCURVE",
"562 132 OFFCURVE",
"562 132 CURVE",
"562 132 OFFCURVE",
"447 132 OFFCURVE",
"447 132 CURVE",
"447 132 OFFCURVE",
"419 0 OFFCURVE",
"419 0 CURVE",
"419 0 OFFCURVE",
"287 0 OFFCURVE",
"287 0 CURVE",
"287 0 OFFCURVE",
"315 132 OFFCURVE",
"315 132 CURVE",
"315 132 OFFCURVE",
"11 132 OFFCURVE",
"11 132 CURVE",
"11 318 LINE"
);
},
{
closed = 1;
nodes = (
"122 276 LINE",
"122 258 LINE",
"122 258 OFFCURVE",
"342 258 OFFCURVE",
"342 258 CURVE",
"342 258 OFFCURVE",
"422 634 OFFCURVE",
"422 634 CURVE",
"422 634 OFFCURVE",
"404 634 OFFCURVE",
"404 634 CURVE"
);
}
);
width = 612;
}
);
unicode = 0034;
},
{
glyphname = five;
lastChange = "2025-01-15 13:07:57 +0000";
layers = (
{
layerId = "CCBD71C2-CFAF-4DB2-A010-494EF6BDA443";
paths = (
{
closed = 1;
nodes = (
"73 330 LINE",
"151 700 LINE",
"573 700 LINE",
"573 622 LINE",
"217 622 LINE",
"164 372 LINE",
"176 372 LINE",
"208 426 OFFCURVE",
"264 474 OFFCURVE",
"364 474 CURVE SMOOTH",
"468 474 OFFCURVE",
"548 400 OFFCURVE",
"548 300 CURVE SMOOTH",
"548 122 OFFCURVE",
"428 -14 OFFCURVE",
"244 -14 CURVE SMOOTH",
"105 -14 OFFCURVE",
"32 64 OFFCURVE",
"32 170 CURVE SMOOTH",
"32 187 OFFCURVE",
"34 205 OFFCURVE",
"38 224 CURVE SMOOTH",
"44 252 LINE",
"128 252 LINE",
"123 230 LINE SMOOTH",
"119 210 OFFCURVE",
"116 193 OFFCURVE",
"116 177 CURVE SMOOTH",
"116 97 OFFCURVE",
"171 64 OFFCURVE",
"256 64 CURVE SMOOTH",
"376 64 OFFCURVE",
"461 176 OFFCURVE",
"461 283 CURVE SMOOTH",
"461 348 OFFCURVE",
"418 396 OFFCURVE",
"344 396 CURVE SMOOTH",
"285 396 OFFCURVE",
"248 360 OFFCURVE",
"232 330 CURVE"
);
}
);
width = 612;
},
{
layerId = "8275915C-4C26-4DD7-A30E-5590CD7E6050";
paths = (
{
closed = 1;
nodes = (
"49 312 LINE",
"131 700 LINE",
"579 700 LINE",
"579 574 LINE",
"237 574 LINE",
"196 384 LINE",
"214 384 LINE",
"243 442 OFFCURVE",
"293 480 OFFCURVE",
"379 480 CURVE SMOOTH",
"485 480 OFFCURVE",
"559 404 OFFCURVE",
"559 281 CURVE SMOOTH",
"559 120 OFFCURVE",
"449 -14 OFFCURVE",
"251 -14 CURVE SMOOTH",
"107 -14 OFFCURVE",
"13 64 OFFCURVE",
"13 177 CURVE SMOOTH",
"13 191 OFFCURVE",
"15 207 OFFCURVE",
"18 222 CURVE SMOOTH",
"23 246 LINE",
"155 246 LINE",
"152 232 LINE SMOOTH",
"149 219 OFFCURVE",
"148 213 OFFCURVE",
"148 203 CURVE SMOOTH",
"148 150 OFFCURVE",
"187 112 OFFCURVE",
"271 112 CURVE SMOOTH",
"360 112 OFFCURVE",
"422 174 OFFCURVE",
"422 256 CURVE SMOOTH",
"422 326 OFFCURVE",
"386 354 OFFCURVE",
"338 354 CURVE SMOOTH",
"300 354 OFFCURVE",
"277 334 OFFCURVE",
"265 312 CURVE"
);
}
);
width = 612;
}
);
unicode = 0035;
},
{
glyphname = six;
lastChange = "2025-01-15 13:07:57 +0000";
layers = (
{
layerId = "CCBD71C2-CFAF-4DB2-A010-494EF6BDA443";
paths = (
{
closed = 1;
nodes = (
"570 496 LINE",
"574 512 OFFCURVE",
"575 528 OFFCURVE",
"575 543 CURVE SMOOTH",
"575 643 OFFCURVE",
"496 714 OFFCURVE",
"378 714 CURVE SMOOTH",
"238 714 OFFCURVE",
"124 634 OFFCURVE",
"90 472 CURVE SMOOTH",
"37 222 LINE",
"34 205 OFFCURVE",
"32 190 OFFCURVE",
"32 174 CURVE SMOOTH",
"32 65 OFFCURVE",
"115 -14 OFFCURVE",
"234 -14 CURVE SMOOTH",
"426 -14 OFFCURVE",
"531 118 OFFCURVE",
"531 288 CURVE SMOOTH",
"531 396 OFFCURVE",
"448 462 OFFCURVE",
"344 462 CURVE SMOOTH",
"268 462 OFFCURVE",
"204 428 OFFCURVE",
"165 374 CURVE",
"153 374 LINE",
"174 472 LINE SMOOTH",
"196 572 OFFCURVE",
"275 640 OFFCURVE",
"365 640 CURVE SMOOTH",
"445 640 OFFCURVE",
"490 602 OFFCURVE",
"490 535 CURVE SMOOTH",
"490 523 OFFCURVE",
"489 510 OFFCURVE",
"486 496 CURVE"
);
},
{
closed = 1;
nodes = (
"165 60 OFFCURVE",
"116 104 OFFCURVE",
"116 182 CURVE SMOOTH",
"116 294 OFFCURVE",
"208 388 OFFCURVE",
"316 388 CURVE SMOOTH",
"400 388 OFFCURVE",
"445 344 OFFCURVE",
"445 268 CURVE SMOOTH",
"445 152 OFFCURVE",
"358 60 OFFCURVE",
"246 60 CURVE SMOOTH"
);
}
);
width = 612;
},
{
associatedMasterId = "8275915C-4C26-4DD7-A30E-5590CD7E6050";
layerId = "E776FE02-7592-4FCE-B82D-ED4FA5912306";
name = img;
width = 612;
},
{
layerId = "8275915C-4C26-4DD7-A30E-5590CD7E6050";
paths = (
{
closed = 1;
nodes = (
"578 502 LINE",
"580 514 OFFCURVE",
"581 525 OFFCURVE",
"581 536 CURVE SMOOTH",
"581 633 OFFCURVE",
"507 714 OFFCURVE",
"366 714 CURVE SMOOTH",
"223 714 OFFCURVE",
"117 624 OFFCURVE",
"89 491 CURVE SMOOTH",
"37 241 LINE SMOOTH",
"33 220 OFFCURVE",
"31 201 OFFCURVE",
"31 182 CURVE SMOOTH",
"31 59 OFFCURVE",
"122 -14 OFFCURVE",
"249 -14 CURVE SMOOTH",
"439 -14 OFFCURVE",
"540 114 OFFCURVE",
"540 272 CURVE SMOOTH",
"540 392 OFFCURVE",
"459 462 OFFCURVE",
"361 462 CURVE SMOOTH",
"303 462 OFFCURVE",
"247 436 OFFCURVE",
"217 384 CURVE",
"199 384 LINE",
"218 474 LINE SMOOTH",
"232 542 OFFCURVE",
"280 588 OFFCURVE",
"359 588 CURVE SMOOTH",
"421 588 OFFCURVE",
"447 553 OFFCURVE",
"447 516 CURVE SMOOTH",
"447 511 OFFCURVE",
"447 509 OFFCURVE",
"446 502 CURVE"
);
},
{
closed = 1;
nodes = (
"207 112 OFFCURVE",
"162 146 OFFCURVE",
"162 205 CURVE SMOOTH",
"162 288 OFFCURVE",
"221 336 OFFCURVE",
"297 336 CURVE SMOOTH",
"365 336 OFFCURVE",
"402 294 OFFCURVE",
"402 242 CURVE SMOOTH",
"402 154 OFFCURVE",
"331 112 OFFCURVE",
"269 112 CURVE SMOOTH"
);
}
);
width = 612;
}
);
unicode = 0036;
},
{
glyphname = seven;
lastChange = "2025-01-15 13:07:57 +0000";
layers = (
{
layerId = "CCBD71C2-CFAF-4DB2-A010-494EF6BDA443";
paths = (
{
closed = 1;
nodes = (
"119 622 LINE",
"538 622 LINE",
"538 610 LINE",
"134 180 LINE SMOOTH",
"78 120 OFFCURVE",
"51 84 OFFCURVE",
"43 36 CURVE SMOOTH",
"37 0 LINE",
"128 0 LINE",
"133 26 LINE SMOOTH",
"140 64 OFFCURVE",
"161 91 OFFCURVE",
"199 132 CURVE SMOOTH",
"604 562 LINE",
"604 700 LINE",
"119 700 LINE"
);
}
);
width = 612;
},
{
layerId = "8275915C-4C26-4DD7-A30E-5590CD7E6050";
paths = (
{
closed = 1;
nodes = (
"107 574 LINE",
"476 574 LINE",
"476 556 LINE",
"133 174 LINE SMOOTH",
"70 104 OFFCURVE",
"55 78 OFFCURVE",
"45 30 CURVE SMOOTH",
"39 0 LINE",
"197 0 LINE",
"202 24 LINE SMOOTH",
"210 60 OFFCURVE",
"230 85 OFFCURVE",
"266 124 CURVE SMOOTH",
"606 501 LINE",
"606 700 LINE",
"107 700 LINE"
);
}
);
width = 612;
}
);
unicode = 0037;
},
{
glyphname = eight;
lastChange = "2025-01-15 13:07:57 +0000";
layers = (
{
layerId = "CCBD71C2-CFAF-4DB2-A010-494EF6BDA443";
paths = (
{
closed = 1;
nodes = (
"392 -14 OFFCURVE",
"514 74 OFFCURVE",
"514 228 CURVE SMOOTH",
"514 298 OFFCURVE",
"466 342 OFFCURVE",
"416 357 CURVE",
"416 369 LINE",
"512 396 OFFCURVE",
"569 474 OFFCURVE",
"569 566 CURVE SMOOTH",
"569 652 OFFCURVE",
"494 714 OFFCURVE",
"376 714 CURVE SMOOTH",
"228 714 OFFCURVE",
"109 626 OFFCURVE",
"109 488 CURVE SMOOTH",
"109 428 OFFCURVE",
"149 386 OFFCURVE",
"193 369 CURVE",
"193 357 LINE",
"93 334 OFFCURVE",
"18 256 OFFCURVE",
"18 144 CURVE SMOOTH",
"18 52 OFFCURVE",
"96 -14 OFFCURVE",
"226 -14 CURVE SMOOTH"
);
},
{
closed = 1;
nodes = (
"156 62 OFFCURVE",
"106 98 OFFCURVE",
"106 161 CURVE SMOOTH",
"106 267 OFFCURVE",
"198 324 OFFCURVE",
"296 324 CURVE SMOOTH",
"379 324 OFFCURVE",
"430 290 OFFCURVE",
"430 223 CURVE SMOOTH",
"430 117 OFFCURVE",
"336 62 OFFCURVE",
"240 62 CURVE SMOOTH"
);
},
{
closed = 1;
nodes = (
"240 402 OFFCURVE",
"194 439 OFFCURVE",
"194 496 CURVE SMOOTH",
"194 588 OFFCURVE",
"280 638 OFFCURVE",
"363 638 CURVE SMOOTH",
"437 638 OFFCURVE",
"482 604 OFFCURVE",
"482 547 CURVE SMOOTH",
"482 456 OFFCURVE",
"398 402 OFFCURVE",
"313 402 CURVE SMOOTH"
);
}
);
width = 612;
},
{
layerId = "8275915C-4C26-4DD7-A30E-5590CD7E6050";
paths = (
{
closed = 1;
nodes = (
"430 -14 OFFCURVE",
"531 84 OFFCURVE",
"531 212 CURVE SMOOTH",
"531 290 OFFCURVE",
"490 334 OFFCURVE",
"437 354 CURVE",
"437 372 LINE",
"522 390 OFFCURVE",
"585 448 OFFCURVE",
"585 540 CURVE SMOOTH",
"585 660 OFFCURVE",
"478 714 OFFCURVE",
"369 714 CURVE SMOOTH",
"216 714 OFFCURVE",
"101 630 OFFCURVE",
"101 500 CURVE SMOOTH",
"101 424 OFFCURVE",
"144 390 OFFCURVE",
"179 372 CURVE",
"179 354 LINE",
"78 336 OFFCURVE",
"11 268 OFFCURVE",
"11 169 CURVE SMOOTH",
"11 70 OFFCURVE",
"91 -13 OFFCURVE",
"242 -14 CURVE"
);
},
{
closed = 1;
nodes = (
"188 112 OFFCURVE",
"150 146 OFFCURVE",
"150 190 CURVE SMOOTH",
"150 264 OFFCURVE",
"215 300 OFFCURVE",
"288 300 CURVE SMOOTH",
"363 300 OFFCURVE",
"400 263 OFFCURVE",
"400 219 CURVE SMOOTH",
"400 146 OFFCURVE",
"336 112 OFFCURVE",
"256 112 CURVE SMOOTH"
);
},
{
closed = 1;
nodes = (
"410 588 OFFCURVE",
"446 560 OFFCURVE",
"446 517 CURVE SMOOTH",
"446 459 OFFCURVE",
"387 426 OFFCURVE",
"322 426 CURVE SMOOTH",
"268 426 OFFCURVE",
"232 455 OFFCURVE",
"232 494 CURVE SMOOTH",
"232 558 OFFCURVE",
"290 588 OFFCURVE",
"354 588 CURVE SMOOTH"
);
}
);
width = 612;
}
);
unicode = 0038;
},
{
glyphname = nine;
lastChange = "2025-01-15 13:07:57 +0000";
layers = (
{
layerId = "CCBD71C2-CFAF-4DB2-A010-494EF6BDA443";
paths = (
{
closed = 1;
nodes = (
"39 204 LINE",
"35 187 OFFCURVE",
"33 171 OFFCURVE",
"33 156 CURVE SMOOTH",
"33 57 OFFCURVE",
"111 -14 OFFCURVE",
"232 -14 CURVE SMOOTH",
"376 -14 OFFCURVE",
"484 62 OFFCURVE",
"519 228 CURVE SMOOTH",
"572 478 LINE",
"575 495 OFFCURVE",
"577 511 OFFCURVE",
"577 526 CURVE SMOOTH",
"577 636 OFFCURVE",
"493 714 OFFCURVE",
"372 714 CURVE SMOOTH",
"190 714 OFFCURVE",
"78 582 OFFCURVE",
"78 414 CURVE SMOOTH",
"78 308 OFFCURVE",
"160 238 OFFCURVE",
"266 238 CURVE SMOOTH",
"346 238 OFFCURVE",
"408 272 OFFCURVE",
"444 326 CURVE",
"456 326 LINE",
"435 228 LINE SMOOTH",
"413 128 OFFCURVE",
"334 60 OFFCURVE",
"244 60 CURVE SMOOTH",
"163 60 OFFCURVE",
"118 98 OFFCURVE",
"118 164 CURVE SMOOTH",
"118 176 OFFCURVE",
"120 190 OFFCURVE",
"123 204 CURVE"
);
},
{
closed = 1;
nodes = (
"444 640 OFFCURVE",
"493 596 OFFCURVE",
"493 518 CURVE SMOOTH",
"493 406 OFFCURVE",
"401 312 OFFCURVE",
"293 312 CURVE SMOOTH",
"209 312 OFFCURVE",
"164 356 OFFCURVE",
"164 432 CURVE SMOOTH",
"164 548 OFFCURVE",
"251 640 OFFCURVE",
"363 640 CURVE SMOOTH"
);
}
);
width = 612;
},
{
layerId = "8275915C-4C26-4DD7-A30E-5590CD7E6050";
paths = (
{
closed = 1;
nodes = (
"34 198 LINE",
"32 186 OFFCURVE",
"31 174 OFFCURVE",
"31 162 CURVE SMOOTH",
"31 64 OFFCURVE",
"106 -14 OFFCURVE",
"246 -14 CURVE SMOOTH",
"393 -14 OFFCURVE",
"495 72 OFFCURVE",
"523 209 CURVE SMOOTH",
"575 459 LINE SMOOTH",
"579 480 OFFCURVE",
"581 495 OFFCURVE",
"581 512 CURVE SMOOTH",
"581 633 OFFCURVE",
"487 714 OFFCURVE",
"361 714 CURVE SMOOTH",
"179 714 OFFCURVE",
"72 594 OFFCURVE",
"72 432 CURVE SMOOTH",
"72 304 OFFCURVE",
"163 238 OFFCURVE",
"253 238 CURVE SMOOTH",
"323 238 OFFCURVE",
"371 264 OFFCURVE",
"395 316 CURVE",
"413 316 LINE",
"394 226 LINE SMOOTH",
"380 158 OFFCURVE",
"332 112 OFFCURVE",
"253 112 CURVE SMOOTH",
"189 112 OFFCURVE",
"164 144 OFFCURVE",
"164 181 CURVE SMOOTH",
"164 187 OFFCURVE",
"165 194 OFFCURVE",
"166 198 CURVE"
);
},
{
closed = 1;
nodes = (
"405 588 OFFCURVE",
"450 556 OFFCURVE",
"450 495 CURVE SMOOTH",
"450 418 OFFCURVE",
"388 364 OFFCURVE",
"313 364 CURVE SMOOTH",
"247 364 OFFCURVE",
"210 405 OFFCURVE",
"210 458 CURVE SMOOTH",
"210 545 OFFCURVE",
"277 588 OFFCURVE",
"345 588 CURVE SMOOTH"
);
}
);
width = 612;
}
);
unicode = 0039;
},
{
glyphname = bracketleft;
lastChange = "2025-01-15 13:07:57 +0000";
layers = (
{
layerId = "CCBD71C2-CFAF-4DB2-A010-494EF6BDA443";
paths = (
{
closed = 1;
nodes = (
"175 -60 LINE SMOOTH",
"173 -69 OFFCURVE",
"172 -78 OFFCURVE",
"172 -86 CURVE SMOOTH",
"172 -133 OFFCURVE",
"206 -156 OFFCURVE",
"254 -156 CURVE SMOOTH",
"343 -156 LINE",
"343 -84 LINE",
"276 -84 LINE SMOOTH",
"260 -84 OFFCURVE",
"253 -76 OFFCURVE",
"253 -64 CURVE SMOOTH",
"253 -64 OFFCURVE",
"253 -60 OFFCURVE",
"254 -54 CURVE SMOOTH",
"431 754 LINE SMOOTH",
"435 774 OFFCURVE",
"445 784 OFFCURVE",
"465 784 CURVE SMOOTH",
"534 784 LINE",
"534 856 LINE",
"452 856 LINE SMOOTH",
"402 856 OFFCURVE",
"369 826 OFFCURVE",
"358 778 CURVE SMOOTH"
);
}
);
width = 612;
},
{
associatedMasterId = "8275915C-4C26-4DD7-A30E-5590CD7E6050";
layerId = "4E676B82-1CC9-4D85-AE1F-049766D316A5";
name = img;
width = 612;
},
{
layerId = "8275915C-4C26-4DD7-A30E-5590CD7E6050";
paths = (
{
closed = 1;
nodes = (
"158 -39 LINE SMOOTH",
"156 -48 OFFCURVE",
"154 -60 OFFCURVE",
"154 -70 CURVE SMOOTH",
"154 -125 OFFCURVE",
"192 -156 OFFCURVE",
"252 -156 CURVE SMOOTH",
"385 -156 LINE",
"385 -36 LINE",
"313 -36 LINE SMOOTH",
"297 -36 OFFCURVE",
"290 -28 OFFCURVE",
"290 -16 CURVE SMOOTH",
"290 -16 OFFCURVE",
"290 -11 OFFCURVE",
"291 -6 CURVE SMOOTH",
"442 706 LINE SMOOTH",
"446 725 OFFCURVE",
"457 736 OFFCURVE",
"476 736 CURVE SMOOTH",
"569 736 LINE",
"569 856 LINE",
"450 856 LINE SMOOTH",
"390 856 OFFCURVE",
"339 814 OFFCURVE",
"326 754 CURVE SMOOTH"
);
}
);
width = 612;
}
);
unicode = 005B;
},
{
glyphname = bracketright;
lastChange = "2025-01-15 13:07:57 +0000";
layers = (
{
layerId = "CCBD71C2-CFAF-4DB2-A010-494EF6BDA443";
paths = (
{
closed = 1;
nodes = (
"440 760 LINE SMOOTH",
"442 769 OFFCURVE",
"443 778 OFFCURVE",
"443 786 CURVE SMOOTH",
"443 833 OFFCURVE",
"409 856 OFFCURVE",
"361 856 CURVE SMOOTH",
"272 856 LINE",
"272 784 LINE",
"339 784 LINE SMOOTH",
"355 784 OFFCURVE",
"362 776 OFFCURVE",
"362 764 CURVE SMOOTH",
"362 764 OFFCURVE",
"362 760 OFFCURVE",
"361 754 CURVE SMOOTH",
"184 -54 LINE SMOOTH",
"180 -74 OFFCURVE",
"170 -84 OFFCURVE",
"150 -84 CURVE SMOOTH",
"81 -84 LINE",
"81 -156 LINE",
"163 -156 LINE SMOOTH",
"213 -156 OFFCURVE",
"246 -126 OFFCURVE",
"257 -78 CURVE SMOOTH"
);
}
);
width = 612;
},
{
layerId = "8275915C-4C26-4DD7-A30E-5590CD7E6050";
paths = (
{
closed = 1;
nodes = (
"461 739 LINE SMOOTH",
"463 748 OFFCURVE",
"465 760 OFFCURVE",
"465 770 CURVE SMOOTH",
"465 825 OFFCURVE",
"427 856 OFFCURVE",
"367 856 CURVE SMOOTH",
"234 856 LINE",
"234 736 LINE",
"306 736 LINE SMOOTH",
"322 736 OFFCURVE",
"329 728 OFFCURVE",
"329 716 CURVE",
"329 716 OFFCURVE",
"329 711 OFFCURVE",
"328 706 CURVE SMOOTH",
"177 -6 LINE SMOOTH",
"173 -25 OFFCURVE",
"162 -36 OFFCURVE",
"143 -36 CURVE SMOOTH",
"50 -36 LINE",
"50 -156 LINE",
"169 -156 LINE SMOOTH",
"229 -156 OFFCURVE",
"280 -114 OFFCURVE",
"293 -54 CURVE SMOOTH"
);
}
);
width = 612;
}
);
unicode = 005D;
},
{
glyphname = braceleft;
lastChange = "2025-01-15 13:07:57 +0000";
layers = (
{
layerId = "CCBD71C2-CFAF-4DB2-A010-494EF6BDA443";
paths = (
{
closed = 1;
nodes = (
"298 433 LINE SMOOTH",
"294 414 OFFCURVE",
"284 404 OFFCURVE",
"265 404 CURVE SMOOTH",
"201 404 LINE",
"201 296 LINE",
"240 296 LINE SMOOTH",
"255 296 OFFCURVE",
"262 289 OFFCURVE",
"262 277 CURVE SMOOTH",
"262 274 OFFCURVE",
"262 272 OFFCURVE",
"261 267 CURVE SMOOTH",
"191 -54 LINE SMOOTH",
"189 -65 OFFCURVE",
"188 -72 OFFCURVE",
"188 -83 CURVE SMOOTH",
"188 -134 OFFCURVE",
"224 -156 OFFCURVE",
"272 -156 CURVE SMOOTH",
"358 -156 LINE",
"358 -84 LINE",
"293 -84 LINE SMOOTH",
"276 -84 OFFCURVE",
"268 -76 OFFCURVE",
"268 -64 CURVE SMOOTH",
"268 -61 OFFCURVE",
"268 -60 OFFCURVE",
"269 -55 CURVE SMOOTH",
"338 262 LINE SMOOTH",
"340 273 OFFCURVE",
"340 276 OFFCURVE",
"340 283 CURVE SMOOTH",
"340 321 OFFCURVE",
"315 344 OFFCURVE",
"279 344 CURVE SMOOTH",
"267 344 LINE",
"267 356 LINE",
"282 356 LINE SMOOTH",
"332 356 OFFCURVE",
"366 386 OFFCURVE",
"376 434 CURVE SMOOTH",
"446 754 LINE SMOOTH",
"450 774 OFFCURVE",
"460 784 OFFCURVE",
"480 784 CURVE SMOOTH",
"549 784 LINE",
"549 856 LINE",
"467 856 LINE SMOOTH",
"414 856 OFFCURVE",
"384 828 OFFCURVE",
"373 778 CURVE SMOOTH"
);
}
);
width = 612;
},
{
guideLines = (
{
position = "{0, 263}";
},
{
angle = 90;
position = "{363, 0}";
}
);
layerId = "8275915C-4C26-4DD7-A30E-5590CD7E6050";
paths = (
{
closed = 1;
nodes = (
"173 -39 LINE SMOOTH",
"171 -49 OFFCURVE",
"169 -60 OFFCURVE",
"169 -70 CURVE SMOOTH",
"169 -125 OFFCURVE",
"207 -156 OFFCURVE",
"267 -156 CURVE SMOOTH",
"400 -156 LINE",
"400 -36 LINE",
"328 -36 LINE SMOOTH",
"312 -36 OFFCURVE",
"305 -28 OFFCURVE",
"305 -16 CURVE SMOOTH",
"305 -13 OFFCURVE",
"305 -12 OFFCURVE",
"306 -6 CURVE SMOOTH",
"363 263 LINE SMOOTH",
"364 269 OFFCURVE",
"365 275 OFFCURVE",
"365 281 CURVE SMOOTH",
"365 315 OFFCURVE",
"342 341 OFFCURVE",
"302 341 CURVE SMOOTH",
"296 341 LINE",
"296 359 LINE",
"305 359 LINE SMOOTH",
"352 359 OFFCURVE",
"390 392 OFFCURVE",
"400 437 CURVE SMOOTH",
"457 706 LINE SMOOTH",
"461 725 OFFCURVE",
"472 736 OFFCURVE",
"491 736 CURVE SMOOTH",
"584 736 LINE",
"584 856 LINE",
"465 856 LINE SMOOTH",
"405 856 OFFCURVE",
"354 814 OFFCURVE",
"341 754 CURVE SMOOTH",
"277 451 LINE",
"273 432 OFFCURVE",
"263 422 OFFCURVE",
"244 422 CURVE SMOOTH",
"162 422 LINE",
"162 278 LINE",
"212 278 LINE SMOOTH",
"228 278 OFFCURVE",
"235 270 OFFCURVE",
"235 258 CURVE",
"235 256 OFFCURVE",
"235 255 OFFCURVE",
"234 249 CURVE SMOOTH"
);
}
);
width = 612;
}
);
unicode = 007B;
},
{
glyphname = braceright;
lastChange = "2025-01-15 13:07:57 +0000";
layers = (
{
layerId = "CCBD71C2-CFAF-4DB2-A010-494EF6BDA443";
paths = (
{
closed = 1;
nodes = (
"314 267 LINE",
"318 286 OFFCURVE",
"328 296 OFFCURVE",
"347 296 CURVE SMOOTH",
"411 296 LINE",
"411 404 LINE",
"372 404 LINE SMOOTH",
"357 404 OFFCURVE",
"350 411 OFFCURVE",
"350 423 CURVE SMOOTH",
"350 426 OFFCURVE",
"350 428 OFFCURVE",
"351 433 CURVE SMOOTH",
"421 754 LINE SMOOTH",
"423 765 OFFCURVE",
"424 772 OFFCURVE",
"424 783 CURVE SMOOTH",
"424 834 OFFCURVE",
"388 856 OFFCURVE",
"340 856 CURVE SMOOTH",
"254 856 LINE",
"254 784 LINE",
"319 784 LINE SMOOTH",
"336 784 OFFCURVE",
"344 776 OFFCURVE",
"344 764 CURVE SMOOTH",
"344 761 OFFCURVE",
"344 760 OFFCURVE",
"343 755 CURVE SMOOTH",
"274 438 LINE SMOOTH",
"272 427 OFFCURVE",
"272 424 OFFCURVE",
"272 417 CURVE SMOOTH",
"272 379 OFFCURVE",
"297 356 OFFCURVE",
"333 356 CURVE SMOOTH",
"345 356 LINE",
"345 344 LINE",
"330 344 LINE SMOOTH",
"280 344 OFFCURVE",
"246 314 OFFCURVE",
"236 266 CURVE SMOOTH",
"166 -54 LINE SMOOTH",
"162 -74 OFFCURVE",
"152 -84 OFFCURVE",
"132 -84 CURVE SMOOTH",
"63 -84 LINE",
"63 -156 LINE",
"145 -156 LINE SMOOTH",
"198 -156 OFFCURVE",
"228 -128 OFFCURVE",
"239 -78 CURVE SMOOTH"
);
}
);
width = 612;
},
{
layerId = "8275915C-4C26-4DD7-A30E-5590CD7E6050";
paths = (
{
closed = 1;
nodes = (
"439 739 LINE SMOOTH",
"441 749 OFFCURVE",
"443 760 OFFCURVE",
"443 770 CURVE SMOOTH",
"443 825 OFFCURVE",
"405 856 OFFCURVE",
"345 856 CURVE SMOOTH",
"212 856 LINE",
"212 736 LINE",
"284 736 LINE SMOOTH",
"300 736 OFFCURVE",
"307 728 OFFCURVE",
"307 716 CURVE SMOOTH",
"307 713 OFFCURVE",
"307 712 OFFCURVE",
"306 706 CURVE SMOOTH",
"249 437 LINE SMOOTH",
"248 431 OFFCURVE",
"247 425 OFFCURVE",
"247 419 CURVE SMOOTH",
"247 385 OFFCURVE",
"270 359 OFFCURVE",
"310 359 CURVE SMOOTH",
"316 359 LINE",
"316 341 LINE",
"307 341 LINE SMOOTH",
"260 341 OFFCURVE",
"222 308 OFFCURVE",
"212 263 CURVE SMOOTH",
"155 -6 LINE SMOOTH",
"151 -25 OFFCURVE",
"140 -36 OFFCURVE",
"121 -36 CURVE SMOOTH",
"28 -36 LINE",
"28 -156 LINE",
"147 -156 LINE SMOOTH",
"207 -156 OFFCURVE",
"258 -114 OFFCURVE",
"271 -54 CURVE SMOOTH",
"335 249 LINE SMOOTH",
"339 268 OFFCURVE",
"349 278 OFFCURVE",
"368 278 CURVE SMOOTH",
"450 278 LINE",
"450 422 LINE",
"400 422 LINE SMOOTH",
"384 422 OFFCURVE",
"377 430 OFFCURVE",
"377 442 CURVE",
"377 444 OFFCURVE",
"377 445 OFFCURVE",
"378 451 CURVE SMOOTH"
);
}
);
width = 612;
}
);
unicode = 007D;
},
{
glyphname = parenleft;
lastChange = "2025-01-15 13:07:57 +0000";
layers = (
{
layerId = "CCBD71C2-CFAF-4DB2-A010-494EF6BDA443";
paths = (
{
closed = 1;
nodes = (
"377 -82 LINE SMOOTH",
"250 -82 OFFCURVE",
"157 -9 OFFCURVE",
"157 139 CURVE SMOOTH",
"157 166 OFFCURVE",
"160 196 OFFCURVE",
"167 228 CURVE SMOOTH",
"218 472 LINE SMOOTH",
"268 710 OFFCURVE",
"400 782 OFFCURVE",
"566 782 CURVE SMOOTH",
"612 782 LINE",
"612 856 LINE",
"574 856 LINE SMOOTH",
"352 856 OFFCURVE",
"201 756 OFFCURVE",
"145 494 CURVE SMOOTH",
"90 236 LINE SMOOTH",
"82 199 OFFCURVE",
"78 165 OFFCURVE",
"78 133 CURVE SMOOTH",
"78 -51 OFFCURVE",
"201 -156 OFFCURVE",
"361 -156 CURVE SMOOTH",
"413 -156 LINE",
"413 -82 LINE"
);
}
);
width = 612;
},
{
layerId = "8275915C-4C26-4DD7-A30E-5590CD7E6050";
paths = (
{
closed = 1;
nodes = (
"388 -30 LINE SMOOTH",
"307 -30 OFFCURVE",
"204 6 OFFCURVE",
"204 149 CURVE SMOOTH",
"204 172 OFFCURVE",
"207 199 OFFCURVE",
"213 228 CURVE SMOOTH",
"264 472 LINE SMOOTH",
"301 650 OFFCURVE",
"392 730 OFFCURVE",
"554 730 CURVE SMOOTH",
"612 730 LINE",
"612 856 LINE",
"568 856 LINE SMOOTH",
"346 856 OFFCURVE",
"195 758 OFFCURVE",
"139 494 CURVE SMOOTH",
"84 236 LINE SMOOTH",
"76 199 OFFCURVE",
"72 165 OFFCURVE",
"72 133 CURVE SMOOTH",
"72 -51 OFFCURVE",
"195 -156 OFFCURVE",
"355 -156 CURVE SMOOTH",
"436 -156 LINE",
"436 -30 LINE"
);
}
);
width = 612;
}
);
unicode = 0028;
},
{
glyphname = parenright;
lastChange = "2025-01-15 13:07:57 +0000";
layers = (
{
layerId = "CCBD71C2-CFAF-4DB2-A010-494EF6BDA443";
paths = (
{
closed = 1;
nodes = (
"235 782 LINE SMOOTH",
"362 782 OFFCURVE",
"455 709 OFFCURVE",
"455 561 CURVE SMOOTH",
"455 534 OFFCURVE",
"452 504 OFFCURVE",
"445 472 CURVE SMOOTH",
"394 228 LINE SMOOTH",
"344 -10 OFFCURVE",
"212 -82 OFFCURVE",
"46 -82 CURVE SMOOTH",
"0 -82 LINE",
"0 -156 LINE",
"38 -156 LINE SMOOTH",
"260 -156 OFFCURVE",
"411 -56 OFFCURVE",
"467 206 CURVE SMOOTH",
"522 464 LINE SMOOTH",
"530 501 OFFCURVE",
"534 535 OFFCURVE",
"534 567 CURVE SMOOTH",
"534 751 OFFCURVE",
"411 856 OFFCURVE",
"251 856 CURVE SMOOTH",
"199 856 LINE",
"199 782 LINE"
);
}
);
width = 612;
},
{
layerId = "8275915C-4C26-4DD7-A30E-5590CD7E6050";
paths = (
{
closed = 1;
nodes = (
"224 730 LINE SMOOTH",
"305 730 OFFCURVE",
"408 694 OFFCURVE",
"408 551 CURVE SMOOTH",
"408 528 OFFCURVE",
"405 501 OFFCURVE",
"399 472 CURVE SMOOTH",
"348 228 LINE SMOOTH",
"311 50 OFFCURVE",
"220 -30 OFFCURVE",
"58 -30 CURVE SMOOTH",
"0 -30 LINE",
"0 -156 LINE",
"44 -156 LINE SMOOTH",
"266 -156 OFFCURVE",
"417 -58 OFFCURVE",
"473 206 CURVE SMOOTH",
"528 464 LINE SMOOTH",
"536 501 OFFCURVE",
"540 535 OFFCURVE",
"540 567 CURVE SMOOTH",
"540 751 OFFCURVE",
"417 856 OFFCURVE",
"257 856 CURVE SMOOTH",
"176 856 LINE",
"176 730 LINE"
);
}
);
width = 612;
}
);
unicode = 0029;
},
{
glyphname = slash;
lastChange = "2025-01-15 13:07:57 +0000";
layers = (
{
layerId = "CCBD71C2-CFAF-4DB2-A010-494EF6BDA443";
paths = (
{
closed = 1;
nodes = (
"39 -71 LINE",
"99 -106 LINE",
"573 772 LINE",
"513 806 LINE"
);
}
);
width = 612;
},
{
associatedMasterId = "8275915C-4C26-4DD7-A30E-5590CD7E6050";
layerId = "EB36810E-1408-4C1A-80D8-F799493A5E9A";
name = img;
width = 612;
},
{
layerId = "8275915C-4C26-4DD7-A30E-5590CD7E6050";
paths = (
{
closed = 1;
nodes = (
"-6 -66 LINE",
"99 -125 LINE",
"618 766 LINE",
"514 825 LINE"
);
}
);
width = 612;
}
);
unicode = 002F;
},
{
glyphname = bar;
lastChange = "2025-01-15 13:07:57 +0000";
layers = (
{
layerId = "CCBD71C2-CFAF-4DB2-A010-494EF6BDA443";
paths = (
{
closed = 1;
nodes = (
"456 856 LINE",
"382 856 LINE",
"158 -156 LINE",
"232 -156 LINE"
);
}
);
width = 612;
},
{
associatedMasterId = "8275915C-4C26-4DD7-A30E-5590CD7E6050";
layerId = "F0C048F8-B5D5-4B86-856F-1AAE0876C6F1";
name = img;
width = 612;
},
{
layerId = "8275915C-4C26-4DD7-A30E-5590CD7E6050";
paths = (
{
closed = 1;
nodes = (
"477 856 LINE",
"357 856 LINE",
"142 -156 LINE",
"262 -156 LINE"
);
}
);
width = 612;
}
);
unicode = 007C;
},
{
glyphname = brokenbar;
lastChange = "2025-01-15 13:07:57 +0000";
layers = (
{
layerId = "CCBD71C2-CFAF-4DB2-A010-494EF6BDA443";
paths = (
{
closed = 1;
nodes = (
"262 314 LINE",
"158 -156 LINE",
"232 -156 LINE",
"336 314 LINE"
);
},
{
closed = 1;
nodes = (
"352 386 LINE",
"456 856 LINE",
"382 856 LINE",
"278 386 LINE"
);
}
);
width = 612;
},
{
associatedMasterId = "8275915C-4C26-4DD7-A30E-5590CD7E6050";
layerId = "4689FB04-7198-475C-AC0E-A40B2A6C898C";
name = img;
width = 612;
},
{
layerId = "8275915C-4C26-4DD7-A30E-5590CD7E6050";
paths = (
{
closed = 1;
nodes = (
"237 290 LINE",
"142 -156 LINE",
"262 -156 LINE",
"357 290 LINE"
);
},
{
closed = 1;
nodes = (
"382 410 LINE",
"477 856 LINE",
"357 856 LINE",
"262 410 LINE"
);
}
);
width = 612;
}
);
unicode = 00A6;
},
{
glyphname = backslash;
lastChange = "2025-01-15 13:07:57 +0000";
layers = (
{
layerId = "CCBD71C2-CFAF-4DB2-A010-494EF6BDA443";
paths = (
{
closed = 1;
nodes = (
"292 806 LINE",
"220 797 LINE",
"324 -106 LINE",
"397 -97 LINE"
);
}
);
width = 612;
},
{
layerId = "8275915C-4C26-4DD7-A30E-5590CD7E6050";
paths = (
{
closed = 1;
nodes = (
"315 825 LINE",
"196 813 LINE",
"296 -125 LINE",
"416 -113 LINE"
);
}
);
width = 612;
}
);
unicode = 005C;
},
{
glyphname = quotesingle;
lastChange = "2025-01-15 13:07:57 +0000";
layers = (
{
layerId = "CCBD71C2-CFAF-4DB2-A010-494EF6BDA443";
paths = (
{
closed = 1;
nodes = (
"292 620 OFFCURVE",
"305 598 OFFCURVE",
"324 585 CURVE",
"300 479 LINE",
"353 468 LINE",
"376 575 LINE",
"408 582 OFFCURVE",
"432 611 OFFCURVE",
"432 644 CURVE SMOOTH",
"432 682 OFFCURVE",
"400 714 OFFCURVE",
"362 714 CURVE SMOOTH",
"324 714 OFFCURVE",
"292 682 OFFCURVE",
"292 644 CURVE SMOOTH"
);
}
);
width = 612;
},
{
layerId = "8275915C-4C26-4DD7-A30E-5590CD7E6050";
paths = (
{
closed = 1;
nodes = (
"273 420 LINE",
"349 405 LINE",
"375 526 LINE",
"421 538 OFFCURVE",
"449 578 OFFCURVE",
"449 620 CURVE SMOOTH",
"449 672 OFFCURVE",
"407 714 OFFCURVE",
"355 714 CURVE SMOOTH",
"303 714 OFFCURVE",
"260 672 OFFCURVE",
"260 620 CURVE SMOOTH",
"260 589 OFFCURVE",
"276 560 OFFCURVE",
"300 542 CURVE"
);
}
);
width = 612;
}
);
unicode = 0027;
},
{
glyphname = quotedbl;
lastChange = "2025-01-15 13:07:57 +0000";
layers = (
{
layerId = "CCBD71C2-CFAF-4DB2-A010-494EF6BDA443";
paths = (
{
closed = 1;
nodes = (
"204 620 OFFCURVE",
"217 598 OFFCURVE",
"236 585 CURVE",
"212 479 LINE",
"265 468 LINE",
"288 575 LINE",
"320 582 OFFCURVE",
"344 611 OFFCURVE",
"344 644 CURVE SMOOTH",
"344 682 OFFCURVE",
"312 714 OFFCURVE",
"274 714 CURVE SMOOTH",
"236 714 OFFCURVE",
"204 682 OFFCURVE",
"204 644 CURVE SMOOTH"
);
},
{
closed = 1;
nodes = (
"386 620 OFFCURVE",
"399 598 OFFCURVE",
"418 585 CURVE",
"394 479 LINE",
"447 468 LINE",
"470 575 LINE",
"502 582 OFFCURVE",
"526 611 OFFCURVE",
"526 644 CURVE SMOOTH",
"526 682 OFFCURVE",
"494 714 OFFCURVE",
"456 714 CURVE SMOOTH",
"418 714 OFFCURVE",
"386 682 OFFCURVE",
"386 644 CURVE SMOOTH"
);
}
);
width = 612;
},
{
layerId = "8275915C-4C26-4DD7-A30E-5590CD7E6050";
paths = (
{
closed = 1;
nodes = (
"163 420 LINE",
"239 405 LINE",
"265 526 LINE",
"311 538 OFFCURVE",
"339 578 OFFCURVE",
"339 620 CURVE SMOOTH",
"339 672 OFFCURVE",
"297 714 OFFCURVE",
"245 714 CURVE SMOOTH",
"193 714 OFFCURVE",
"150 672 OFFCURVE",
"150 620 CURVE SMOOTH",
"150 589 OFFCURVE",
"166 560 OFFCURVE",
"190 542 CURVE"
);
},
{
closed = 1;
nodes = (
"388 420 LINE",
"464 405 LINE",
"490 526 LINE",
"536 538 OFFCURVE",
"564 578 OFFCURVE",
"564 620 CURVE SMOOTH",
"564 672 OFFCURVE",
"522 714 OFFCURVE",
"470 714 CURVE SMOOTH",
"418 714 OFFCURVE",
"375 672 OFFCURVE",
"375 620 CURVE SMOOTH",
"375 589 OFFCURVE",
"391 560 OFFCURVE",
"415 542 CURVE"
);
}
);
width = 612;
}
);
unicode = 0022;
},
{
glyphname = quoteleft;
lastChange = "2025-01-15 13:07:57 +0000";
layers = (
{
layerId = "CCBD71C2-CFAF-4DB2-A010-494EF6BDA443";
paths = (
{
closed = 1;
nodes = (
"418 576 OFFCURVE",
"386 608 OFFCURVE",
"348 608 CURVE SMOOTH",
"344 608 LINE",
"349 630 LINE SMOOTH",
"353 649 OFFCURVE",
"364 660 OFFCURVE",
"383 660 CURVE SMOOTH",
"442 660 LINE",
"442 714 LINE",
"390 714 LINE SMOOTH",
"338 714 OFFCURVE",
"307 686 OFFCURVE",
"297 636 CURVE SMOOTH",
"279 550 LINE SMOOTH",
"278 545 OFFCURVE",
"278 541 OFFCURVE",
"278 538 CURVE SMOOTH",
"278 500 OFFCURVE",
"310 468 OFFCURVE",
"348 468 CURVE SMOOTH",
"386 468 OFFCURVE",
"418 500 OFFCURVE",
"418 538 CURVE SMOOTH"
);
}
);
width = 612;
},
{
associatedMasterId = "8275915C-4C26-4DD7-A30E-5590CD7E6050";
layerId = "292D9565-D9B1-402C-A6B8-C3B8224B1BFE";
name = img;
width = 612;
},
{
layerId = "8275915C-4C26-4DD7-A30E-5590CD7E6050";
paths = (
{
closed = 1;
nodes = (
"430 564 OFFCURVE",
"384 592 OFFCURVE",
"338 592 CURVE",
"341 608 LINE SMOOTH",
"345 628 OFFCURVE",
"356 636 OFFCURVE",
"378 636 CURVE SMOOTH",
"448 636 LINE",
"448 714 LINE",
"372 714 LINE SMOOTH",
"318 714 OFFCURVE",
"278 691 OFFCURVE",
"267 641 CURVE SMOOTH",
"242 523 LINE SMOOTH",
"241 516 OFFCURVE",
"240 509 OFFCURVE",
"240 503 CURVE SMOOTH",
"240 450 OFFCURVE",
"283 408 OFFCURVE",
"335 408 CURVE SMOOTH",
"387 408 OFFCURVE",
"430 448 OFFCURVE",
"430 502 CURVE SMOOTH"
);
}
);
width = 612;
}
);
unicode = 2018;
},
{
glyphname = quoteright;
lastChange = "2025-01-15 13:07:57 +0000";
layers = (
{
layerId = "CCBD71C2-CFAF-4DB2-A010-494EF6BDA443";
paths = (
{
closed = 1;
nodes = (
"298 606 OFFCURVE",
"330 574 OFFCURVE",
"368 574 CURVE SMOOTH",
"372 574 LINE",
"367 552 LINE SMOOTH",
"363 533 OFFCURVE",
"352 522 OFFCURVE",
"333 522 CURVE SMOOTH",
"274 522 LINE",
"274 468 LINE",
"326 468 LINE SMOOTH",
"378 468 OFFCURVE",
"409 496 OFFCURVE",
"419 546 CURVE SMOOTH",
"437 632 LINE SMOOTH",
"438 637 OFFCURVE",
"438 641 OFFCURVE",
"438 644 CURVE SMOOTH",
"438 682 OFFCURVE",
"406 714 OFFCURVE",
"368 714 CURVE SMOOTH",
"330 714 OFFCURVE",
"298 682 OFFCURVE",
"298 644 CURVE SMOOTH"
);
}
);
width = 612;
},
{
layerId = "8275915C-4C26-4DD7-A30E-5590CD7E6050";
paths = (
{
closed = 1;
nodes = (
"258 558 OFFCURVE",
"304 530 OFFCURVE",
"350 530 CURVE",
"347 514 LINE SMOOTH",
"343 494 OFFCURVE",
"332 486 OFFCURVE",
"310 486 CURVE SMOOTH",
"240 486 LINE",
"240 408 LINE",
"316 408 LINE SMOOTH",
"370 408 OFFCURVE",
"410 431 OFFCURVE",
"421 481 CURVE SMOOTH",
"446 599 LINE SMOOTH",
"447 606 OFFCURVE",
"448 613 OFFCURVE",
"448 619 CURVE SMOOTH",
"448 672 OFFCURVE",
"405 714 OFFCURVE",
"353 714 CURVE SMOOTH",
"301 714 OFFCURVE",
"258 674 OFFCURVE",
"258 620 CURVE SMOOTH"
);
}
);
width = 612;
}
);
unicode = 2019;
},
{
glyphname = quotedblleft;
lastChange = "2025-01-15 13:07:57 +0000";
layers = (
{
layerId = "CCBD71C2-CFAF-4DB2-A010-494EF6BDA443";
paths = (
{
closed = 1;
nodes = (
"332 576 OFFCURVE",
"300 608 OFFCURVE",
"262 608 CURVE SMOOTH",
"258 608 LINE",
"263 630 LINE SMOOTH",
"267 649 OFFCURVE",
"278 660 OFFCURVE",
"297 660 CURVE SMOOTH",
"356 660 LINE",
"356 714 LINE",
"304 714 LINE SMOOTH",
"252 714 OFFCURVE",
"221 686 OFFCURVE",
"211 636 CURVE SMOOTH",
"193 550 LINE SMOOTH",
"192 545 OFFCURVE",
"192 541 OFFCURVE",
"192 538 CURVE SMOOTH",
"192 500 OFFCURVE",
"224 468 OFFCURVE",
"262 468 CURVE SMOOTH",
"300 468 OFFCURVE",
"332 500 OFFCURVE",
"332 538 CURVE SMOOTH"
);
},
{
closed = 1;
nodes = (
"514 576 OFFCURVE",
"482 608 OFFCURVE",
"444 608 CURVE SMOOTH",
"440 608 LINE",
"445 630 LINE SMOOTH",
"449 649 OFFCURVE",
"460 660 OFFCURVE",
"479 660 CURVE SMOOTH",
"538 660 LINE",
"538 714 LINE",
"486 714 LINE SMOOTH",
"434 714 OFFCURVE",
"403 686 OFFCURVE",
"393 636 CURVE SMOOTH",
"375 550 LINE SMOOTH",
"374 545 OFFCURVE",
"374 541 OFFCURVE",
"374 538 CURVE SMOOTH",
"374 500 OFFCURVE",
"406 468 OFFCURVE",
"444 468 CURVE SMOOTH",
"482 468 OFFCURVE",
"514 500 OFFCURVE",
"514 538 CURVE SMOOTH"
);
}
);
width = 612;
},
{
layerId = "8275915C-4C26-4DD7-A30E-5590CD7E6050";
paths = (
{
closed = 1;
nodes = (
"548 564 OFFCURVE",
"502 592 OFFCURVE",
"456 592 CURVE",
"459 608 LINE SMOOTH",
"463 628 OFFCURVE",
"474 636 OFFCURVE",
"496 636 CURVE SMOOTH",
"566 636 LINE",
"566 714 LINE",
"490 714 LINE SMOOTH",
"436 714 OFFCURVE",
"396 691 OFFCURVE",
"385 641 CURVE SMOOTH",
"360 523 LINE SMOOTH",
"359 516 OFFCURVE",
"358 509 OFFCURVE",
"358 503 CURVE SMOOTH",
"358 450 OFFCURVE",
"401 408 OFFCURVE",
"453 408 CURVE SMOOTH",
"505 408 OFFCURVE",
"548 448 OFFCURVE",
"548 502 CURVE SMOOTH"
);
},
{
closed = 1;
nodes = (
"322 564 OFFCURVE",
"276 592 OFFCURVE",
"230 592 CURVE",
"233 608 LINE SMOOTH",
"237 628 OFFCURVE",
"248 636 OFFCURVE",
"270 636 CURVE SMOOTH",
"340 636 LINE",
"340 714 LINE",
"264 714 LINE SMOOTH",
"210 714 OFFCURVE",
"170 691 OFFCURVE",
"159 641 CURVE SMOOTH",
"134 523 LINE SMOOTH",
"133 516 OFFCURVE",
"132 509 OFFCURVE",
"132 503 CURVE SMOOTH",
"132 450 OFFCURVE",
"175 408 OFFCURVE",
"227 408 CURVE SMOOTH",
"279 408 OFFCURVE",
"322 448 OFFCURVE",
"322 502 CURVE SMOOTH"
);
}
);
width = 612;
}
);
unicode = 201C;
},
{
glyphname = quotedblright;
lastChange = "2025-01-15 13:07:57 +0000";
layers = (
{
layerId = "CCBD71C2-CFAF-4DB2-A010-494EF6BDA443";
paths = (
{
closed = 1;
nodes = (
"210 606 OFFCURVE",
"242 574 OFFCURVE",
"280 574 CURVE SMOOTH",
"284 574 LINE",
"279 552 LINE SMOOTH",
"275 533 OFFCURVE",
"264 522 OFFCURVE",
"245 522 CURVE SMOOTH",
"186 522 LINE",
"186 468 LINE",
"238 468 LINE SMOOTH",
"290 468 OFFCURVE",
"321 496 OFFCURVE",
"331 546 CURVE SMOOTH",
"349 632 LINE SMOOTH",
"350 637 OFFCURVE",
"350 641 OFFCURVE",
"350 644 CURVE SMOOTH",
"350 682 OFFCURVE",
"318 714 OFFCURVE",
"280 714 CURVE SMOOTH",
"242 714 OFFCURVE",
"210 682 OFFCURVE",
"210 644 CURVE SMOOTH"
);
},
{
closed = 1;
nodes = (
"392 606 OFFCURVE",
"424 574 OFFCURVE",
"462 574 CURVE SMOOTH",
"466 574 LINE",
"461 552 LINE SMOOTH",
"457 533 OFFCURVE",
"446 522 OFFCURVE",
"427 522 CURVE SMOOTH",
"368 522 LINE",
"368 468 LINE",
"420 468 LINE SMOOTH",
"472 468 OFFCURVE",
"503 496 OFFCURVE",
"513 546 CURVE SMOOTH",
"531 632 LINE SMOOTH",
"532 637 OFFCURVE",
"532 641 OFFCURVE",
"532 644 CURVE SMOOTH",
"532 682 OFFCURVE",
"500 714 OFFCURVE",
"462 714 CURVE SMOOTH",
"424 714 OFFCURVE",
"392 682 OFFCURVE",
"392 644 CURVE SMOOTH"
);
}
);
width = 612;
},
{
layerId = "8275915C-4C26-4DD7-A30E-5590CD7E6050";
paths = (
{
closed = 1;
nodes = (
"148 558 OFFCURVE",
"194 530 OFFCURVE",
"240 530 CURVE",
"237 514 LINE SMOOTH",
"233 494 OFFCURVE",
"222 486 OFFCURVE",
"200 486 CURVE SMOOTH",
"130 486 LINE",
"130 408 LINE",
"206 408 LINE SMOOTH",
"260 408 OFFCURVE",
"300 431 OFFCURVE",
"311 481 CURVE SMOOTH",
"336 599 LINE SMOOTH",
"337 606 OFFCURVE",
"338 613 OFFCURVE",
"338 619 CURVE SMOOTH",
"338 672 OFFCURVE",
"295 714 OFFCURVE",
"243 714 CURVE SMOOTH",
"191 714 OFFCURVE",
"148 674 OFFCURVE",
"148 620 CURVE SMOOTH"
);
},
{
closed = 1;
nodes = (
"374 558 OFFCURVE",
"420 530 OFFCURVE",
"466 530 CURVE",
"463 514 LINE SMOOTH",
"459 494 OFFCURVE",
"448 486 OFFCURVE",
"426 486 CURVE SMOOTH",
"356 486 LINE",
"356 408 LINE",
"432 408 LINE SMOOTH",
"486 408 OFFCURVE",
"526 431 OFFCURVE",
"537 481 CURVE SMOOTH",
"562 599 LINE SMOOTH",
"563 606 OFFCURVE",
"564 613 OFFCURVE",
"564 619 CURVE SMOOTH",
"564 672 OFFCURVE",
"521 714 OFFCURVE",
"469 714 CURVE SMOOTH",
"417 714 OFFCURVE",
"374 674 OFFCURVE",
"374 620 CURVE SMOOTH"
);
}
);
width = 612;
}
);
unicode = 201D;
},
{
glyphname = quotesinglbase;
lastChange = "2025-01-15 13:07:57 +0000";
layers = (
{
layerId = "CCBD71C2-CFAF-4DB2-A010-494EF6BDA443";
paths = (
{
closed = 1;
nodes = (
"198 32 OFFCURVE",
"230 0 OFFCURVE",
"268 0 CURVE SMOOTH",
"272 0 LINE",
"267 -22 LINE SMOOTH",
"263 -41 OFFCURVE",
"252 -52 OFFCURVE",
"233 -52 CURVE SMOOTH",
"174 -52 LINE",
"174 -106 LINE",
"226 -106 LINE SMOOTH",
"278 -106 OFFCURVE",
"309 -78 OFFCURVE",
"319 -28 CURVE SMOOTH",
"337 58 LINE SMOOTH",
"338 63 OFFCURVE",
"338 67 OFFCURVE",
"338 70 CURVE SMOOTH",
"338 108 OFFCURVE",
"306 140 OFFCURVE",
"268 140 CURVE SMOOTH",
"230 140 OFFCURVE",
"198 108 OFFCURVE",
"198 70 CURVE SMOOTH"
);
}
);
width = 612;
},
{
associatedMasterId = "8275915C-4C26-4DD7-A30E-5590CD7E6050";
layerId = "264E1234-2766-4720-B4F3-12CD975F8F01";
name = img;
width = 612;
},
{
layerId = "8275915C-4C26-4DD7-A30E-5590CD7E6050";
paths = (
{
closed = 1;
nodes = (
"182 33 OFFCURVE",
"228 5 OFFCURVE",
"274 5 CURVE",
"271 -11 LINE SMOOTH",
"267 -31 OFFCURVE",
"256 -39 OFFCURVE",
"234 -39 CURVE SMOOTH",
"164 -39 LINE",
"164 -117 LINE",
"240 -117 LINE SMOOTH",
"294 -117 OFFCURVE",
"334 -94 OFFCURVE",
"345 -44 CURVE SMOOTH",
"370 74 LINE SMOOTH",
"371 81 OFFCURVE",
"372 88 OFFCURVE",
"372 94 CURVE SMOOTH",
"372 147 OFFCURVE",
"329 189 OFFCURVE",
"277 189 CURVE SMOOTH",
"225 189 OFFCURVE",
"182 149 OFFCURVE",
"182 95 CURVE SMOOTH"
);
}
);
width = 612;
}
);
unicode = 201A;
},
{
glyphname = quotedblbase;
lastChange = "2025-01-15 13:07:57 +0000";
layers = (
{
layerId = "CCBD71C2-CFAF-4DB2-A010-494EF6BDA443";
paths = (
{
closed = 1;
nodes = (
"90 32 OFFCURVE",
"122 0 OFFCURVE",
"160 0 CURVE SMOOTH",
"164 0 LINE",
"159 -22 LINE SMOOTH",
"155 -41 OFFCURVE",
"144 -52 OFFCURVE",
"125 -52 CURVE SMOOTH",
"66 -52 LINE",
"66 -106 LINE",
"118 -106 LINE SMOOTH",
"170 -106 OFFCURVE",
"201 -78 OFFCURVE",
"211 -28 CURVE SMOOTH",
"229 58 LINE SMOOTH",
"230 63 OFFCURVE",
"230 67 OFFCURVE",
"230 70 CURVE SMOOTH",
"230 108 OFFCURVE",
"198 140 OFFCURVE",
"160 140 CURVE SMOOTH",
"122 140 OFFCURVE",
"90 108 OFFCURVE",
"90 70 CURVE SMOOTH"
);
},
{
closed = 1;
nodes = (
"272 32 OFFCURVE",
"304 0 OFFCURVE",
"342 0 CURVE SMOOTH",
"346 0 LINE",
"341 -22 LINE SMOOTH",
"337 -41 OFFCURVE",
"326 -52 OFFCURVE",
"307 -52 CURVE SMOOTH",
"248 -52 LINE",
"248 -106 LINE",
"300 -106 LINE SMOOTH",
"352 -106 OFFCURVE",
"383 -78 OFFCURVE",
"393 -28 CURVE SMOOTH",
"411 58 LINE SMOOTH",
"412 63 OFFCURVE",
"412 67 OFFCURVE",
"412 70 CURVE SMOOTH",
"412 108 OFFCURVE",
"380 140 OFFCURVE",
"342 140 CURVE SMOOTH",
"304 140 OFFCURVE",
"272 108 OFFCURVE",
"272 70 CURVE SMOOTH"
);
}
);
width = 612;
},
{
layerId = "8275915C-4C26-4DD7-A30E-5590CD7E6050";
paths = (
{
closed = 1;
nodes = (
"54 33 OFFCURVE",
"100 5 OFFCURVE",
"146 5 CURVE",
"143 -11 LINE SMOOTH",
"139 -31 OFFCURVE",
"128 -39 OFFCURVE",
"106 -39 CURVE SMOOTH",
"36 -39 LINE",
"36 -117 LINE",
"112 -117 LINE SMOOTH",
"166 -117 OFFCURVE",
"206 -94 OFFCURVE",
"217 -44 CURVE SMOOTH",
"242 74 LINE SMOOTH",
"243 81 OFFCURVE",
"244 88 OFFCURVE",
"244 94 CURVE SMOOTH",
"244 147 OFFCURVE",
"201 189 OFFCURVE",
"149 189 CURVE SMOOTH",
"97 189 OFFCURVE",
"54 149 OFFCURVE",
"54 95 CURVE SMOOTH"
);
},
{
closed = 1;
nodes = (
"280 33 OFFCURVE",
"326 5 OFFCURVE",
"372 5 CURVE",
"369 -11 LINE SMOOTH",
"365 -31 OFFCURVE",
"354 -39 OFFCURVE",
"332 -39 CURVE SMOOTH",
"262 -39 LINE",
"262 -117 LINE",
"338 -117 LINE SMOOTH",
"392 -117 OFFCURVE",
"432 -94 OFFCURVE",
"443 -44 CURVE SMOOTH",
"468 74 LINE SMOOTH",
"469 81 OFFCURVE",
"470 88 OFFCURVE",
"470 94 CURVE SMOOTH",
"470 147 OFFCURVE",
"427 189 OFFCURVE",
"375 189 CURVE SMOOTH",
"323 189 OFFCURVE",
"280 149 OFFCURVE",
"280 95 CURVE SMOOTH"
);
}
);
width = 612;
}
);
unicode = 201E;
},
{
glyphname = period;
lastChange = "2025-01-15 13:07:57 +0000";
layers = (
{
layerId = "CCBD71C2-CFAF-4DB2-A010-494EF6BDA443";
paths = (
{
closed = 1;
nodes = (
"186 18 OFFCURVE",
"218 -14 OFFCURVE",
"256 -14 CURVE SMOOTH",
"294 -14 OFFCURVE",
"326 18 OFFCURVE",
"326 56 CURVE SMOOTH",
"326 94 OFFCURVE",
"294 126 OFFCURVE",
"256 126 CURVE SMOOTH",
"218 126 OFFCURVE",
"186 94 OFFCURVE",
"186 56 CURVE SMOOTH"
);
}
);
width = 612;
},
{
layerId = "8275915C-4C26-4DD7-A30E-5590CD7E6050";
paths = (
{
closed = 1;
nodes = (
"401 134 OFFCURVE",
"358 176 OFFCURVE",
"306 176 CURVE SMOOTH",
"254 176 OFFCURVE",
"211 134 OFFCURVE",
"211 81 CURVE SMOOTH",
"211 28 OFFCURVE",
"254 -14 OFFCURVE",
"306 -14 CURVE SMOOTH",
"358 -14 OFFCURVE",
"401 28 OFFCURVE",
"401 81 CURVE SMOOTH"
);
}
);
width = 612;
}
);
unicode = 002E;
},
{
glyphname = comma;
lastChange = "2025-01-15 13:07:57 +0000";
layers = (
{
layerId = "CCBD71C2-CFAF-4DB2-A010-494EF6BDA443";
paths = (
{
closed = 1;
nodes = (
"192 18 OFFCURVE",
"224 -14 OFFCURVE",
"262 -14 CURVE SMOOTH",
"266 -14 LINE",
"261 -36 LINE SMOOTH",
"257 -55 OFFCURVE",
"246 -66 OFFCURVE",
"227 -66 CURVE SMOOTH",
"168 -66 LINE",
"168 -120 LINE",
"220 -120 LINE SMOOTH",
"272 -120 OFFCURVE",
"303 -92 OFFCURVE",
"313 -42 CURVE SMOOTH",
"331 44 LINE SMOOTH",
"332 49 OFFCURVE",
"332 53 OFFCURVE",
"332 56 CURVE SMOOTH",
"332 94 OFFCURVE",
"300 126 OFFCURVE",
"262 126 CURVE SMOOTH",
"224 126 OFFCURVE",
"192 94 OFFCURVE",
"192 56 CURVE SMOOTH"
);
}
);
width = 612;
},
{
layerId = "8275915C-4C26-4DD7-A30E-5590CD7E6050";
paths = (
{
closed = 1;
nodes = (
"174 22 OFFCURVE",
"221 -8 OFFCURVE",
"266 -8 CURVE",
"263 -25 LINE SMOOTH",
"259 -45 OFFCURVE",
"248 -53 OFFCURVE",
"226 -53 CURVE SMOOTH",
"150 -53 LINE",
"150 -131 LINE",
"232 -131 LINE SMOOTH",
"286 -131 OFFCURVE",
"326 -108 OFFCURVE",
"337 -58 CURVE SMOOTH",
"362 61 LINE SMOOTH",
"363 68 OFFCURVE",
"364 75 OFFCURVE",
"364 81 CURVE SMOOTH",
"364 134 OFFCURVE",
"321 176 OFFCURVE",
"269 176 CURVE SMOOTH",
"217 176 OFFCURVE",
"174 136 OFFCURVE",
"174 82 CURVE SMOOTH"
);
}
);
width = 612;
}
);
unicode = 002C;
},
{
glyphname = colon;
lastChange = "2025-01-15 13:07:57 +0000";
layers = (
{
layerId = "CCBD71C2-CFAF-4DB2-A010-494EF6BDA443";
paths = (
{
closed = 1;
nodes = (
"178 18 OFFCURVE",
"210 -14 OFFCURVE",
"248 -14 CURVE SMOOTH",
"286 -14 OFFCURVE",
"318 18 OFFCURVE",
"318 56 CURVE SMOOTH",
"318 94 OFFCURVE",
"286 126 OFFCURVE",
"248 126 CURVE SMOOTH",
"210 126 OFFCURVE",
"178 94 OFFCURVE",
"178 56 CURVE SMOOTH"
);
},
{
closed = 1;
nodes = (
"262 402 OFFCURVE",
"294 370 OFFCURVE",
"332 370 CURVE SMOOTH",
"370 370 OFFCURVE",
"402 402 OFFCURVE",
"402 440 CURVE SMOOTH",
"402 478 OFFCURVE",
"370 510 OFFCURVE",
"332 510 CURVE SMOOTH",
"294 510 OFFCURVE",
"262 478 OFFCURVE",
"262 440 CURVE SMOOTH"
);
}
);
width = 612;
},
{
associatedMasterId = "8275915C-4C26-4DD7-A30E-5590CD7E6050";
layerId = "58C3A885-CD2D-451C-AA27-274540A3E579";
name = img;
width = 612;
},
{
layerId = "8275915C-4C26-4DD7-A30E-5590CD7E6050";
paths = (
{
closed = 1;
nodes = (
"354 134 OFFCURVE",
"311 176 OFFCURVE",
"259 176 CURVE SMOOTH",
"207 176 OFFCURVE",
"164 134 OFFCURVE",
"164 81 CURVE SMOOTH",
"164 28 OFFCURVE",
"207 -14 OFFCURVE",
"259 -14 CURVE SMOOTH",
"311 -14 OFFCURVE",
"354 28 OFFCURVE",
"354 81 CURVE SMOOTH"
);
},
{
closed = 1;
nodes = (
"420 468 OFFCURVE",
"377 510 OFFCURVE",
"325 510 CURVE SMOOTH",
"273 510 OFFCURVE",
"230 468 OFFCURVE",
"230 415 CURVE SMOOTH",
"230 362 OFFCURVE",
"273 320 OFFCURVE",
"325 320 CURVE SMOOTH",
"377 320 OFFCURVE",
"420 362 OFFCURVE",
"420 415 CURVE SMOOTH"
);
}
);
width = 612;
}
);
unicode = 003A;
},
{
glyphname = semicolon;
lastChange = "2025-01-15 13:07:57 +0000";
layers = (
{
layerId = "CCBD71C2-CFAF-4DB2-A010-494EF6BDA443";
paths = (
{
closed = 1;
nodes = (
"262 402 OFFCURVE",
"294 370 OFFCURVE",
"332 370 CURVE SMOOTH",
"370 370 OFFCURVE",
"402 402 OFFCURVE",
"402 440 CURVE SMOOTH",
"402 478 OFFCURVE",
"370 510 OFFCURVE",
"332 510 CURVE SMOOTH",
"294 510 OFFCURVE",
"262 478 OFFCURVE",
"262 440 CURVE SMOOTH"
);
},
{
closed = 1;
nodes = (
"178 18 OFFCURVE",
"210 -14 OFFCURVE",
"248 -14 CURVE SMOOTH",
"252 -14 LINE",
"247 -36 LINE SMOOTH",
"243 -55 OFFCURVE",
"232 -66 OFFCURVE",
"213 -66 CURVE SMOOTH",
"154 -66 LINE",
"154 -120 LINE",
"206 -120 LINE SMOOTH",
"258 -120 OFFCURVE",
"289 -92 OFFCURVE",
"299 -42 CURVE SMOOTH",
"317 44 LINE SMOOTH",
"318 49 OFFCURVE",
"318 53 OFFCURVE",
"318 56 CURVE SMOOTH",
"318 94 OFFCURVE",
"286 126 OFFCURVE",
"248 126 CURVE SMOOTH",
"210 126 OFFCURVE",
"178 94 OFFCURVE",
"178 56 CURVE SMOOTH"
);
}
);
width = 612;
},
{
layerId = "8275915C-4C26-4DD7-A30E-5590CD7E6050";
paths = (
{
closed = 1;
nodes = (
"420 468 OFFCURVE",
"377 510 OFFCURVE",
"325 510 CURVE SMOOTH",
"273 510 OFFCURVE",
"230 468 OFFCURVE",
"230 415 CURVE SMOOTH",
"230 362 OFFCURVE",
"273 320 OFFCURVE",
"325 320 CURVE SMOOTH",
"377 320 OFFCURVE",
"420 362 OFFCURVE",
"420 415 CURVE SMOOTH"
);
},
{
closed = 1;
nodes = (
"164 22 OFFCURVE",
"211 -8 OFFCURVE",
"256 -8 CURVE",
"253 -25 LINE SMOOTH",
"249 -45 OFFCURVE",
"238 -53 OFFCURVE",
"216 -53 CURVE SMOOTH",
"140 -53 LINE",
"140 -131 LINE",
"222 -131 LINE SMOOTH",
"276 -131 OFFCURVE",
"316 -108 OFFCURVE",
"327 -58 CURVE SMOOTH",
"352 61 LINE SMOOTH",
"353 68 OFFCURVE",
"354 75 OFFCURVE",
"354 81 CURVE SMOOTH",
"354 134 OFFCURVE",
"311 176 OFFCURVE",
"259 176 CURVE SMOOTH",
"207 176 OFFCURVE",
"164 136 OFFCURVE",
"164 82 CURVE SMOOTH"
);
}
);
width = 612;
}
);
unicode = 003B;
},
{
glyphname = ellipsis;
lastChange = "2025-01-15 13:07:57 +0000";
layers = (
{
layerId = "CCBD71C2-CFAF-4DB2-A010-494EF6BDA443";
paths = (
{
closed = 1;
nodes = (
"60 18 OFFCURVE",
"92 -14 OFFCURVE",
"130 -14 CURVE SMOOTH",
"168 -14 OFFCURVE",
"200 18 OFFCURVE",
"200 56 CURVE SMOOTH",
"200 94 OFFCURVE",
"168 126 OFFCURVE",
"130 126 CURVE SMOOTH",
"92 126 OFFCURVE",
"60 94 OFFCURVE",
"60 56 CURVE SMOOTH"
);
},
{
closed = 1;
nodes = (
"236 18 OFFCURVE",
"268 -14 OFFCURVE",
"306 -14 CURVE SMOOTH",
"344 -14 OFFCURVE",
"376 18 OFFCURVE",
"376 56 CURVE SMOOTH",
"376 94 OFFCURVE",
"344 126 OFFCURVE",
"306 126 CURVE SMOOTH",
"268 126 OFFCURVE",
"236 94 OFFCURVE",
"236 56 CURVE SMOOTH"
);
},
{
closed = 1;
nodes = (
"412 18 OFFCURVE",
"444 -14 OFFCURVE",
"482 -14 CURVE SMOOTH",
"520 -14 OFFCURVE",
"552 18 OFFCURVE",
"552 56 CURVE SMOOTH",
"552 94 OFFCURVE",
"520 126 OFFCURVE",
"482 126 CURVE SMOOTH",
"444 126 OFFCURVE",
"412 94 OFFCURVE",
"412 56 CURVE SMOOTH"
);
}
);
width = 612;
},
{
associatedMasterId = "8275915C-4C26-4DD7-A30E-5590CD7E6050";
layerId = "A4B9BCF9-CCFB-4AE6-AEDB-A2D53FB19DDF";
name = img;
width = 612;
},
{
layerId = "8275915C-4C26-4DD7-A30E-5590CD7E6050";
paths = (
{
closed = 1;
nodes = (
"591 134 OFFCURVE",
"548 176 OFFCURVE",
"496 176 CURVE SMOOTH",
"444 176 OFFCURVE",
"401 134 OFFCURVE",
"401 81 CURVE SMOOTH",
"401 28 OFFCURVE",
"444 -14 OFFCURVE",
"496 -14 CURVE SMOOTH",
"548 -14 OFFCURVE",
"591 28 OFFCURVE",
"591 81 CURVE SMOOTH"
);
},
{
closed = 1;
nodes = (
"401 134 OFFCURVE",
"358 176 OFFCURVE",
"306 176 CURVE SMOOTH",
"254 176 OFFCURVE",
"211 134 OFFCURVE",
"211 81 CURVE SMOOTH",
"211 134 OFFCURVE",
"168 176 OFFCURVE",
"116 176 CURVE SMOOTH",
"64 176 OFFCURVE",
"21 134 OFFCURVE",
"21 81 CURVE SMOOTH",
"21 28 OFFCURVE",
"64 -14 OFFCURVE",
"116 -14 CURVE SMOOTH",
"168 -14 OFFCURVE",
"211 28 OFFCURVE",
"211 81 CURVE SMOOTH",
"211 28 OFFCURVE",
"254 -14 OFFCURVE",
"306 -14 CURVE SMOOTH",
"358 -14 OFFCURVE",
"401 28 OFFCURVE",
"401 81 CURVE SMOOTH"
);
}
);
width = 612;
}
);
unicode = 2026;
},
{
glyphname = exclam;
lastChange = "2025-01-15 13:07:57 +0000";
layers = (
{
layerId = "CCBD71C2-CFAF-4DB2-A010-494EF6BDA443";
paths = (
{
closed = 1;
nodes = (
"342 700 LINE",
"231 186 LINE",
"311 186 LINE",
"422 700 LINE"
);
},
{
closed = 1;
nodes = (
"175 18 OFFCURVE",
"207 -14 OFFCURVE",
"245 -14 CURVE SMOOTH",
"283 -14 OFFCURVE",
"315 18 OFFCURVE",
"315 56 CURVE SMOOTH",
"315 94 OFFCURVE",
"283 126 OFFCURVE",
"245 126 CURVE SMOOTH",
"207 126 OFFCURVE",
"175 94 OFFCURVE",
"175 56 CURVE SMOOTH"
);
}
);
width = 612;
},
{
associatedMasterId = "8275915C-4C26-4DD7-A30E-5590CD7E6050";
layerId = "9EE3F8F3-EC74-48D2-B099-E82A6F1944F8";
name = img;
width = 612;
},
{
layerId = "8275915C-4C26-4DD7-A30E-5590CD7E6050";
paths = (
{
closed = 1;
nodes = (
"322 700 LINE",
"218 218 LINE",
"350 218 LINE",
"454 700 LINE"
);
},
{
closed = 1;
nodes = (
"356 134 OFFCURVE",
"313 176 OFFCURVE",
"261 176 CURVE SMOOTH",
"209 176 OFFCURVE",
"166 134 OFFCURVE",
"166 81 CURVE SMOOTH",
"166 28 OFFCURVE",
"209 -14 OFFCURVE",
"261 -14 CURVE SMOOTH",
"313 -14 OFFCURVE",
"356 28 OFFCURVE",
"356 81 CURVE SMOOTH"
);
}
);
width = 612;
}
);
unicode = 0021;
},
{
glyphname = exclamdown;
lastChange = "2025-01-15 13:07:57 +0000";
layers = (
{
associatedMasterId = "CCBD71C2-CFAF-4DB2-A010-494EF6BDA443";
layerId = "B5F68FDA-8C9D-4654-935C-D86EAB7081E6";
name = img;
width = 612;
},
{
layerId = "CCBD71C2-CFAF-4DB2-A010-494EF6BDA443";
paths = (
{
closed = 1;
nodes = (
"234 -200 LINE",
"351 314 LINE",
"271 314 LINE",
"154 -200 LINE"
);
},
{
closed = 1;
nodes = (
"407 482 OFFCURVE",
"375 514 OFFCURVE",
"337 514 CURVE SMOOTH",
"299 514 OFFCURVE",
"267 482 OFFCURVE",
"267 444 CURVE SMOOTH",
"267 406 OFFCURVE",
"299 374 OFFCURVE",
"337 374 CURVE SMOOTH",
"375 374 OFFCURVE",
"407 406 OFFCURVE",
"407 444 CURVE"
);
}
);
width = 612;
},
{
associatedMasterId = "8275915C-4C26-4DD7-A30E-5590CD7E6050";
layerId = "BB1D4510-11FB-4454-9F4A-84B920EF20D0";
name = img;
width = 612;
},
{
layerId = "8275915C-4C26-4DD7-A30E-5590CD7E6050";
paths = (
{
closed = 1;
nodes = (
"266 -200 LINE",
"370 282 LINE",
"238 282 LINE",
"134 -200 LINE"
);
},
{
closed = 1;
nodes = (
"232 366 OFFCURVE",
"275 324 OFFCURVE",
"327 324 CURVE SMOOTH",
"379 324 OFFCURVE",
"422 366 OFFCURVE",
"422 419 CURVE SMOOTH",
"422 472 OFFCURVE",
"379 514 OFFCURVE",
"327 514 CURVE SMOOTH",
"275 514 OFFCURVE",
"232 472 OFFCURVE",
"232 419 CURVE SMOOTH"
);
}
);
width = 612;
}
);
unicode = 00A1;
},
{
glyphname = question;
lastChange = "2025-01-15 13:07:57 +0000";
layers = (
{
layerId = "CCBD71C2-CFAF-4DB2-A010-494EF6BDA443";
paths = (
{
closed = 1;
nodes = (
"330 366 LINE SMOOTH",
"272 366 OFFCURVE",
"236 334 OFFCURVE",
"225 280 CURVE SMOOTH",
"205 186 LINE",
"285 186 LINE",
"300 260 LINE SMOOTH",
"304 280 OFFCURVE",
"316 290 OFFCURVE",
"336 290 CURVE SMOOTH",
"348 290 LINE SMOOTH",
"494 290 OFFCURVE",
"576 413 OFFCURVE",
"576 527 CURVE SMOOTH",
"576 633 OFFCURVE",
"494 714 OFFCURVE",
"370 714 CURVE SMOOTH",
"224 714 OFFCURVE",
"130 624 OFFCURVE",
"100 482 CURVE SMOOTH",
"90 434 LINE",
"174 434 LINE",
"183 476 LINE SMOOTH",
"204 576 OFFCURVE",
"270 636 OFFCURVE",
"360 636 CURVE SMOOTH",
"444 636 OFFCURVE",
"489 584 OFFCURVE",
"489 519 CURVE SMOOTH",
"489 438 OFFCURVE",
"437 366 OFFCURVE",
"354 366 CURVE SMOOTH"
);
},
{
closed = 1;
nodes = (
"150 18 OFFCURVE",
"182 -14 OFFCURVE",
"220 -14 CURVE SMOOTH",
"258 -14 OFFCURVE",
"290 18 OFFCURVE",
"290 56 CURVE SMOOTH",
"290 94 OFFCURVE",
"258 126 OFFCURVE",
"220 126 CURVE SMOOTH",
"182 126 OFFCURVE",
"150 94 OFFCURVE",
"150 56 CURVE SMOOTH"
);
}
);
width = 612;
},
{
layerId = "8275915C-4C26-4DD7-A30E-5590CD7E6050";
paths = (
{
closed = 1;
nodes = (
"312 390 LINE SMOOTH",
"254 390 OFFCURVE",
"213 354 OFFCURVE",
"201 298 CURVE SMOOTH",
"184 218 LINE",
"310 218 LINE",
"316 244 LINE",
"320 264 OFFCURVE",
"332 275 OFFCURVE",
"354 275 CURVE SMOOTH",
"494 275 OFFCURVE",
"582 400 OFFCURVE",
"582 520 CURVE SMOOTH",
"582 626 OFFCURVE",
"498 714 OFFCURVE",
"370 714 CURVE SMOOTH",
"212 714 OFFCURVE",
"119 620 OFFCURVE",
"90 482 CURVE SMOOTH",
"80 434 LINE",
"212 434 LINE",
"219 470 LINE SMOOTH",
"231 534 OFFCURVE",
"280 588 OFFCURVE",
"354 588 CURVE SMOOTH",
"414 588 OFFCURVE",
"447 552 OFFCURVE",
"447 508 CURVE SMOOTH",
"447 442 OFFCURVE",
"404 390 OFFCURVE",
"334 390 CURVE SMOOTH"
);
},
{
closed = 1;
nodes = (
"324 134 OFFCURVE",
"281 176 OFFCURVE",
"229 176 CURVE SMOOTH",
"177 176 OFFCURVE",
"134 134 OFFCURVE",
"134 81 CURVE SMOOTH",
"134 28 OFFCURVE",
"177 -14 OFFCURVE",
"229 -14 CURVE SMOOTH",
"281 -14 OFFCURVE",
"324 28 OFFCURVE",
"324 81 CURVE SMOOTH"
);
}
);
width = 612;
}
);
unicode = 003F;
},
{
glyphname = questiondown;
lastChange = "2025-01-15 13:07:57 +0000";
layers = (
{
layerId = "CCBD71C2-CFAF-4DB2-A010-494EF6BDA443";
paths = (
{
closed = 1;
nodes = (
"255 136 LINE SMOOTH",
"313 136 OFFCURVE",
"349 168 OFFCURVE",
"360 222 CURVE SMOOTH",
"380 316 LINE",
"300 316 LINE",
"285 242 LINE SMOOTH",
"281 222 OFFCURVE",
"269 212 OFFCURVE",
"249 212 CURVE SMOOTH",
"237 212 LINE SMOOTH",
"91 212 OFFCURVE",
"9 89 OFFCURVE",
"9 -25 CURVE SMOOTH",
"9 -131 OFFCURVE",
"91 -212 OFFCURVE",
"215 -212 CURVE SMOOTH",
"361 -212 OFFCURVE",
"455 -122 OFFCURVE",
"485 20 CURVE SMOOTH",
"495 68 LINE",
"411 68 LINE",
"402 26 LINE SMOOTH",
"381 -74 OFFCURVE",
"315 -134 OFFCURVE",
"225 -134 CURVE SMOOTH",
"141 -134 OFFCURVE",
"96 -82 OFFCURVE",
"96 -17 CURVE SMOOTH",
"96 64 OFFCURVE",
"148 136 OFFCURVE",
"231 136 CURVE SMOOTH"
);
},
{
closed = 1;
nodes = (
"435 484 OFFCURVE",
"403 516 OFFCURVE",
"365 516 CURVE SMOOTH",
"327 516 OFFCURVE",
"295 484 OFFCURVE",
"295 446 CURVE SMOOTH",
"295 408 OFFCURVE",
"327 376 OFFCURVE",
"365 376 CURVE SMOOTH",
"403 376 OFFCURVE",
"435 408 OFFCURVE",
"435 446 CURVE SMOOTH"
);
}
);
width = 612;
},
{
guideLines = (
{
position = "{0, 514}";
}
);
layerId = "8275915C-4C26-4DD7-A30E-5590CD7E6050";
paths = (
{
closed = 1;
nodes = (
"274 110 LINE SMOOTH",
"332 110 OFFCURVE",
"373 146 OFFCURVE",
"385 202 CURVE SMOOTH",
"402 282 LINE",
"276 282 LINE",
"270 256 LINE",
"266 236 OFFCURVE",
"254 225 OFFCURVE",
"232 225 CURVE SMOOTH",
"92 225 OFFCURVE",
"4 100 OFFCURVE",
"4 -20 CURVE SMOOTH",
"4 -126 OFFCURVE",
"88 -214 OFFCURVE",
"216 -214 CURVE SMOOTH",
"374 -214 OFFCURVE",
"467 -120 OFFCURVE",
"496 18 CURVE SMOOTH",
"506 66 LINE",
"374 66 LINE",
"367 30 LINE SMOOTH",
"355 -34 OFFCURVE",
"306 -88 OFFCURVE",
"232 -88 CURVE SMOOTH",
"172 -88 OFFCURVE",
"139 -52 OFFCURVE",
"139 -8 CURVE SMOOTH",
"139 58 OFFCURVE",
"182 110 OFFCURVE",
"252 110 CURVE SMOOTH"
);
},
{
closed = 1;
nodes = (
"262 366 OFFCURVE",
"305 324 OFFCURVE",
"357 324 CURVE SMOOTH",
"409 324 OFFCURVE",
"452 366 OFFCURVE",
"452 419 CURVE SMOOTH",
"452 472 OFFCURVE",
"409 514 OFFCURVE",
"357 514 CURVE SMOOTH",
"305 514 OFFCURVE",
"262 472 OFFCURVE",
"262 419 CURVE SMOOTH"
);
}
);
width = 612;
}
);
unicode = 00BF;
},
{
glyphname = guilsinglleft;
lastChange = "2025-01-15 13:07:57 +0000";
layers = (
{
layerId = "CCBD71C2-CFAF-4DB2-A010-494EF6BDA443";
paths = (
{
closed = 1;
nodes = (
"345 12 LINE",
"345 108 LINE",
"184 242 LINE",
"184 252 LINE",
"446 396 LINE",
"446 484 LINE",
"440 484 LINE",
"154 324 LINE",
"154 168 LINE",
"339 12 LINE"
);
}
);
width = 612;
},
{
associatedMasterId = "8275915C-4C26-4DD7-A30E-5590CD7E6050";
layerId = "5A43E585-3E8C-4908-8D9F-D0F489D34723";
name = img;
width = 612;
},
{
layerId = "8275915C-4C26-4DD7-A30E-5590CD7E6050";
paths = (
{
closed = 1;
nodes = (
"349 0 LINE",
"349 146 LINE",
"239 234 LINE",
"239 252 LINE",
"454 372 LINE",
"454 496 LINE",
"448 496 LINE",
"149 330 LINE",
"149 162 LINE",
"343 0 LINE"
);
}
);
width = 612;
}
);
unicode = 2039;
},
{
glyphname = guilsinglright;
lastChange = "2025-01-15 13:07:57 +0000";
layers = (
{
layerId = "CCBD71C2-CFAF-4DB2-A010-494EF6BDA443";
paths = (
{
closed = 1;
nodes = (
"221 484 LINE",
"221 388 LINE",
"382 254 LINE",
"382 244 LINE",
"120 100 LINE",
"120 12 LINE",
"126 12 LINE",
"412 172 LINE",
"412 328 LINE",
"227 484 LINE"
);
}
);
width = 612;
},
{
associatedMasterId = "8275915C-4C26-4DD7-A30E-5590CD7E6050";
layerId = "6E492466-9B99-48FB-8CFE-34345AF26689";
name = img;
width = 612;
},
{
layerId = "8275915C-4C26-4DD7-A30E-5590CD7E6050";
paths = (
{
closed = 1;
nodes = (
"228 496 LINE",
"228 350 LINE",
"338 262 LINE",
"338 244 LINE",
"123 124 LINE",
"123 0 LINE",
"129 0 LINE",
"428 166 LINE",
"428 334 LINE",
"234 496 LINE"
);
}
);
width = 612;
}
);
unicode = 203A;
},
{
glyphname = guillemotleft;
lastChange = "2025-01-15 13:07:57 +0000";
layers = (
{
components = (
{
alignment = -1;
name = guilsinglleft;
transform = "{1, 0, 0, 1, -114, 0}";
},
{
alignment = -1;
name = guilsinglleft;
transform = "{1, 0, 0, 1, 126, 0}";
}
);
layerId = "CCBD71C2-CFAF-4DB2-A010-494EF6BDA443";
width = 612;
},
{
associatedMasterId = "8275915C-4C26-4DD7-A30E-5590CD7E6050";
layerId = "733D462B-D7BB-485C-8E6D-9CD37FBC1B3C";
name = img;
width = 612;
},
{
layerId = "8275915C-4C26-4DD7-A30E-5590CD7E6050";
paths = (
{
closed = 1;
nodes = (
"481 0 LINE",
"481 146 LINE",
"371 234 LINE",
"371 252 LINE",
"586 372 LINE",
"586 496 LINE",
"580 496 LINE",
"281 330 LINE",
"281 162 LINE",
"475 0 LINE"
);
},
{
closed = 1;
nodes = (
"229 0 LINE",
"229 146 LINE",
"119 234 LINE",
"119 252 LINE",
"334 372 LINE",
"334 496 LINE",
"328 496 LINE",
"29 330 LINE",
"29 162 LINE",
"223 0 LINE"
);
}
);
width = 612;
}
);
unicode = 00AB;
},
{
glyphname = guillemotright;
lastChange = "2025-01-15 13:07:57 +0000";
layers = (
{
components = (
{
alignment = -1;
name = guilsinglright;
transform = "{1, 0, 0, 1, 124, 0}";
},
{
alignment = -1;
name = guilsinglright;
transform = "{1, 0, 0, 1, -116, 0}";
}
);
layerId = "CCBD71C2-CFAF-4DB2-A010-494EF6BDA443";
width = 612;
},
{
associatedMasterId = "8275915C-4C26-4DD7-A30E-5590CD7E6050";
layerId = "F266046F-5447-4E35-917E-CF996AE8AD68";
name = img;
width = 612;
},
{
layerId = "8275915C-4C26-4DD7-A30E-5590CD7E6050";
paths = (
{
closed = 1;
nodes = (
"105 496 LINE",
"105 350 LINE",
"215 262 LINE",
"215 244 LINE",
"0 124 LINE",
"0 0 LINE",
"6 0 LINE",
"305 166 LINE",
"305 334 LINE",
"111 496 LINE"
);
},
{
closed = 1;
nodes = (
"357 496 LINE",
"357 350 LINE",
"467 262 LINE",
"467 244 LINE",
"252 124 LINE",
"252 0 LINE",
"258 0 LINE",
"557 166 LINE",
"557 334 LINE",
"363 496 LINE"
);
}
);
width = 612;
}
);
unicode = 00BB;
},
{
glyphname = hyphen;
lastChange = "2025-01-15 13:07:57 +0000";
layers = (
{
associatedMasterId = "CCBD71C2-CFAF-4DB2-A010-494EF6BDA443";
layerId = "B5F68FDA-8C9D-4654-935C-D86EAB7081E6";
name = img;
width = 612;
},
{
layerId = "CCBD71C2-CFAF-4DB2-A010-494EF6BDA443";
paths = (
{
closed = 1;
nodes = (
"156 224 LINE",
"456 224 LINE",
"456 296 LINE",
"156 296 LINE"
);
}
);
width = 612;
},
{
associatedMasterId = "8275915C-4C26-4DD7-A30E-5590CD7E6050";
layerId = "02DECF46-8F09-465F-871B-B0493661CF6F";
name = img;
width = 612;
},
{
layerId = "8275915C-4C26-4DD7-A30E-5590CD7E6050";
paths = (
{
closed = 1;
nodes = (
"150 218 LINE",
"462 218 LINE",
"462 332 LINE",
"150 332 LINE"
);
}
);
width = 612;
}
);
unicode = 002D;
},
{
glyphname = endash;
lastChange = "2025-01-15 13:07:57 +0000";
layers = (
{
layerId = "CCBD71C2-CFAF-4DB2-A010-494EF6BDA443";
paths = (
{
closed = 1;
nodes = (
"73 224 LINE",
"539 224 LINE",
"539 296 LINE",
"73 296 LINE"
);
}
);
width = 612;
},
{
associatedMasterId = "8275915C-4C26-4DD7-A30E-5590CD7E6050";
layerId = "E715C413-807C-4B7F-9FCF-D08C6439C840";
name = img;
width = 612;
},
{
layerId = "8275915C-4C26-4DD7-A30E-5590CD7E6050";
paths = (
{
closed = 1;
nodes = (
"67 218 LINE",
"545 218 LINE",
"545 332 LINE",
"67 332 LINE"
);
}
);
width = 612;
}
);
unicode = 2013;
},
{
glyphname = emdash;
lastChange = "2025-01-15 13:07:57 +0000";
layers = (
{
layerId = "CCBD71C2-CFAF-4DB2-A010-494EF6BDA443";
paths = (
{
closed = 1;
nodes = (
"12 224 LINE",
"600 224 LINE",
"600 296 LINE",
"12 296 LINE"
);
}
);
width = 612;
},
{
associatedMasterId = "8275915C-4C26-4DD7-A30E-5590CD7E6050";
layerId = "F8A573AF-22FC-4888-82C2-079EBC5F5329";
name = img;
width = 612;
},
{
layerId = "8275915C-4C26-4DD7-A30E-5590CD7E6050";
paths = (
{
closed = 1;
nodes = (
"0 218 LINE",
"600 218 LINE",
"600 332 LINE",
"0 332 LINE"
);
}
);
width = 612;
}
);
unicode = 2014;
},
{
glyphname = periodcentered;
lastChange = "2025-01-15 13:07:57 +0000";
layers = (
{
layerId = "CCBD71C2-CFAF-4DB2-A010-494EF6BDA443";
paths = (
{
closed = 1;
nodes = (
"236 312 OFFCURVE",
"268 280 OFFCURVE",
"306 280 CURVE SMOOTH",
"344 280 OFFCURVE",
"376 312 OFFCURVE",
"376 350 CURVE SMOOTH",
"376 388 OFFCURVE",
"344 420 OFFCURVE",
"306 420 CURVE SMOOTH",
"268 420 OFFCURVE",
"236 388 OFFCURVE",
"236 350 CURVE SMOOTH"
);
}
);
width = 612;
},
{
associatedMasterId = "8275915C-4C26-4DD7-A30E-5590CD7E6050";
layerId = "10F6C930-6DA2-4ADC-9C90-954202759ED8";
name = img;
width = 612;
},
{
layerId = "8275915C-4C26-4DD7-A30E-5590CD7E6050";
paths = (
{
closed = 1;
nodes = (
"401 403 OFFCURVE",
"358 445 OFFCURVE",
"306 445 CURVE SMOOTH",
"254 445 OFFCURVE",
"211 403 OFFCURVE",
"211 350 CURVE SMOOTH",
"211 297 OFFCURVE",
"254 255 OFFCURVE",
"306 255 CURVE SMOOTH",
"358 255 OFFCURVE",
"401 297 OFFCURVE",
"401 350 CURVE SMOOTH"
);
}
);
width = 612;
}
);
unicode = 00B7;
},
{
glyphname = bullet;
lastChange = "2025-01-15 13:07:57 +0000";
layers = (
{
layerId = "CCBD71C2-CFAF-4DB2-A010-494EF6BDA443";
paths = (
{
closed = 1;
nodes = (
"188 286 OFFCURVE",
"242 232 OFFCURVE",
"306 232 CURVE SMOOTH",
"370 232 OFFCURVE",
"424 286 OFFCURVE",
"424 350 CURVE SMOOTH",
"424 414 OFFCURVE",
"370 468 OFFCURVE",
"306 468 CURVE SMOOTH",
"242 468 OFFCURVE",
"188 414 OFFCURVE",
"188 350 CURVE SMOOTH"
);
}
);
width = 612;
},
{
associatedMasterId = "8275915C-4C26-4DD7-A30E-5590CD7E6050";
layerId = "98314C1F-5CF3-4258-B395-6806ACDF99C7";
name = img;
width = 612;
},
{
layerId = "8275915C-4C26-4DD7-A30E-5590CD7E6050";
paths = (
{
closed = 1;
nodes = (
"162 271 OFFCURVE",
"227 206 OFFCURVE",
"306 206 CURVE SMOOTH",
"385 206 OFFCURVE",
"450 271 OFFCURVE",
"450 350 CURVE SMOOTH",
"450 429 OFFCURVE",
"385 494 OFFCURVE",
"306 494 CURVE SMOOTH",
"227 494 OFFCURVE",
"162 429 OFFCURVE",
"162 350 CURVE"
);
}
);
width = 612;
}
);
unicode = 2022;
},
{
glyphname = underscore;
lastChange = "2025-01-15 13:07:57 +0000";
layers = (
{
layerId = "CCBD71C2-CFAF-4DB2-A010-494EF6BDA443";
paths = (
{
closed = 1;
nodes = (
"4 -120 LINE",
"470 -120 LINE",
"470 -48 LINE",
"4 -48 LINE"
);
}
);
width = 612;
},
{
associatedMasterId = "8275915C-4C26-4DD7-A30E-5590CD7E6050";
layerId = "D8B3F58E-9071-4449-9927-948CF8C8C007";
name = img;
width = 612;
},
{
layerId = "8275915C-4C26-4DD7-A30E-5590CD7E6050";
paths = (
{
closed = 1;
nodes = (
"0 -162 LINE",
"490 -162 LINE",
"490 -48 LINE",
"0 -48 LINE"
);
}
);
width = 612;
}
);
unicode = 005F;
},
{
glyphname = at;
lastChange = "2025-01-15 13:07:57 +0000";
layers = (
{
layerId = "CCBD71C2-CFAF-4DB2-A010-494EF6BDA443";
paths = (
{
closed = 1;
nodes = (
"401 510 LINE SMOOTH",
"473 510 OFFCURVE",
"503 478 OFFCURVE",
"503 425 CURVE SMOOTH",
"503 413 OFFCURVE",
"501 400 OFFCURVE",
"498 386 CURVE SMOOTH",
"438 102 LINE SMOOTH",
"434 83 OFFCURVE",
"423 72 OFFCURVE",
"404 72 CURVE SMOOTH",
"380 72 LINE SMOOTH",
"365 72 OFFCURVE",
"359 79 OFFCURVE",
"359 91 CURVE SMOOTH",
"359 94 OFFCURVE",
"359 96 OFFCURVE",
"360 102 CURVE SMOOTH",
"428 424 LINE",
"350 424 LINE",
"339 370 LINE",
"327 370 LINE",
"319 412 OFFCURVE",
"289 438 OFFCURVE",
"229 438 CURVE SMOOTH",
"79 438 OFFCURVE",
"4 282 OFFCURVE",
"4 141 CURVE SMOOTH",
"4 50 OFFCURVE",
"54 -14 OFFCURVE",
"135 -14 CURVE SMOOTH",
"199 -14 OFFCURVE",
"245 16 OFFCURVE",
"268 66 CURVE",
"280 66 LINE",
"279 61 OFFCURVE",
"278 55 OFFCURVE",
"278 50 CURVE SMOOTH",
"278 22 OFFCURVE",
"295 0 OFFCURVE",
"337 0 CURVE SMOOTH",
"417 0 LINE SMOOTH",
"465 0 OFFCURVE",
"501 30 OFFCURVE",
"511 78 CURVE SMOOTH",
"577 390 LINE SMOOTH",
"580 405 OFFCURVE",
"582 420 OFFCURVE",
"582 434 CURVE SMOOTH",
"582 520 OFFCURVE",
"523 582 OFFCURVE",
"411 582 CURVE SMOOTH",
"105 582 LINE",
"105 510 LINE"
);
},
{
closed = 1;
nodes = (
"112 60 OFFCURVE",
"84 98 OFFCURVE",
"84 156 CURVE SMOOTH",
"84 246 OFFCURVE",
"135 364 OFFCURVE",
"231 364 CURVE SMOOTH",
"292 364 OFFCURVE",
"313 327 OFFCURVE",
"313 276 CURVE SMOOTH",
"313 185 OFFCURVE",
"275 60 OFFCURVE",
"166 60 CURVE SMOOTH"
);
}
);
width = 612;
},
{
layerId = "8275915C-4C26-4DD7-A30E-5590CD7E6050";
paths = (
{
closed = 1;
nodes = (
"374 510 LINE SMOOTH",
"442 510 OFFCURVE",
"473 481 OFFCURVE",
"473 427 CURVE SMOOTH",
"473 415 OFFCURVE",
"471 401 OFFCURVE",
"468 386 CURVE SMOOTH",
"413 128 LINE SMOOTH",
"409 110 OFFCURVE",
"400 100 OFFCURVE",
"384 100 CURVE SMOOTH",
"368 100 OFFCURVE",
"359 110 OFFCURVE",
"359 124 CURVE",
"359 125 OFFCURVE",
"359 127 OFFCURVE",
"360 132 CURVE SMOOTH",
"422 424 LINE",
"302 424 LINE",
"295 388 LINE",
"277 388 LINE",
"272 412 OFFCURVE",
"252 438 OFFCURVE",
"198 438 CURVE SMOOTH",
"54 438 OFFCURVE",
"-2 278 OFFCURVE",
"-2 148 CURVE SMOOTH",
"-2 40 OFFCURVE",
"50 -14 OFFCURVE",
"118 -14 CURVE SMOOTH",
"174 -14 OFFCURVE",
"202 14 OFFCURVE",
"216 48 CURVE",
"234 48 LINE",
"234 14 OFFCURVE",
"254 -14 OFFCURVE",
"298 -14 CURVE SMOOTH",
"408 -14 LINE SMOOTH",
"466 -14 OFFCURVE",
"510 20 OFFCURVE",
"523 82 CURVE SMOOTH",
"590 396 LINE SMOOTH",
"594 417 OFFCURVE",
"596 436 OFFCURVE",
"596 454 CURVE SMOOTH",
"596 568 OFFCURVE",
"514 630 OFFCURVE",
"398 630 CURVE SMOOTH",
"112 630 LINE",
"112 510 LINE"
);
},
{
closed = 1;
nodes = (
"140 100 OFFCURVE",
"122 126 OFFCURVE",
"122 172 CURVE SMOOTH",
"122 246 OFFCURVE",
"148 324 OFFCURVE",
"214 324 CURVE SMOOTH",
"248 324 OFFCURVE",
"263 292 OFFCURVE",
"263 254 CURVE SMOOTH",
"263 186 OFFCURVE",
"240 100 OFFCURVE",
"174 100 CURVE SMOOTH"
);
}
);
width = 612;
}
);
unicode = 0040;
},
{
glyphname = ampersand;
lastChange = "2025-01-15 13:07:57 +0000";
layers = (
{
layerId = "CCBD71C2-CFAF-4DB2-A010-494EF6BDA443";
paths = (
{
closed = 1;
nodes = (
"574 390 LINE",
"487 390 LINE",
"510 496 LINE",
"426 496 LINE",
"403 390 LINE",
"266 390 LINE SMOOTH",
"198 390 OFFCURVE",
"158 422 OFFCURVE",
"158 478 CURVE SMOOTH",
"158 570 OFFCURVE",
"234 622 OFFCURVE",
"318 622 CURVE SMOOTH",
"440 622 LINE",
"440 700 LINE",
"329 700 LINE SMOOTH",
"184 700 OFFCURVE",
"78 612 OFFCURVE",
"78 485 CURVE SMOOTH",
"78 418 OFFCURVE",
"116 374 OFFCURVE",
"167 357 CURVE",
"167 345 LINE",
"68 322 OFFCURVE",
"8 252 OFFCURVE",
"8 159 CURVE SMOOTH",
"8 64 OFFCURVE",
"74 0 OFFCURVE",
"184 0 CURVE SMOOTH",
"404 0 LINE",
"470 312 LINE",
"574 312 LINE"
);
},
{
closed = 1;
nodes = (
"203 78 LINE SMOOTH",
"135 78 OFFCURVE",
"91 113 OFFCURVE",
"91 173 CURVE SMOOTH",
"91 256 OFFCURVE",
"167 312 OFFCURVE",
"249 312 CURVE SMOOTH",
"386 312 LINE",
"337 78 LINE"
);
}
);
width = 612;
},
{
layerId = "8275915C-4C26-4DD7-A30E-5590CD7E6050";
paths = (
{
closed = 1;
nodes = (
"318 120 LINE",
"214 120 LINE SMOOTH",
"168 120 OFFCURVE",
"134 142 OFFCURVE",
"134 188 CURVE SMOOTH",
"134 254 OFFCURVE",
"188 294 OFFCURVE",
"250 294 CURVE SMOOTH",
"355 294 LINE"
);
},
{
closed = 1;
nodes = (
"398 496 LINE",
"380 414 LINE",
"278 414 LINE SMOOTH",
"232 414 OFFCURVE",
"196 434 OFFCURVE",
"196 478 CURVE SMOOTH",
"196 548 OFFCURVE",
"249 580 OFFCURVE",
"310 580 CURVE SMOOTH",
"418 580 LINE",
"418 700 LINE",
"314 700 LINE SMOOTH",
"160 700 OFFCURVE",
"71 610 OFFCURVE",
"71 488 CURVE SMOOTH",
"71 416 OFFCURVE",
"114 380 OFFCURVE",
"162 360 CURVE",
"162 342 LINE",
"62 322 OFFCURVE",
"2 248 OFFCURVE",
"2 150 CURVE SMOOTH",
"2 58 OFFCURVE",
"70 0 OFFCURVE",
"176 0 CURVE SMOOTH",
"418 0 LINE",
"479 288 LINE",
"586 288 LINE",
"586 414 LINE",
"506 414 LINE",
"524 496 LINE"
);
}
);
width = 612;
}
);
unicode = 0026;
},
{
glyphname = asterisk;
lastChange = "2025-01-15 13:07:57 +0000";
layers = (
{
layerId = "CCBD71C2-CFAF-4DB2-A010-494EF6BDA443";
paths = (
{
closed = 1;
nodes = (
"495 515 LINE",
"390 448 LINE",
"352 405 LINE",
"342 412 LINE",
"365 453 LINE",
"393 585 LINE",
"322 600 LINE",
"294 468 LINE",
"299 421 LINE",
"286 419 LINE",
"269 473 LINE",
"201 578 LINE",
"141 539 LINE",
"208 434 LINE",
"251 396 LINE",
"244 386 LINE",
"203 409 LINE",
"71 437 LINE",
"56 366 LINE",
"188 338 LINE",
"235 343 LINE",
"237 330 LINE",
"183 313 LINE",
"78 245 LINE",
"117 185 LINE",
"222 252 LINE",
"260 295 LINE",
"270 288 LINE",
"247 247 LINE",
"219 115 LINE",
"290 100 LINE",
"318 232 LINE",
"313 279 LINE",
"326 281 LINE",
"343 227 LINE",
"411 122 LINE",
"471 161 LINE",
"404 266 LINE",
"361 304 LINE",
"368 314 LINE",
"409 291 LINE",
"541 263 LINE",
"556 334 LINE",
"424 362 LINE",
"377 357 LINE",
"375 370 LINE",
"429 387 LINE",
"534 455 LINE"
);
}
);
width = 612;
},
{
associatedMasterId = "8275915C-4C26-4DD7-A30E-5590CD7E6050";
layerId = "3A621A8A-5072-402B-8080-8F3B6E879BCB";
name = img;
width = 612;
},
{
layerId = "8275915C-4C26-4DD7-A30E-5590CD7E6050";
paths = (
{
closed = 1;
nodes = (
"481 168 LINE",
"425 254 LINE",
"359 302 LINE",
"369 316 LINE",
"435 274 LINE",
"539 251 LINE",
"559 345 LINE",
"455 367 LINE",
"378 355 LINE",
"374 372 LINE",
"453 389 LINE",
"540 445 LINE",
"488 525 LINE",
"402 469 LINE",
"354 403 LINE",
"340 413 LINE",
"382 479 LINE",
"405 583 LINE",
"311 603 LINE",
"289 499 LINE",
"301 422 LINE",
"284 418 LINE",
"267 497 LINE",
"211 584 LINE",
"131 532 LINE",
"187 446 LINE",
"253 398 LINE",
"243 384 LINE",
"177 426 LINE",
"73 449 LINE",
"53 355 LINE",
"157 333 LINE",
"234 345 LINE",
"238 328 LINE",
"159 311 LINE",
"72 255 LINE",
"124 175 LINE",
"210 231 LINE",
"258 297 LINE",
"272 287 LINE",
"230 221 LINE",
"207 117 LINE",
"301 97 LINE",
"323 201 LINE",
"311 278 LINE",
"328 282 LINE",
"345 203 LINE",
"401 116 LINE"
);
}
);
width = 612;
}
);
unicode = 002A;
},
{
glyphname = Aogonek;
lastChange = "2025-01-15 13:07:57 +0000";
layers = (
{
layerId = "CCBD71C2-CFAF-4DB2-A010-494EF6BDA443";
paths = (
{
closed = 1;
nodes = (
"430 0 LINE",
"402 -66 LINE SMOOTH",
"396 -80 OFFCURVE",
"394 -92 OFFCURVE",
"394 -103 CURVE SMOOTH",
"394 -141 OFFCURVE",
"423 -164 OFFCURVE",
"456 -164 CURVE SMOOTH",
"526 -164 LINE",
"526 -98 LINE",
"484 -98 LINE SMOOTH",
"472 -98 OFFCURVE",
"465 -92 OFFCURVE",
"465 -81 CURVE SMOOTH",
"465 -76 OFFCURVE",
"466 -73 OFFCURVE",
"468 -68 CURVE SMOOTH",
"498 0 LINE",
"515 0 LINE",
"465 700 LINE",
"305 700 LINE",
"-42 0 LINE",
"53 0 LINE",
"138 174 LINE",
"419 174 LINE"
);
},
{
closed = 1;
nodes = (
"376 663 LINE",
"388 663 LINE",
"414 252 LINE",
"176 252 LINE"
);
}
);
width = 612;
},
{
associatedMasterId = "8275915C-4C26-4DD7-A30E-5590CD7E6050";
layerId = "E90D8D82-0A0F-49F0-8839-DE1854721110";
name = img;
width = 612;
},
{
layerId = "8275915C-4C26-4DD7-A30E-5590CD7E6050";
paths = (
{
closed = 1;
nodes = (
"521 0 LINE",
"504 700 LINE",
"260 700 LINE",
"-48 0 LINE",
"93 0 LINE",
"157 150 LINE",
"388 150 LINE",
"390 0 LINE",
"361 -66 LINE SMOOTH",
"354 -82 OFFCURVE",
"351 -96 OFFCURVE",
"351 -109 CURVE SMOOTH",
"351 -147 OFFCURVE",
"379 -170 OFFCURVE",
"421 -170 CURVE SMOOTH",
"503 -170 LINE",
"503 -86 LINE",
"466 -86 LINE SMOOTH",
"453 -86 OFFCURVE",
"447 -80 OFFCURVE",
"447 -70 CURVE SMOOTH",
"447 -65 OFFCURVE",
"448 -61 OFFCURVE",
"450 -56 CURVE SMOOTH",
"475 0 LINE"
);
},
{
closed = 1;
nodes = (
"363 634 LINE",
"381 634 LINE",
"386 276 LINE",
"210 276 LINE"
);
}
);
width = 612;
}
);
unicode = 0104;
},
{
glyphname = uni1EA2;
lastChange = "2025-01-15 13:07:57 +0000";
layers = (
{
components = (
{
alignment = -1;
name = A;
}
);
guideLines = (
{
angle = 90;
position = "{305, 0}";
},
{
angle = 90;
position = "{376, 0}";
},
{
angle = 90;
position = "{388, 0}";
},
{
angle = 90;
position = "{465, 0}";
}
);
layerId = "CCBD71C2-CFAF-4DB2-A010-494EF6BDA443";
paths = (
{
closed = 1;
nodes = (
"409 750 LINE",
"409 818 LINE",
"415 818 LINE",
"423 798 OFFCURVE",
"445 786 OFFCURVE",
"473 786 CURVE SMOOTH",
"521 786 OFFCURVE",
"557 828 OFFCURVE",
"557 878 CURVE SMOOTH",
"557 926 OFFCURVE",
"519 962 OFFCURVE",
"467 962 CURVE SMOOTH",
"413 962 OFFCURVE",
"385 932 OFFCURVE",
"369 892 CURVE",
"414 874 LINE",
"421 898 OFFCURVE",
"437 914 OFFCURVE",
"461 914 CURVE SMOOTH",
"487 914 OFFCURVE",
"503 898 OFFCURVE",
"503 874 CURVE",
"503 848 OFFCURVE",
"489 833 OFFCURVE",
"465 833 CURVE SMOOTH",
"453 833 OFFCURVE",
"443 838 OFFCURVE",
"437 848 CURVE",
"365 848 LINE",
"360 842 LINE",
"360 750 LINE"
);
}
);
width = 612;
},
{
associatedMasterId = "8275915C-4C26-4DD7-A30E-5590CD7E6050";
layerId = "A6DFCBD4-33AB-41AE-8855-13E7C6EF2B3C";
name = img;
width = 612;
},
{
components = (
{
alignment = -1;
name = A;
},
{
alignment = -1;
name = uni0309;
transform = "{1, 0, 0, 1, 149, 92}";
}
);
layerId = "8275915C-4C26-4DD7-A30E-5590CD7E6050";
width = 612;
}
);
unicode = 1EA2;
},
{
glyphname = uni1EA8;
lastChange = "2025-01-15 13:07:57 +0000";
layers = (
{
components = (
{
alignment = -1;
name = A;
},
{
alignment = -1;
name = circumflex;
transform = "{1, 0, 0, 1, 51, 204}";
}
);
guideLines = (
{
position = "{0, 770}";
}
);
layerId = "CCBD71C2-CFAF-4DB2-A010-494EF6BDA443";
paths = (
{
closed = 1;
nodes = (
"586 858 LINE",
"586 926 LINE",
"592 926 LINE",
"600 906 OFFCURVE",
"622 894 OFFCURVE",
"650 894 CURVE SMOOTH",
"698 894 OFFCURVE",
"734 936 OFFCURVE",
"734 986 CURVE SMOOTH",
"734 1034 OFFCURVE",
"696 1070 OFFCURVE",
"644 1070 CURVE SMOOTH",
"590 1070 OFFCURVE",
"562 1040 OFFCURVE",
"546 1000 CURVE",
"591 982 LINE",
"598 1006 OFFCURVE",
"614 1022 OFFCURVE",
"638 1022 CURVE SMOOTH",
"664 1022 OFFCURVE",
"680 1006 OFFCURVE",
"680 982 CURVE SMOOTH",
"680 956 OFFCURVE",
"666 941 OFFCURVE",
"642 941 CURVE SMOOTH",
"630 941 OFFCURVE",
"620 946 OFFCURVE",
"614 956 CURVE",
"542 956 LINE",
"537 950 LINE",
"537 858 LINE"
);
}
);
width = 612;
},
{
associatedMasterId = "8275915C-4C26-4DD7-A30E-5590CD7E6050";
layerId = "6D74D620-26AE-4A6B-9B21-54E6C1DA9446";
name = img;
width = 612;
},
{
components = (
{
alignment = -1;
name = A;
},
{
alignment = -1;
name = circumflex;
transform = "{1, 0, 0, 1, 39, 204}";
},
{
alignment = -1;
name = uni0309;
transform = "{1, 0, 0, 1, 357, 200}";
}
);
layerId = "8275915C-4C26-4DD7-A30E-5590CD7E6050";
width = 612;
}
);
unicode = 1EA8;
},
{
glyphname = uni1EB2;
lastChange = "2025-01-15 13:07:57 +0000";
layers = (
{
associatedMasterId = "CCBD71C2-CFAF-4DB2-A010-494EF6BDA443";
layerId = "B5F68FDA-8C9D-4654-935C-D86EAB7081E6";
name = img;
width = 612;
},
{
components = (
{
alignment = -1;
name = A;
},
{
alignment = -1;
name = breve;
transform = "{1, 0, 0, 1, 39, 160}";
}
);
guideLines = (
{
angle = 90;
position = "{369, 0}";
},
{
angle = 90;
position = "{449, 0}";
}
);
layerId = "CCBD71C2-CFAF-4DB2-A010-494EF6BDA443";
paths = (
{
closed = 1;
nodes = (
"442 878 LINE",
"442 946 LINE",
"448 946 LINE",
"456 926 OFFCURVE",
"478 914 OFFCURVE",
"506 914 CURVE SMOOTH",
"554 914 OFFCURVE",
"590 956 OFFCURVE",
"590 1006 CURVE SMOOTH",
"590 1054 OFFCURVE",
"552 1090 OFFCURVE",
"500 1090 CURVE SMOOTH",
"446 1090 OFFCURVE",
"418 1060 OFFCURVE",
"402 1020 CURVE",
"447 1002 LINE",
"454 1026 OFFCURVE",
"470 1042 OFFCURVE",
"494 1042 CURVE SMOOTH",
"520 1042 OFFCURVE",
"536 1026 OFFCURVE",
"536 1002 CURVE SMOOTH",
"536 976 OFFCURVE",
"522 961 OFFCURVE",
"498 961 CURVE SMOOTH",
"486 961 OFFCURVE",
"476 966 OFFCURVE",
"470 976 CURVE",
"398 976 LINE",
"393 970 LINE",
"393 878 LINE"
);
}
);
width = 612;
},
{
associatedMasterId = "8275915C-4C26-4DD7-A30E-5590CD7E6050";
layerId = "70EA2DAF-7DEB-462F-B9D9-2FC0D584A3F0";
name = img;
width = 612;
},
{
components = (
{
alignment = -1;
name = A;
},
{
alignment = -1;
name = breve;
transform = "{1, 0, 0, 1, 37, 172}";
},
{
alignment = -1;
name = uni0309;
transform = "{1, 0, 0, 1, 193, 250}";
}
);
layerId = "8275915C-4C26-4DD7-A30E-5590CD7E6050";
width = 612;
}
);
unicode = 1EB2;
},
{
glyphname = AE;
lastChange = "2025-01-15 13:07:57 +0000";
layers = (
{
layerId = "CCBD71C2-CFAF-4DB2-A010-494EF6BDA443";
paths = (
{
closed = 1;
nodes = (
"239 0 LINE",
"473 0 LINE",
"473 78 LINE",
"340 78 LINE",
"389 312 LINE",
"527 312 LINE",
"527 390 LINE",
"406 390 LINE",
"455 622 LINE",
"599 622 LINE",
"599 700 LINE",
"312 700 LINE",
"-48 0 LINE",
"44 0 LINE",
"132 174 LINE",
"276 174 LINE"
);
},
{
closed = 1;
nodes = (
"359 622 LINE",
"371 622 LINE",
"293 252 LINE",
"172 252 LINE"
);
}
);
width = 612;
},
{
layerId = "8275915C-4C26-4DD7-A30E-5590CD7E6050";
paths = (
{
closed = 1;
nodes = (
"214 0 LINE",
"518 0 LINE",
"518 126 LINE",
"370 126 LINE",
"404 288 LINE",
"567 288 LINE",
"567 414 LINE",
"431 414 LINE",
"465 574 LINE",
"628 574 LINE",
"628 700 LINE",
"241 700 LINE",
"-68 12 LINE",
"-68 0 LINE",
"63 0 LINE",
"129 150 LINE",
"243 150 LINE",
"214 12 LINE"
);
},
{
closed = 1;
nodes = (
"315 574 LINE",
"333 574 LINE",
"270 276 LINE",
"184 276 LINE"
);
}
);
width = 612;
}
);
unicode = 00C6;
},
{
glyphname = uni0243;
lastChange = "2025-01-15 13:07:57 +0000";
layers = (
{
layerId = "CCBD71C2-CFAF-4DB2-A010-494EF6BDA443";
paths = (
{
closed = 1;
nodes = (
"2 0 LINE",
"256 0 LINE SMOOTH",
"400 0 OFFCURVE",
"506 90 OFFCURVE",
"506 219 CURVE SMOOTH",
"506 278 OFFCURVE",
"473 329 OFFCURVE",
"418 345 CURVE",
"418 357 LINE",
"515 378 OFFCURVE",
"575 454 OFFCURVE",
"575 535 CURVE SMOOTH",
"575 631 OFFCURVE",
"514 700 OFFCURVE",
"393 700 CURVE SMOOTH",
"117 700 LINE",
"117 622 LINE",
"183 622 LINE",
"101 234 LINE",
"30 234 LINE",
"30 156 LINE",
"84 156 LINE",
"68 78 LINE",
"2 78 LINE"
);
},
{
closed = 1;
nodes = (
"267 622 LINE",
"382 622 LINE SMOOTH",
"452 622 OFFCURVE",
"493 587 OFFCURVE",
"493 532 CURVE SMOOTH",
"493 442 OFFCURVE",
"417 390 OFFCURVE",
"336 390 CURVE SMOOTH",
"218 390 LINE"
);
},
{
closed = 1;
nodes = (
"201 312 LINE",
"319 312 LINE SMOOTH",
"386 312 OFFCURVE",
"428 277 OFFCURVE",
"428 216 CURVE SMOOTH",
"428 135 OFFCURVE",
"356 78 OFFCURVE",
"267 78 CURVE SMOOTH",
"152 78 LINE",
"168 156 LINE",
"282 156 LINE",
"282 234 LINE",
"184 234 LINE"
);
}
);
width = 612;
},
{
layerId = "8275915C-4C26-4DD7-A30E-5590CD7E6050";
paths = (
{
closed = 1;
nodes = (
"27 156 LINE",
"78 156 LINE",
"72 126 LINE",
"6 126 LINE",
"6 0 LINE",
"278 0 LINE SMOOTH",
"422 0 OFFCURVE",
"526 93 OFFCURVE",
"526 210 CURVE SMOOTH",
"526 284 OFFCURVE",
"489 324 OFFCURVE",
"436 340 CURVE",
"436 358 LINE",
"523 379 OFFCURVE",
"595 437 OFFCURVE",
"595 537 CURVE SMOOTH",
"595 628 OFFCURVE",
"534 700 OFFCURVE",
"400 700 CURVE SMOOTH",
"101 700 LINE",
"101 574 LINE",
"167 574 LINE",
"100 258 LINE",
"27 258 LINE"
);
},
{
closed = 1;
nodes = (
"297 574 LINE",
"383 574 LINE SMOOTH",
"432 574 OFFCURVE",
"462 551 OFFCURVE",
"462 507 CURVE SMOOTH",
"462 446 OFFCURVE",
"418 414 OFFCURVE",
"349 414 CURVE SMOOTH",
"263 414 LINE"
);
},
{
closed = 1;
nodes = (
"236 288 LINE",
"322 288 LINE SMOOTH",
"371 288 OFFCURVE",
"402 268 OFFCURVE",
"402 219 CURVE SMOOTH",
"402 159 OFFCURVE",
"353 126 OFFCURVE",
"288 126 CURVE SMOOTH",
"202 126 LINE",
"208 156 LINE",
"288 156 LINE",
"288 258 LINE",
"229 258 LINE"
);
}
);
width = 612;
}
);
unicode = 0243;
},
{
glyphname = Ccedilla;
lastChange = "2025-01-15 13:07:57 +0000";
layers = (
{
guideLines = (
{
angle = 90;
position = "{230, 0}";
},
{
angle = 90;
position = "{248, 0}";
}
);
layerId = "CCBD71C2-CFAF-4DB2-A010-494EF6BDA443";
paths = (
{
closed = 1;
nodes = (
"162 64 OFFCURVE",
"123 108 OFFCURVE",
"123 197 CURVE SMOOTH",
"123 221 OFFCURVE",
"127 248 OFFCURVE",
"133 278 CURVE SMOOTH",
"164 422 LINE SMOOTH",
"191 550 OFFCURVE",
"263 638 OFFCURVE",
"369 638 CURVE SMOOTH",
"459 638 OFFCURVE",
"498 592 OFFCURVE",
"498 522 CURVE SMOOTH",
"498 503 OFFCURVE",
"496 485 OFFCURVE",
"490 460 CURVE SMOOTH",
"487 448 LINE",
"571 448 LINE",
"574 460 LINE SMOOTH",
"580 484 OFFCURVE",
"583 506 OFFCURVE",
"583 528 CURVE SMOOTH",
"583 636 OFFCURVE",
"510 714 OFFCURVE",
"382 714 CURVE SMOOTH",
"220 714 OFFCURVE",
"121 616 OFFCURVE",
"81 428 CURVE SMOOTH",
"48 272 LINE SMOOTH",
"41 238 OFFCURVE",
"38 206 OFFCURVE",
"38 178 CURVE SMOOTH",
"38 74 OFFCURVE",
"97 3 OFFCURVE",
"199 -12 CURVE",
"173 -86 LINE",
"173 -98 LINE",
"248 -98 LINE",
"253 -90 OFFCURVE",
"261 -84 OFFCURVE",
"275 -84 CURVE SMOOTH",
"292 -84 OFFCURVE",
"307 -94 OFFCURVE",
"307 -118 CURVE SMOOTH",
"307 -146 OFFCURVE",
"289 -164 OFFCURVE",
"259 -164 CURVE SMOOTH",
"229 -164 OFFCURVE",
"215 -146 OFFCURVE",
"213 -125 CURVE",
"163 -142 LINE",
"169 -183 OFFCURVE",
"203 -212 OFFCURVE",
"257 -212 CURVE SMOOTH",
"327 -212 OFFCURVE",
"361 -170 OFFCURVE",
"361 -110 CURVE SMOOTH",
"361 -70 OFFCURVE",
"337 -36 OFFCURVE",
"293 -36 CURVE SMOOTH",
"267 -36 OFFCURVE",
"250 -47 OFFCURVE",
"239 -68 CURVE",
"233 -68 LINE",
"252 -14 LINE",
"418 -11 OFFCURVE",
"489 88 OFFCURVE",
"527 240 CURVE SMOOTH",
"530 252 LINE",
"446 252 LINE",
"443 240 LINE SMOOTH",
"417 136 OFFCURVE",
"364 64 OFFCURVE",
"248 64 CURVE SMOOTH"
);
}
);
width = 612;
},
{
associatedMasterId = "8275915C-4C26-4DD7-A30E-5590CD7E6050";
layerId = "E885396E-C7C3-4765-87AD-6118EA460E56";
name = img;
width = 612;
},
{
layerId = "8275915C-4C26-4DD7-A30E-5590CD7E6050";
paths = (
{
closed = 1;
nodes = (
"182 106 OFFCURVE",
"153 145 OFFCURVE",
"153 205 CURVE SMOOTH",
"153 222 OFFCURVE",
"156 242 OFFCURVE",
"160 262 CURVE SMOOTH",
"197 438 LINE SMOOTH",
"215 522 OFFCURVE",
"270 594 OFFCURVE",
"358 594 CURVE SMOOTH",
"433 594 OFFCURVE",
"459 552 OFFCURVE",
"459 500 CURVE SMOOTH",
"459 485 OFFCURVE",
"457 470 OFFCURVE",
"453 454 CURVE SMOOTH",
"449 436 LINE",
"581 436 LINE",
"585 454 LINE SMOOTH",
"589 474 OFFCURVE",
"592 492 OFFCURVE",
"592 511 CURVE SMOOTH",
"592 624 OFFCURVE",
"513 714 OFFCURVE",
"379 714 CURVE SMOOTH",
"211 714 OFFCURVE",
"104 620 OFFCURVE",
"63 428 CURVE SMOOTH",
"30 272 LINE SMOOTH",
"24 242 OFFCURVE",
"21 219 OFFCURVE",
"21 195 CURVE SMOOTH",
"21 80 OFFCURVE",
"85 7 OFFCURVE",
"184 -10 CURVE",
"155 -92 LINE",
"155 -104 LINE",
"252 -104 LINE",
"256 -96 OFFCURVE",
"262 -90 OFFCURVE",
"273 -90 CURVE SMOOTH",
"284 -90 OFFCURVE",
"291 -97 OFFCURVE",
"291 -109 CURVE SMOOTH",
"291 -128 OFFCURVE",
"274 -138 OFFCURVE",
"251 -138 CURVE SMOOTH",
"230 -138 OFFCURVE",
"213 -132 OFFCURVE",
"200 -123 CURVE",
"163 -192 LINE",
"183 -204 OFFCURVE",
"211 -212 OFFCURVE",
"256 -212 CURVE SMOOTH",
"333 -212 OFFCURVE",
"377 -170 OFFCURVE",
"377 -102 CURVE SMOOTH",
"377 -52 OFFCURVE",
"349 -24 OFFCURVE",
"310 -24 CURVE SMOOTH",
"285 -24 OFFCURVE",
"269 -34 OFFCURVE",
"259 -46 CURVE",
"247 -46 LINE",
"261 -13 LINE",
"426 -5 OFFCURVE",
"504 82 OFFCURVE",
"540 246 CURVE SMOOTH",
"544 264 LINE",
"412 264 LINE",
"408 246 LINE SMOOTH",
"392 176 OFFCURVE",
"355 106 OFFCURVE",
"255 106 CURVE SMOOTH"
);
}
);
width = 612;
}
);
unicode = 00C7;
},
{
glyphname = Eth;
lastChange = "2025-01-15 13:07:57 +0000";
layers = (
{
layerId = "CCBD71C2-CFAF-4DB2-A010-494EF6BDA443";
paths = (
{
closed = 1;
nodes = (
"115 622 LINE",
"181 622 LINE",
"132 389 LINE",
"55 389 LINE",
"55 311 LINE",
"115 311 LINE",
"66 78 LINE",
"0 78 LINE",
"0 0 LINE",
"227 0 LINE SMOOTH",
"417 0 OFFCURVE",
"483 70 OFFCURVE",
"524 260 CURVE SMOOTH",
"562 434 LINE SMOOTH",
"568 463 OFFCURVE",
"572 490 OFFCURVE",
"572 515 CURVE SMOOTH",
"572 634 OFFCURVE",
"499 700 OFFCURVE",
"358 700 CURVE SMOOTH",
"115 700 LINE"
);
},
{
closed = 1;
nodes = (
"150 78 LINE",
"199 311 LINE",
"307 311 LINE",
"307 389 LINE",
"216 389 LINE",
"265 622 LINE",
"341 622 LINE SMOOTH",
"438 622 OFFCURVE",
"486 595 OFFCURVE",
"486 510 CURVE SMOOTH",
"486 489 OFFCURVE",
"484 468 OFFCURVE",
"477 434 CURVE SMOOTH",
"442 266 LINE SMOOTH",
"412 120 OFFCURVE",
"350 78 OFFCURVE",
"226 78 CURVE"
);
}
);
width = 612;
},
{
layerId = "8275915C-4C26-4DD7-A30E-5590CD7E6050";
paths = (
{
closed = 1;
nodes = (
"51 290 LINE",
"109 290 LINE",
"74 126 LINE",
"2 126 LINE",
"2 0 LINE",
"223 0 LINE SMOOTH",
"404 0 OFFCURVE",
"495 72 OFFCURVE",
"531 242 CURVE SMOOTH",
"575 452 LINE SMOOTH",
"579 473 OFFCURVE",
"582 493 OFFCURVE",
"582 512 CURVE SMOOTH",
"582 625 OFFCURVE",
"503 700 OFFCURVE",
"368 700 CURVE SMOOTH",
"103 700 LINE",
"103 574 LINE",
"169 574 LINE",
"134 410 LINE",
"51 410 LINE"
);
},
{
closed = 1;
nodes = (
"206 126 LINE",
"241 290 LINE",
"339 290 LINE",
"339 410 LINE",
"266 410 LINE",
"301 574 LINE",
"345 574 LINE SMOOTH",
"415 574 OFFCURVE",
"448 544 OFFCURVE",
"448 490 CURVE SMOOTH",
"448 478 OFFCURVE",
"445 462 OFFCURVE",
"443 452 CURVE SMOOTH",
"402 260 LINE SMOOTH",
"383 168 OFFCURVE",
"342 126 OFFCURVE",
"250 126 CURVE"
);
}
);
width = 612;
}
);
unicode = 00D0;
},
{
glyphname = Dcroat;
lastChange = "2025-01-15 13:07:57 +0000";
layers = (
{
layerId = "CCBD71C2-CFAF-4DB2-A010-494EF6BDA443";
paths = (
{
closed = 1;
nodes = (
"115 622 LINE",
"181 622 LINE",
"132 389 LINE",
"55 389 LINE",
"55 311 LINE",
"115 311 LINE",
"66 78 LINE",
"0 78 LINE",
"0 0 LINE",
"227 0 LINE SMOOTH",
"417 0 OFFCURVE",
"483 70 OFFCURVE",
"524 260 CURVE SMOOTH",
"562 434 LINE SMOOTH",
"568 463 OFFCURVE",
"572 490 OFFCURVE",
"572 515 CURVE SMOOTH",
"572 634 OFFCURVE",
"499 700 OFFCURVE",
"358 700 CURVE SMOOTH",
"115 700 LINE"
);
},
{
closed = 1;
nodes = (
"150 78 LINE",
"199 311 LINE",
"307 311 LINE",
"307 389 LINE",
"216 389 LINE",
"265 622 LINE",
"341 622 LINE SMOOTH",
"438 622 OFFCURVE",
"486 595 OFFCURVE",
"486 510 CURVE SMOOTH",
"486 489 OFFCURVE",
"484 468 OFFCURVE",
"477 434 CURVE SMOOTH",
"442 266 LINE SMOOTH",
"412 120 OFFCURVE",
"350 78 OFFCURVE",
"226 78 CURVE"
);
}
);
width = 612;
},
{
associatedMasterId = "8275915C-4C26-4DD7-A30E-5590CD7E6050";
layerId = "67090B7F-C227-4FA7-BF48-548B28709126";
name = img;
width = 612;
},
{
layerId = "8275915C-4C26-4DD7-A30E-5590CD7E6050";
paths = (
{
closed = 1;
nodes = (
"51 290 LINE",
"109 290 LINE",
"74 126 LINE",
"2 126 LINE",
"2 0 LINE",
"223 0 LINE SMOOTH",
"404 0 OFFCURVE",
"495 72 OFFCURVE",
"531 242 CURVE SMOOTH",
"575 452 LINE SMOOTH",
"579 473 OFFCURVE",
"582 493 OFFCURVE",
"582 512 CURVE SMOOTH",
"582 625 OFFCURVE",
"503 700 OFFCURVE",
"368 700 CURVE SMOOTH",
"103 700 LINE",
"103 574 LINE",
"169 574 LINE",
"134 410 LINE",
"51 410 LINE"
);
},
{
closed = 1;
nodes = (
"206 126 LINE",
"241 290 LINE",
"339 290 LINE",
"339 410 LINE",
"266 410 LINE",
"301 574 LINE",
"345 574 LINE SMOOTH",
"415 574 OFFCURVE",
"448 544 OFFCURVE",
"448 490 CURVE SMOOTH",
"448 478 OFFCURVE",
"445 462 OFFCURVE",
"443 452 CURVE SMOOTH",
"402 260 LINE SMOOTH",
"383 168 OFFCURVE",
"342 126 OFFCURVE",
"250 126 CURVE"
);
}
);
width = 612;
}
);
unicode = 0110;
},
{
glyphname = Eogonek;
lastChange = "2025-01-15 13:07:57 +0000";
layers = (
{
layerId = "CCBD71C2-CFAF-4DB2-A010-494EF6BDA443";
paths = (
{
closed = 1;
nodes = (
"28 0 LINE",
"377 0 LINE",
"349 -66 LINE SMOOTH",
"343 -80 OFFCURVE",
"341 -92 OFFCURVE",
"341 -103 CURVE SMOOTH",
"341 -141 OFFCURVE",
"370 -164 OFFCURVE",
"403 -164 CURVE SMOOTH",
"473 -164 LINE",
"473 -98 LINE",
"431 -98 LINE SMOOTH",
"419 -98 OFFCURVE",
"412 -92 OFFCURVE",
"412 -81 CURVE SMOOTH",
"412 -76 OFFCURVE",
"413 -73 OFFCURVE",
"415 -68 CURVE SMOOTH",
"446 0 LINE",
"446 78 LINE",
"129 78 LINE",
"178 312 LINE",
"500 312 LINE",
"500 390 LINE",
"195 390 LINE",
"244 622 LINE",
"572 622 LINE",
"572 700 LINE",
"177 700 LINE"
);
}
);
width = 612;
},
{
associatedMasterId = "8275915C-4C26-4DD7-A30E-5590CD7E6050";
layerId = "881F59E1-234F-4AB1-9040-030D9EC25D22";
name = img;
width = 612;
},
{
layerId = "8275915C-4C26-4DD7-A30E-5590CD7E6050";
paths = (
{
closed = 1;
nodes = (
"18 0 LINE",
"383 0 LINE",
"354 -66 LINE SMOOTH",
"347 -82 OFFCURVE",
"344 -96 OFFCURVE",
"344 -109 CURVE SMOOTH",
"344 -147 OFFCURVE",
"372 -170 OFFCURVE",
"414 -170 CURVE SMOOTH",
"496 -170 LINE",
"496 -86 LINE",
"459 -86 LINE SMOOTH",
"446 -86 OFFCURVE",
"440 -80 OFFCURVE",
"440 -70 CURVE SMOOTH",
"440 -64 OFFCURVE",
"441 -61 OFFCURVE",
"443 -56 CURVE SMOOTH",
"469 0 LINE",
"469 126 LINE",
"174 126 LINE",
"208 288 LINE",
"506 288 LINE",
"506 414 LINE",
"235 414 LINE",
"269 574 LINE",
"579 574 LINE",
"579 700 LINE",
"164 700 LINE",
"18 12 LINE"
);
}
);
width = 612;
}
);
unicode = 0118;
},
{
glyphname = uni1EBA;
lastChange = "2025-01-15 13:07:57 +0000";
layers = (
{
components = (
{
alignment = -1;
name = E;
}
);
guideLines = (
{
angle = 90;
position = "{500, 0}";
},
{
angle = 90;
position = "{446, 0}";
},
{
angle = 90;
position = "{572, 0}";
},
{
angle = 90;
position = "{300, 0}";
},
{
angle = 90;
position = "{512, 0}";
}
);
layerId = "CCBD71C2-CFAF-4DB2-A010-494EF6BDA443";
paths = (
{
closed = 1;
nodes = (
"390 750 LINE",
"390 818 LINE",
"396 818 LINE",
"404 798 OFFCURVE",
"426 786 OFFCURVE",
"454 786 CURVE SMOOTH",
"502 786 OFFCURVE",
"538 828 OFFCURVE",
"538 878 CURVE SMOOTH",
"538 926 OFFCURVE",
"500 962 OFFCURVE",
"448 962 CURVE SMOOTH",
"394 962 OFFCURVE",
"366 932 OFFCURVE",
"350 892 CURVE",
"395 874 LINE",
"402 898 OFFCURVE",
"418 914 OFFCURVE",
"442 914 CURVE SMOOTH",
"468 914 OFFCURVE",
"484 898 OFFCURVE",
"484 874 CURVE SMOOTH",
"484 848 OFFCURVE",
"470 833 OFFCURVE",
"446 833 CURVE SMOOTH",
"434 833 OFFCURVE",
"424 838 OFFCURVE",
"418 848 CURVE",
"346 848 LINE",
"341 842 LINE",
"341 750 LINE"
);
}
);
width = 612;
},
{
associatedMasterId = "8275915C-4C26-4DD7-A30E-5590CD7E6050";
layerId = "0BDC1EC2-FD17-441E-9869-107FEFEEB920";
name = img;
width = 612;
},
{
components = (
{
alignment = -1;
name = E;
},
{
alignment = -1;
name = uni0309;
transform = "{1, 0, 0, 1, 132, 92}";
}
);
layerId = "8275915C-4C26-4DD7-A30E-5590CD7E6050";
width = 612;
}
);
unicode = 1EBA;
},
{
glyphname = uni1EC2;
lastChange = "2025-01-15 13:07:57 +0000";
layers = (
{
components = (
{
alignment = -1;
name = E;
},
{
alignment = -1;
name = circumflex;
transform = "{1, 0, 0, 1, 42, 204}";
}
);
guideLines = (
{
position = "{0, 774}";
}
);
layerId = "CCBD71C2-CFAF-4DB2-A010-494EF6BDA443";
paths = (
{
closed = 1;
nodes = (
"577 858 LINE",
"577 926 LINE",
"583 926 LINE",
"591 906 OFFCURVE",
"613 894 OFFCURVE",
"641 894 CURVE SMOOTH",
"689 894 OFFCURVE",
"725 936 OFFCURVE",
"725 986 CURVE SMOOTH",
"725 1034 OFFCURVE",
"687 1070 OFFCURVE",
"635 1070 CURVE SMOOTH",
"581 1070 OFFCURVE",
"553 1040 OFFCURVE",
"537 1000 CURVE",
"582 982 LINE",
"589 1006 OFFCURVE",
"605 1022 OFFCURVE",
"629 1022 CURVE SMOOTH",
"655 1022 OFFCURVE",
"671 1006 OFFCURVE",
"671 982 CURVE SMOOTH",
"671 956 OFFCURVE",
"657 941 OFFCURVE",
"633 941 CURVE SMOOTH",
"621 941 OFFCURVE",
"611 946 OFFCURVE",
"605 956 CURVE",
"533 956 LINE",
"528 950 LINE",
"528 858 LINE"
);
}
);
width = 612;
},
{
associatedMasterId = "8275915C-4C26-4DD7-A30E-5590CD7E6050";
layerId = "B5B7103D-ECD4-4B5C-B0A3-4C2F30254748";
name = img;
width = 612;
},
{
components = (
{
alignment = -1;
name = E;
},
{
alignment = -1;
name = circumflex;
transform = "{1, 0, 0, 1, 40, 204}";
},
{
alignment = -1;
name = uni0309;
transform = "{1, 0, 0, 1, 358, 204}";
}
);
layerId = "8275915C-4C26-4DD7-A30E-5590CD7E6050";
width = 612;
}
);
unicode = 1EC2;
},
{
glyphname = uni0122;
lastChange = "2025-01-15 13:07:57 +0000";
layers = (
{
components = (
{
alignment = -1;
name = G;
},
{
alignment = -1;
name = comma;
transform = "{1, 0, 0, 1, -59, -170}";
}
);
guideLines = (
{
angle = 90;
position = "{223, 0}";
},
{
angle = 90;
position = "{245, 0}";
},
{
angle = 90;
position = "{242, 0}";
}
);
layerId = "CCBD71C2-CFAF-4DB2-A010-494EF6BDA443";
width = 612;
},
{
associatedMasterId = "8275915C-4C26-4DD7-A30E-5590CD7E6050";
layerId = "0BEDB9DC-A9F0-481A-A6B3-F9F1914C23CE";
name = img;
width = 612;
},
{
components = (
{
alignment = -1;
name = G;
}
);
layerId = "8275915C-4C26-4DD7-A30E-5590CD7E6050";
paths = (
{
closed = 1;
nodes = (
"105 -192 OFFCURVE",
"150 -218 OFFCURVE",
"193 -218 CURVE",
"190 -237 LINE SMOOTH",
"187 -256 OFFCURVE",
"176 -260 OFFCURVE",
"154 -260 CURVE SMOOTH",
"112 -260 LINE",
"112 -338 LINE",
"160 -338 LINE SMOOTH",
"212 -338 OFFCURVE",
"251 -316 OFFCURVE",
"261 -269 CURVE SMOOTH",
"285 -155 LINE SMOOTH",
"286 -148 OFFCURVE",
"287 -141 OFFCURVE",
"287 -135 CURVE SMOOTH",
"287 -85 OFFCURVE",
"245 -44 OFFCURVE",
"196 -44 CURVE SMOOTH",
"146 -44 OFFCURVE",
"105 -83 OFFCURVE",
"105 -134 CURVE SMOOTH"
);
}
);
width = 612;
}
);
unicode = 0122;
},
{
glyphname = Hbar;
lastChange = "2025-01-15 13:07:57 +0000";
layers = (
{
layerId = "CCBD71C2-CFAF-4DB2-A010-494EF6BDA443";
paths = (
{
closed = 1;
nodes = (
"8 0 LINE",
"93 0 LINE",
"159 312 LINE",
"435 312 LINE",
"369 0 LINE",
"455 0 LINE",
"560 496 LINE",
"630 496 LINE",
"630 574 LINE",
"577 574 LINE",
"604 700 LINE",
"518 700 LINE",
"491 574 LINE",
"215 574 LINE",
"242 700 LINE",
"156 700 LINE",
"129 574 LINE",
"54 574 LINE",
"54 496 LINE",
"113 496 LINE"
);
},
{
closed = 1;
nodes = (
"176 390 LINE",
"198 496 LINE",
"474 496 LINE",
"452 390 LINE"
);
}
);
width = 612;
},
{
layerId = "8275915C-4C26-4DD7-A30E-5590CD7E6050";
paths = (
{
closed = 1;
nodes = (
"50 496 LINE",
"105 496 LINE",
"0 0 LINE",
"131 0 LINE",
"192 288 LINE",
"386 288 LINE",
"325 0 LINE",
"457 0 LINE",
"562 496 LINE",
"643 496 LINE",
"643 616 LINE",
"588 616 LINE",
"606 700 LINE",
"474 700 LINE",
"456 616 LINE",
"262 616 LINE",
"280 700 LINE",
"148 700 LINE",
"130 616 LINE",
"50 616 LINE"
);
},
{
closed = 1;
nodes = (
"219 414 LINE",
"236 496 LINE",
"430 496 LINE",
"413 414 LINE"
);
}
);
width = 612;
}
);
unicode = 0126;
},
{
glyphname = Iogonek;
lastChange = "2025-01-15 13:07:57 +0000";
layers = (
{
associatedMasterId = "CCBD71C2-CFAF-4DB2-A010-494EF6BDA443";
layerId = "B5F68FDA-8C9D-4654-935C-D86EAB7081E6";
name = img;
width = 612;
},
{
layerId = "CCBD71C2-CFAF-4DB2-A010-494EF6BDA443";
paths = (
{
closed = 1;
nodes = (
"147 622 LINE",
"321 622 LINE",
"206 78 LINE",
"32 78 LINE",
"32 0 LINE",
"395 0 LINE",
"367 -66 LINE SMOOTH",
"361 -80 OFFCURVE",
"359 -92 OFFCURVE",
"359 -103 CURVE SMOOTH",
"359 -141 OFFCURVE",
"388 -164 OFFCURVE",
"421 -164 CURVE SMOOTH",
"491 -164 LINE",
"491 -98 LINE",
"449 -98 LINE SMOOTH",
"437 -98 OFFCURVE",
"430 -92 OFFCURVE",
"430 -81 CURVE SMOOTH",
"430 -76 OFFCURVE",
"431 -73 OFFCURVE",
"433 -68 CURVE SMOOTH",
"464 0 LINE",
"464 78 LINE",
"290 78 LINE",
"405 622 LINE",
"579 622 LINE",
"579 700 LINE",
"147 700 LINE"
);
}
);
width = 612;
},
{
associatedMasterId = "8275915C-4C26-4DD7-A30E-5590CD7E6050";
layerId = "8A6A4C59-5303-4985-9D60-50A05A920377";
name = img;
width = 612;
},
{
layerId = "8275915C-4C26-4DD7-A30E-5590CD7E6050";
paths = (
{
closed = 1;
nodes = (
"125 574 LINE",
"287 574 LINE",
"192 126 LINE",
"30 126 LINE",
"30 0 LINE",
"400 0 LINE",
"371 -66 LINE SMOOTH",
"364 -82 OFFCURVE",
"361 -96 OFFCURVE",
"361 -109 CURVE SMOOTH",
"361 -147 OFFCURVE",
"389 -170 OFFCURVE",
"431 -170 CURVE SMOOTH",
"513 -170 LINE",
"513 -86 LINE",
"476 -86 LINE SMOOTH",
"463 -86 OFFCURVE",
"457 -80 OFFCURVE",
"457 -70 CURVE SMOOTH",
"457 -64 OFFCURVE",
"458 -61 OFFCURVE",
"460 -56 CURVE SMOOTH",
"486 0 LINE",
"486 126 LINE",
"324 126 LINE",
"419 574 LINE",
"581 574 LINE",
"581 700 LINE",
"125 700 LINE"
);
}
);
width = 612;
}
);
unicode = 012E;
},
{
glyphname = uni0136;
lastChange = "2025-01-15 13:07:57 +0000";
layers = (
{
components = (
{
alignment = -1;
name = K;
},
{
alignment = -1;
name = comma;
transform = "{1, 0, 0, 1, -35, -170}";
}
);
guideLines = (
{
angle = 90;
position = "{157, 0}";
},
{
angle = 90;
position = "{197, 0}";
},
{
angle = 90;
position = "{174, 0}";
},
{
angle = 90;
position = "{200, 0}";
}
);
layerId = "CCBD71C2-CFAF-4DB2-A010-494EF6BDA443";
width = 612;
},
{
associatedMasterId = "8275915C-4C26-4DD7-A30E-5590CD7E6050";
layerId = "5D65291A-1CB3-4738-8016-4FB294E82514";
name = img;
width = 612;
},
{
components = (
{
alignment = -1;
name = K;
}
);
layerId = "8275915C-4C26-4DD7-A30E-5590CD7E6050";
paths = (
{
closed = 1;
nodes = (
"146 -192 OFFCURVE",
"191 -218 OFFCURVE",
"234 -218 CURVE",
"231 -237 LINE SMOOTH",
"228 -256 OFFCURVE",
"217 -260 OFFCURVE",
"195 -260 CURVE SMOOTH",
"146 -260 LINE",
"146 -338 LINE",
"201 -338 LINE SMOOTH",
"253 -338 OFFCURVE",
"292 -316 OFFCURVE",
"302 -269 CURVE SMOOTH",
"326 -155 LINE SMOOTH",
"327 -148 OFFCURVE",
"328 -141 OFFCURVE",
"328 -135 CURVE SMOOTH",
"328 -85 OFFCURVE",
"286 -44 OFFCURVE",
"237 -44 CURVE SMOOTH",
"187 -44 OFFCURVE",
"146 -83 OFFCURVE",
"146 -134 CURVE SMOOTH"
);
}
);
width = 612;
}
);
unicode = 0136;
},
{
glyphname = Lcaron;
lastChange = "2025-01-15 13:07:57 +0000";
layers = (
{
components = (
{
alignment = -1;
name = L;
},
{
alignment = -1;
name = quoteright;
transform = "{1, 0, 0, 1, 154, -14}";
}
);
guideLines = (
{
angle = 90;
position = "{485, 0}";
}
);
layerId = "CCBD71C2-CFAF-4DB2-A010-494EF6BDA443";
width = 612;
},
{
associatedMasterId = "8275915C-4C26-4DD7-A30E-5590CD7E6050";
layerId = "2071066F-F4F0-4918-BF87-1A086481FF38";
name = img;
width = 612;
},
{
layerId = "8275915C-4C26-4DD7-A30E-5590CD7E6050";
paths = (
{
closed = 1;
nodes = (
"15 0 LINE",
"475 0 LINE",
"475 126 LINE",
"171 126 LINE",
"293 700 LINE",
"161 700 LINE",
"15 12 LINE"
);
},
{
closed = 1;
nodes = (
"415 550 OFFCURVE",
"459 523 OFFCURVE",
"503 523 CURVE",
"500 508 LINE SMOOTH",
"497 491 OFFCURVE",
"486 484 OFFCURVE",
"467 484 CURVE SMOOTH",
"392 484 LINE",
"392 406 LINE",
"470 406 LINE SMOOTH",
"522 406 OFFCURVE",
"561 428 OFFCURVE",
"571 476 CURVE SMOOTH",
"595 590 LINE SMOOTH",
"596 596 OFFCURVE",
"597 603 OFFCURVE",
"597 609 CURVE SMOOTH",
"597 660 OFFCURVE",
"555 700 OFFCURVE",
"506 700 CURVE SMOOTH",
"456 700 OFFCURVE",
"415 662 OFFCURVE",
"415 610 CURVE SMOOTH"
);
}
);
width = 612;
}
);
unicode = 013D;
},
{
glyphname = uni013B;
lastChange = "2025-01-15 13:07:57 +0000";
layers = (
{
associatedMasterId = "CCBD71C2-CFAF-4DB2-A010-494EF6BDA443";
layerId = "B5F68FDA-8C9D-4654-935C-D86EAB7081E6";
name = img;
width = 612;
},
{
components = (
{
alignment = -1;
name = L;
},
{
alignment = -1;
name = comma;
transform = "{1, 0, 0, 1, -1, -170}";
}
);
guideLines = (
{
angle = 90;
position = "{125, 0}";
},
{
angle = 90;
position = "{173, 0}";
},
{
angle = 90;
position = "{257, 0}";
}
);
layerId = "CCBD71C2-CFAF-4DB2-A010-494EF6BDA443";
width = 612;
},
{
associatedMasterId = "8275915C-4C26-4DD7-A30E-5590CD7E6050";
layerId = "957E8622-3D85-4238-AD49-35AC62ED606C";
name = img;
width = 612;
},
{
components = (
{
alignment = -1;
name = L;
}
);
layerId = "8275915C-4C26-4DD7-A30E-5590CD7E6050";
paths = (
{
closed = 1;
nodes = (
"140 -192 OFFCURVE",
"185 -218 OFFCURVE",
"228 -218 CURVE",
"225 -237 LINE SMOOTH",
"222 -256 OFFCURVE",
"211 -260 OFFCURVE",
"189 -260 CURVE SMOOTH",
"140 -260 LINE",
"140 -338 LINE",
"195 -338 LINE SMOOTH",
"247 -338 OFFCURVE",
"286 -316 OFFCURVE",
"296 -269 CURVE SMOOTH",
"320 -155 LINE SMOOTH",
"321 -148 OFFCURVE",
"322 -141 OFFCURVE",
"322 -135 CURVE SMOOTH",
"322 -85 OFFCURVE",
"280 -44 OFFCURVE",
"231 -44 CURVE SMOOTH",
"181 -44 OFFCURVE",
"140 -83 OFFCURVE",
"140 -134 CURVE SMOOTH"
);
}
);
width = 612;
}
);
unicode = 013B;
},
{
glyphname = Lslash;
lastChange = "2025-01-15 13:07:57 +0000";
layers = (
{
layerId = "CCBD71C2-CFAF-4DB2-A010-494EF6BDA443";
paths = (
{
closed = 1;
nodes = (
"36 0 LINE",
"497 0 LINE",
"497 78 LINE",
"137 78 LINE",
"185 307 LINE",
"304 340 LINE",
"284 412 LINE",
"203 390 LINE",
"269 700 LINE",
"185 700 LINE",
"114 367 LINE",
"12 340 LINE",
"32 266 LINE",
"96 283 LINE"
);
}
);
width = 612;
},
{
associatedMasterId = "8275915C-4C26-4DD7-A30E-5590CD7E6050";
layerId = "0B9595B7-18A4-40F0-87F5-2D8FA93E5724";
name = img;
width = 612;
},
{
layerId = "8275915C-4C26-4DD7-A30E-5590CD7E6050";
paths = (
{
closed = 1;
nodes = (
"15 0 LINE",
"475 0 LINE",
"475 126 LINE",
"171 126 LINE",
"207 296 LINE",
"337 332 LINE",
"308 439 LINE",
"233 418 LINE",
"293 700 LINE",
"161 700 LINE",
"93 379 LINE",
"-13 350 LINE",
"14 243 LINE",
"67 257 LINE",
"15 12 LINE"
);
}
);
width = 612;
}
);
unicode = 0141;
},
{
glyphname = uni0145;
lastChange = "2025-01-15 13:07:57 +0000";
layers = (
{
associatedMasterId = "CCBD71C2-CFAF-4DB2-A010-494EF6BDA443";
layerId = "B5F68FDA-8C9D-4654-935C-D86EAB7081E6";
name = img;
width = 612;
},
{
components = (
{
alignment = -1;
name = N;
},
{
alignment = -1;
name = comma;
transform = "{1, 0, 0, 1, -74, -170}";
}
);
guideLines = (
{
angle = 90;
position = "{94, 0}";
},
{
angle = 90;
position = "{287, 0}";
},
{
angle = 90;
position = "{159, 0}";
},
{
angle = 90;
position = "{235, 0}";
},
{
angle = 90;
position = "{247, 0}";
}
);
layerId = "CCBD71C2-CFAF-4DB2-A010-494EF6BDA443";
width = 612;
},
{
associatedMasterId = "8275915C-4C26-4DD7-A30E-5590CD7E6050";
layerId = "80794A59-E400-406D-B2C9-0D6F445BA140";
name = img;
width = 612;
},
{
components = (
{
alignment = -1;
name = N;
}
);
layerId = "8275915C-4C26-4DD7-A30E-5590CD7E6050";
paths = (
{
closed = 1;
nodes = (
"76 -192 OFFCURVE",
"121 -218 OFFCURVE",
"164 -218 CURVE",
"161 -237 LINE SMOOTH",
"158 -256 OFFCURVE",
"147 -260 OFFCURVE",
"125 -260 CURVE SMOOTH",
"83 -260 LINE",
"83 -338 LINE",
"131 -338 LINE SMOOTH",
"183 -338 OFFCURVE",
"222 -316 OFFCURVE",
"232 -269 CURVE SMOOTH",
"256 -155 LINE SMOOTH",
"257 -148 OFFCURVE",
"258 -141 OFFCURVE",
"258 -135 CURVE SMOOTH",
"258 -85 OFFCURVE",
"216 -44 OFFCURVE",
"167 -44 CURVE SMOOTH",
"117 -44 OFFCURVE",
"76 -83 OFFCURVE",
"76 -134 CURVE SMOOTH"
);
}
);
width = 612;
}
);
unicode = 0145;
},
{
glyphname = uni01EA;
lastChange = "2025-01-15 13:07:57 +0000";
layers = (
{
guideLines = (
{
angle = 90;
position = "{247, 0}";
},
{
angle = 90;
position = "{233, 0}";
},
{
angle = 90;
position = "{365, 0}";
},
{
angle = 90;
position = "{377, 0}";
}
);
layerId = "CCBD71C2-CFAF-4DB2-A010-494EF6BDA443";
paths = (
{
closed = 1;
nodes = (
"46 283 LINE SMOOTH",
"39 252 OFFCURVE",
"36 222 OFFCURVE",
"36 195 CURVE SMOOTH",
"36 66 OFFCURVE",
"105 -12 OFFCURVE",
"231 -14 CURVE",
"221 -21 LINE SMOOTH",
"193 -41 OFFCURVE",
"180 -68 OFFCURVE",
"180 -92 CURVE SMOOTH",
"180 -130 OFFCURVE",
"210 -164 OFFCURVE",
"254 -164 CURVE SMOOTH",
"358 -164 LINE",
"358 -98 LINE",
"271 -98 LINE SMOOTH",
"262 -98 OFFCURVE",
"255 -92 OFFCURVE",
"255 -84 CURVE SMOOTH",
"255 -77 OFFCURVE",
"258 -72 OFFCURVE",
"265 -67 CURVE SMOOTH",
"405 36 LINE SMOOTH",
"476 88 OFFCURVE",
"515 172 OFFCURVE",
"536 272 CURVE SMOOTH",
"567 417 LINE SMOOTH",
"574 448 OFFCURVE",
"577 478 OFFCURVE",
"577 505 CURVE SMOOTH",
"577 635 OFFCURVE",
"506 714 OFFCURVE",
"377 714 CURVE SMOOTH",
"213 714 OFFCURVE",
"116 614 OFFCURVE",
"77 428 CURVE SMOOTH"
);
},
{
closed = 1;
nodes = (
"163 62 OFFCURVE",
"120 116 OFFCURVE",
"120 202 CURVE SMOOTH",
"120 223 OFFCURVE",
"123 247 OFFCURVE",
"128 272 CURVE SMOOTH",
"160 422 LINE SMOOTH",
"188 553 OFFCURVE",
"255 638 OFFCURVE",
"365 638 CURVE SMOOTH",
"450 638 OFFCURVE",
"493 584 OFFCURVE",
"493 498 CURVE SMOOTH",
"493 477 OFFCURVE",
"490 453 OFFCURVE",
"485 428 CURVE SMOOTH",
"453 278 LINE SMOOTH",
"425 148 OFFCURVE",
"358 62 OFFCURVE",
"248 62 CURVE SMOOTH"
);
}
);
width = 612;
},
{
associatedMasterId = "8275915C-4C26-4DD7-A30E-5590CD7E6050";
layerId = "735DC595-FD3B-427A-B159-9643142C5D3F";
name = img;
width = 612;
},
{
layerId = "8275915C-4C26-4DD7-A30E-5590CD7E6050";
paths = (
{
closed = 1;
nodes = (
"32 272 LINE SMOOTH",
"27 249 OFFCURVE",
"25 226 OFFCURVE",
"25 204 CURVE SMOOTH",
"25 87 OFFCURVE",
"95 -4 OFFCURVE",
"222 -13 CURVE",
"210 -23 LINE SMOOTH",
"181 -45 OFFCURVE",
"168 -73 OFFCURVE",
"168 -99 CURVE SMOOTH",
"168 -137 OFFCURVE",
"196 -170 OFFCURVE",
"243 -170 CURVE SMOOTH",
"367 -170 LINE",
"367 -86 LINE",
"304 -86 LINE SMOOTH",
"293 -86 OFFCURVE",
"287 -79 OFFCURVE",
"287 -72 CURVE SMOOTH",
"287 -67 OFFCURVE",
"289 -63 OFFCURVE",
"295 -58 CURVE SMOOTH",
"411 29 LINE SMOOTH",
"488 87 OFFCURVE",
"523 154 OFFCURVE",
"548 272 CURVE SMOOTH",
"581 428 LINE SMOOTH",
"586 451 OFFCURVE",
"588 474 OFFCURVE",
"588 496 CURVE SMOOTH",
"588 620 OFFCURVE",
"509 714 OFFCURVE",
"368 714 CURVE SMOOTH",
"200 714 OFFCURVE",
"106 624 OFFCURVE",
"65 428 CURVE SMOOTH"
);
},
{
closed = 1;
nodes = (
"193 106 OFFCURVE",
"156 147 OFFCURVE",
"156 214 CURVE SMOOTH",
"156 229 OFFCURVE",
"158 246 OFFCURVE",
"162 264 CURVE SMOOTH",
"199 436 LINE SMOOTH",
"218 524 OFFCURVE",
"265 594 OFFCURVE",
"356 594 CURVE SMOOTH",
"420 594 OFFCURVE",
"457 553 OFFCURVE",
"457 486 CURVE SMOOTH",
"457 471 OFFCURVE",
"455 457 OFFCURVE",
"451 436 CURVE SMOOTH",
"414 264 LINE SMOOTH",
"395 176 OFFCURVE",
"348 106 OFFCURVE",
"257 106 CURVE SMOOTH"
);
}
);
width = 612;
}
);
unicode = 01EA;
},
{
glyphname = uni1ECE;
lastChange = "2025-01-15 13:07:57 +0000";
layers = (
{
components = (
{
alignment = -1;
name = O;
}
);
guideLines = (
{
angle = 90;
position = "{365, 0}";
},
{
angle = 90;
position = "{377, 0}";
}
);
layerId = "CCBD71C2-CFAF-4DB2-A010-494EF6BDA443";
paths = (
{
closed = 1;
nodes = (
"405 750 LINE",
"405 818 LINE",
"411 818 LINE",
"419 798 OFFCURVE",
"441 786 OFFCURVE",
"469 786 CURVE SMOOTH",
"517 786 OFFCURVE",
"553 828 OFFCURVE",
"553 878 CURVE SMOOTH",
"553 926 OFFCURVE",
"515 962 OFFCURVE",
"463 962 CURVE SMOOTH",
"409 962 OFFCURVE",
"381 932 OFFCURVE",
"365 892 CURVE",
"410 874 LINE",
"417 898 OFFCURVE",
"433 914 OFFCURVE",
"457 914 CURVE SMOOTH",
"483 914 OFFCURVE",
"499 898 OFFCURVE",
"499 874 CURVE SMOOTH",
"499 848 OFFCURVE",
"485 833 OFFCURVE",
"461 833 CURVE SMOOTH",
"449 833 OFFCURVE",
"439 838 OFFCURVE",
"433 848 CURVE",
"361 848 LINE",
"356 842 LINE",
"356 750 LINE"
);
}
);
width = 612;
},
{
associatedMasterId = "8275915C-4C26-4DD7-A30E-5590CD7E6050";
layerId = "7CC7F08F-CA51-424F-9A4B-DEF63D749448";
name = img;
width = 612;
},
{
components = (
{
alignment = -1;
name = O;
},
{
alignment = -1;
name = uni0309;
transform = "{1, 0, 0, 1, 153, 92}";
}
);
layerId = "8275915C-4C26-4DD7-A30E-5590CD7E6050";
width = 612;
}
);
unicode = 1ECE;
},
{
glyphname = uni1ED4;
lastChange = "2025-01-15 13:07:57 +0000";
layers = (
{
associatedMasterId = "CCBD71C2-CFAF-4DB2-A010-494EF6BDA443";
layerId = "B5F68FDA-8C9D-4654-935C-D86EAB7081E6";
name = img;
width = 612;
},
{
components = (
{
alignment = -1;
name = O;
},
{
alignment = -1;
name = circumflex;
transform = "{1, 0, 0, 1, 52, 204}";
}
);
guideLines = (
{
position = "{0, 858}";
}
);
layerId = "CCBD71C2-CFAF-4DB2-A010-494EF6BDA443";
paths = (
{
closed = 1;
nodes = (
"587 858 LINE",
"587 926 LINE",
"593 926 LINE",
"601 906 OFFCURVE",
"623 894 OFFCURVE",
"651 894 CURVE SMOOTH",
"699 894 OFFCURVE",
"735 936 OFFCURVE",
"735 986 CURVE SMOOTH",
"735 1034 OFFCURVE",
"697 1070 OFFCURVE",
"645 1070 CURVE SMOOTH",
"591 1070 OFFCURVE",
"563 1040 OFFCURVE",
"547 1000 CURVE",
"592 982 LINE",
"599 1006 OFFCURVE",
"615 1022 OFFCURVE",
"639 1022 CURVE SMOOTH",
"665 1022 OFFCURVE",
"681 1006 OFFCURVE",
"681 982 CURVE SMOOTH",
"681 956 OFFCURVE",
"667 941 OFFCURVE",
"643 941 CURVE SMOOTH",
"631 941 OFFCURVE",
"621 946 OFFCURVE",
"615 956 CURVE",
"543 956 LINE",
"538 950 LINE",
"538 858 LINE"
);
}
);
width = 612;
},
{
associatedMasterId = "8275915C-4C26-4DD7-A30E-5590CD7E6050";
layerId = "22D10CE2-9E64-4DB9-8397-E7CCBAE8DA02";
name = img;
width = 612;
},
{
components = (
{
alignment = -1;
name = O;
},
{
alignment = -1;
name = circumflex;
transform = "{1, 0, 0, 1, 50, 204}";
},
{
alignment = -1;
name = uni0309;
transform = "{1, 0, 0, 1, 368, 204}";
}
);
layerId = "8275915C-4C26-4DD7-A30E-5590CD7E6050";
width = 612;
}
);
unicode = 1ED4;
},
{
glyphname = uni01A0;
lastChange = "2025-01-15 13:07:57 +0000";
layers = (
{
associatedMasterId = "CCBD71C2-CFAF-4DB2-A010-494EF6BDA443";
layerId = "B5F68FDA-8C9D-4654-935C-D86EAB7081E6";
name = img;
width = 612;
},
{
layerId = "CCBD71C2-CFAF-4DB2-A010-494EF6BDA443";
paths = (
{
closed = 1;
nodes = (
"514 592 OFFCURVE",
"546 560 OFFCURVE",
"584 560 CURVE SMOOTH",
"588 560 LINE",
"583 538 LINE SMOOTH",
"579 519 OFFCURVE",
"568 508 OFFCURVE",
"549 508 CURVE SMOOTH",
"488 508 LINE",
"490 520 OFFCURVE",
"491 532 OFFCURVE",
"491 544 CURVE SMOOTH",
"491 643 OFFCURVE",
"424 714 OFFCURVE",
"317 714 CURVE SMOOTH",
"187 714 OFFCURVE",
"106 626 OFFCURVE",
"74 476 CURVE SMOOTH",
"22 232 LINE SMOOTH",
"17 206 OFFCURVE",
"14 183 OFFCURVE",
"14 161 CURVE SMOOTH",
"14 47 OFFCURVE",
"84 -14 OFFCURVE",
"184 -14 CURVE SMOOTH",
"307 -14 OFFCURVE",
"392 55 OFFCURVE",
"427 218 CURVE SMOOTH",
"478 454 LINE",
"542 454 LINE SMOOTH",
"594 454 OFFCURVE",
"625 482 OFFCURVE",
"635 532 CURVE SMOOTH",
"653 618 LINE SMOOTH",
"654 623 OFFCURVE",
"654 627 OFFCURVE",
"654 630 CURVE SMOOTH",
"654 668 OFFCURVE",
"622 700 OFFCURVE",
"584 700 CURVE SMOOTH",
"546 700 OFFCURVE",
"514 668 OFFCURVE",
"514 630 CURVE SMOOTH"
);
},
{
closed = 1;
nodes = (
"127 62 OFFCURVE",
"97 96 OFFCURVE",
"97 160 CURVE SMOOTH",
"97 179 OFFCURVE",
"100 200 OFFCURVE",
"105 224 CURVE SMOOTH",
"158 476 LINE SMOOTH",
"180 578 OFFCURVE",
"229 638 OFFCURVE",
"309 638 CURVE SMOOTH",
"377 638 OFFCURVE",
"406 603 OFFCURVE",
"406 540 CURVE SMOOTH",
"406 521 OFFCURVE",
"403 500 OFFCURVE",
"398 476 CURVE SMOOTH",
"345 224 LINE SMOOTH",
"321 114 OFFCURVE",
"272 62 OFFCURVE",
"190 62 CURVE SMOOTH"
);
}
);
width = 612;
},
{
associatedMasterId = "8275915C-4C26-4DD7-A30E-5590CD7E6050";
layerId = "E5934050-B3BF-47A6-BC09-0FD0B3B968B9";
name = img;
width = 612;
},
{
layerId = "8275915C-4C26-4DD7-A30E-5590CD7E6050";
paths = (
{
closed = 1;
nodes = (
"464 560 OFFCURVE",
"504 526 OFFCURVE",
"540 526 CURVE",
"537 510 LINE SMOOTH",
"533 491 OFFCURVE",
"521 480 OFFCURVE",
"502 480 CURVE SMOOTH",
"438 480 LINE",
"446 515 LINE SMOOTH",
"449 530 OFFCURVE",
"451 544 OFFCURVE",
"451 558 CURVE SMOOTH",
"451 646 OFFCURVE",
"389 714 OFFCURVE",
"278 714 CURVE SMOOTH",
"151 714 OFFCURVE",
"84 636 OFFCURVE",
"62 529 CURVE SMOOTH",
"-10 185 LINE SMOOTH",
"-13 170 OFFCURVE",
"-15 156 OFFCURVE",
"-15 142 CURVE SMOOTH",
"-15 54 OFFCURVE",
"47 -14 OFFCURVE",
"158 -14 CURVE SMOOTH",
"285 -14 OFFCURVE",
"352 64 OFFCURVE",
"374 171 CURVE SMOOTH",
"422 402 LINE",
"501 402 LINE SMOOTH",
"560 402 OFFCURVE",
"597 427 OFFCURVE",
"609 484 CURVE SMOOTH",
"632 592 LINE SMOOTH",
"634 601 OFFCURVE",
"635 609 OFFCURVE",
"635 617 CURVE SMOOTH",
"635 665 OFFCURVE",
"603 700 OFFCURVE",
"554 700 CURVE SMOOTH",
"505 700 OFFCURVE",
"464 659 OFFCURVE",
"464 610 CURVE SMOOTH"
);
},
{
closed = 1;
nodes = (
"140 112 OFFCURVE",
"119 133 OFFCURVE",
"119 166 CURVE SMOOTH",
"119 174 OFFCURVE",
"120 179 OFFCURVE",
"121 185 CURVE SMOOTH",
"192 519 LINE SMOOTH",
"200 558 OFFCURVE",
"217 588 OFFCURVE",
"262 588 CURVE SMOOTH",
"296 588 OFFCURVE",
"317 567 OFFCURVE",
"317 534 CURVE SMOOTH",
"317 526 OFFCURVE",
"316 521 OFFCURVE",
"315 515 CURVE SMOOTH",
"244 181 LINE SMOOTH",
"236 142 OFFCURVE",
"219 112 OFFCURVE",
"174 112 CURVE SMOOTH"
);
}
);
width = 612;
}
);
unicode = 01A0;
},
{
glyphname = uni1EDA;
lastChange = "2025-01-15 13:07:57 +0000";
layers = (
{
associatedMasterId = "CCBD71C2-CFAF-4DB2-A010-494EF6BDA443";
layerId = "B5F68FDA-8C9D-4654-935C-D86EAB7081E6";
name = img;
width = 612;
},
{
components = (
{
alignment = -1;
name = acute;
transform = "{1, 0, 0, 1, 23, 204}";
}
);
guideLines = (
{
angle = 90;
position = "{-175, 0}";
},
{
angle = 90;
position = "{325, 0}";
},
{
angle = 90;
position = "{314, 0}";
}
);
layerId = "CCBD71C2-CFAF-4DB2-A010-494EF6BDA443";
paths = (
{
closed = 1;
nodes = (
"514 592 OFFCURVE",
"546 560 OFFCURVE",
"584 560 CURVE SMOOTH",
"588 560 LINE",
"583 538 LINE SMOOTH",
"579 519 OFFCURVE",
"568 508 OFFCURVE",
"549 508 CURVE SMOOTH",
"488 508 LINE",
"490 520 OFFCURVE",
"491 532 OFFCURVE",
"491 544 CURVE SMOOTH",
"491 643 OFFCURVE",
"424 714 OFFCURVE",
"317 714 CURVE SMOOTH",
"187 714 OFFCURVE",
"106 626 OFFCURVE",
"74 476 CURVE SMOOTH",
"22 232 LINE SMOOTH",
"17 206 OFFCURVE",
"14 183 OFFCURVE",
"14 161 CURVE SMOOTH",
"14 47 OFFCURVE",
"84 -14 OFFCURVE",
"184 -14 CURVE SMOOTH",
"307 -14 OFFCURVE",
"392 55 OFFCURVE",
"427 218 CURVE SMOOTH",
"478 454 LINE",
"542 454 LINE SMOOTH",
"594 454 OFFCURVE",
"625 482 OFFCURVE",
"635 532 CURVE SMOOTH",
"653 618 LINE SMOOTH",
"654 623 OFFCURVE",
"654 627 OFFCURVE",
"654 630 CURVE SMOOTH",
"654 668 OFFCURVE",
"622 700 OFFCURVE",
"584 700 CURVE SMOOTH",
"546 700 OFFCURVE",
"514 668 OFFCURVE",
"514 630 CURVE SMOOTH"
);
},
{
closed = 1;
nodes = (
"127 62 OFFCURVE",
"97 96 OFFCURVE",
"97 160 CURVE SMOOTH",
"97 179 OFFCURVE",
"100 200 OFFCURVE",
"105 224 CURVE SMOOTH",
"158 476 LINE SMOOTH",
"180 578 OFFCURVE",
"229 638 OFFCURVE",
"309 638 CURVE SMOOTH",
"377 638 OFFCURVE",
"406 603 OFFCURVE",
"406 540 CURVE SMOOTH",
"406 521 OFFCURVE",
"403 500 OFFCURVE",
"398 476 CURVE SMOOTH",
"345 224 LINE SMOOTH",
"321 114 OFFCURVE",
"272 62 OFFCURVE",
"190 62 CURVE SMOOTH"
);
}
);
width = 612;
},
{
associatedMasterId = "8275915C-4C26-4DD7-A30E-5590CD7E6050";
layerId = "5E32EF13-218A-4CD9-BA40-52E4D5044C2E";
name = img;
width = 612;
},
{
components = (
{
alignment = -1;
name = uni01A0;
},
{
alignment = -1;
name = acute;
transform = "{1, 0, 0, 1, -20, 204}";
}
);
layerId = "8275915C-4C26-4DD7-A30E-5590CD7E6050";
width = 612;
}
);
unicode = 1EDA;
},
{
glyphname = uni1EDC;
lastChange = "2025-01-15 13:07:57 +0000";
layers = (
{
associatedMasterId = "CCBD71C2-CFAF-4DB2-A010-494EF6BDA443";
layerId = "B5F68FDA-8C9D-4654-935C-D86EAB7081E6";
name = img;
width = 612;
},
{
components = (
{
alignment = -1;
name = grave;
transform = "{1, 0, 0, 1, -55, 204}";
}
);
layerId = "CCBD71C2-CFAF-4DB2-A010-494EF6BDA443";
paths = (
{
closed = 1;
nodes = (
"514 592 OFFCURVE",
"546 560 OFFCURVE",
"584 560 CURVE SMOOTH",
"588 560 LINE",
"583 538 LINE SMOOTH",
"579 519 OFFCURVE",
"568 508 OFFCURVE",
"549 508 CURVE SMOOTH",
"488 508 LINE",
"490 520 OFFCURVE",
"491 532 OFFCURVE",
"491 544 CURVE SMOOTH",
"491 643 OFFCURVE",
"424 714 OFFCURVE",
"317 714 CURVE SMOOTH",
"187 714 OFFCURVE",
"106 626 OFFCURVE",
"74 476 CURVE SMOOTH",
"22 232 LINE SMOOTH",
"17 206 OFFCURVE",
"14 183 OFFCURVE",
"14 161 CURVE SMOOTH",
"14 47 OFFCURVE",
"84 -14 OFFCURVE",
"184 -14 CURVE SMOOTH",
"307 -14 OFFCURVE",
"392 55 OFFCURVE",
"427 218 CURVE SMOOTH",
"478 454 LINE",
"542 454 LINE SMOOTH",
"594 454 OFFCURVE",
"625 482 OFFCURVE",
"635 532 CURVE SMOOTH",
"653 618 LINE SMOOTH",
"654 623 OFFCURVE",
"654 627 OFFCURVE",
"654 630 CURVE SMOOTH",
"654 668 OFFCURVE",
"622 700 OFFCURVE",
"584 700 CURVE SMOOTH",
"546 700 OFFCURVE",
"514 668 OFFCURVE",
"514 630 CURVE SMOOTH"
);
},
{
closed = 1;
nodes = (
"127 62 OFFCURVE",
"97 96 OFFCURVE",
"97 160 CURVE SMOOTH",
"97 179 OFFCURVE",
"100 200 OFFCURVE",
"105 224 CURVE SMOOTH",
"158 476 LINE SMOOTH",
"180 578 OFFCURVE",
"229 638 OFFCURVE",
"309 638 CURVE SMOOTH",
"377 638 OFFCURVE",
"406 603 OFFCURVE",
"406 540 CURVE SMOOTH",
"406 521 OFFCURVE",
"403 500 OFFCURVE",
"398 476 CURVE SMOOTH",
"345 224 LINE SMOOTH",
"321 114 OFFCURVE",
"272 62 OFFCURVE",
"190 62 CURVE SMOOTH"
);
}
);
width = 612;
},
{
associatedMasterId = "8275915C-4C26-4DD7-A30E-5590CD7E6050";
layerId = "B802AA21-412B-45AA-8359-02CCD46BC9FC";
name = img;
width = 612;
},
{
components = (
{
alignment = -1;
name = uni01A0;
},
{
alignment = -1;
name = grave;
transform = "{1, 0, 0, 1, -90, 204}";
}
);
layerId = "8275915C-4C26-4DD7-A30E-5590CD7E6050";
width = 612;
}
);
unicode = 1EDC;
},
